<?xml version="1.0" encoding="utf-8"?>
<!-- Generator: Adobe Illustrator 21.0.0, SVG Export Plug-In . SVG Version: 6.00 Build 0)  -->
<svg version="1.1" id="Layer_1" xmlns="http://www.w3.org/2000/svg" xmlns:xlink="http://www.w3.org/1999/xlink" x="0px" y="0px"
	 viewBox="0 0 80 80" style="enable-background:new 0 0 80 80;" xml:space="preserve">
<style type="text/css">
	.st0{fill:none;stroke:#19A6D1;stroke-width:4.1629;stroke-miterlimit:10;}
	.st1{fill:none;stroke:#19A6D1;stroke-width:4.31;stroke-miterlimit:10;}
	.st2{fill:#19A6D1;}
	.st3{clip-path:url(#SVGID_3_);}
	.st4{fill:#22024F;}
	.st5{fill:#FFFFFF;}
</style>
<g>
	<line class="st0" x1="16.5" y1="39.8" x2="4.3" y2="39.8"/>
	<line class="st0" x1="62.1" y1="39.8" x2="74.3" y2="39.8"/>
	<circle class="st1" cx="39.3" cy="39.8" r="35"/>
	<g>
		<g>
			<circle id="SVGID_1_" class="st2" cx="39.3" cy="39.8" r="30.6"/>
		</g>
		<g>
			<defs>
				<circle id="SVGID_2_" cx="39.3" cy="39.8" r="30.6"/>
			</defs>
			<clipPath id="SVGID_3_">
				<use xlink:href="#SVGID_2_"  style="overflow:visible;"/>
			</clipPath>
			<g class="st3">
				<g>
					<g>
						<path class="st4" d="M23.6,25.6c2.4,0.1,4.5,0.6,6.5,1.3c0.9,0.3,1.7,0.7,2.5,1.3c0.4,0.3,0.7,0.7,1,1
							c0.2,0.1,0.4,0.2,0.6,0.2c0.3,0,0.7,0,1,0c0.4,0,0.8,0.1,1.2,0.1c0.6,0,1.1,0.2,1.5,0.7c0.3,0.4,0.7,0.5,1.2,0.5
							c0.7,0,1.1-0.1,1.6-0.6c0.4-0.5,1.1-0.6,1.8-0.6c0.3,0,0.5,0,0.8-0.1c0.3,0,0.7,0,1,0c0.2,0,0.4,0,0.5-0.1
							c1.2-1.4,2.7-2.2,4.4-2.7c2-0.6,3.9-1.1,6-1c1.5,0,2.8,0.6,3.8,1.6c1,1.1,1.2,2.4,1,3.7c-0.2,1.5-1,2.6-1.9,3.7
							c-0.6,0.8-1.2,1.6-1.4,2.6c-0.1,0.6-0.4,1.3-0.7,1.9c-0.2,0.5-0.1,0.9,0.2,1.2c0.6,0.6,1.1,1.4,1.9,1.7
							c0.3,0.1,0.5,0.1,0.6-0.1c1.2-1.9,3.2-1.8,4.5-0.8c1.1,0.8,1.8,1.9,2.3,3.2c0.3,0.8,0.5,1.6,0.6,2.4c0,1-0.2,1.9-0.8,2.6
							c-0.3,0.4-0.7,0.7-1,1.2c-0.2,0.3-0.4,0.7-0.4,1c-0.2,4.2-0.5,8.5-0.7,12.7c-0.1,1-0.1,2-0.3,2.9c-0.2,0.6-0.6,1.1-1.1,1.5
							c-1.2,1.1-2.7,1.6-4.3,1.4c-1.3-0.2-2.3-1.2-2.2-2.8c0.1-3.1,0.2-6.1,0.3-9.2c0.1-2.2,0.3-4.4,0.2-6.5c0-1.6-0.5-3-1.9-4
							c-0.2-0.1-0.6-0.2-0.7-0.1c-0.3,0.2-0.6,0.5-0.6,0.8c0,1.5-0.6,2.8-1.6,4c-0.1,0.2-0.3,0.4-0.3,0.6c-0.6,1.8-2.8,2.2-4.1,1.8
							c-1-0.3-1.8-0.9-2.5-1.6c-0.3-0.3-0.8-0.5-1.1-0.8c-0.6-0.4-1.2-0.9-1.7-1.4c-0.6-0.5-1-1.3-1.8-1.5c-0.2,0-0.4-0.1-0.6,0
							c-0.6,0.3-1.1,0.6-1.5,1.1c-0.7,0.9-1.5,1.6-2.5,2c-0.5,0.2-0.8,0.6-1.2,1C32.4,55,30,55.1,28.5,54c-0.4-0.3-0.6-0.9-0.9-1.3
							c-0.1-0.2-0.2-0.4-0.4-0.6c-1-1-1.3-2.3-1.4-3.7c0-0.5-0.3-0.8-0.7-0.9c-0.2-0.1-0.5,0.1-0.7,0.2c-0.8,0.5-1.1,1.4-1.5,2.3
							c-0.4,1-0.2,2-0.2,3c0.1,4,0.2,8.1,0.3,12.1c0,0.9,0,1.8,0,2.7c0.1,1.2-1,2.3-2.2,2.4c-2,0.1-3.8-0.6-5-2.2
							c-0.3-0.4-0.5-1-0.5-1.5c-0.2-3.3-0.3-6.5-0.5-9.8c-0.1-1.8-0.2-3.6-0.4-5.4c0-0.4-0.4-0.7-0.7-1c-0.8-0.8-1.4-1.8-1.4-2.9
							c0-0.8,0.1-1.6,0.3-2.3c0.4-1.4,1.1-2.6,2.2-3.5s2.4-1.4,3.8-0.5c0.4,0.2,0.6,0.6,0.9,1c0.2,0.3,0.4,0.4,0.7,0.2
							c1-0.3,1.5-1.2,2.1-2c0.2-0.3,0.2-0.9,0-1.3c-0.6-1.9-1.4-3.7-2.7-5.3c-1.1-1.3-1.5-2.9-1.1-4.6c0.5-1.9,2.2-3,3.9-3.2
							C22.9,25.6,23.4,25.6,23.6,25.6z M60.7,45.6L60.7,45.6c0.2,0,0.3,0.2,0.5,0.3c0.6,0.6,1.1,1.2,1.7,1.6
							c0.3,0.3,0.9,0.4,1.3,0.3c0.6-0.1,0.5-0.7,0.5-1.2c-0.2-1.6-0.8-3.1-2.1-4.2c-1-0.9-2.1-0.6-2.5,0.6v0.1
							c-0.2,0.6-0.8,0.9-1.4,0.7c-0.4-0.1-0.7-0.3-1.1-0.4c-0.8-0.3-1.4-0.8-1.9-1.5c-0.2-0.4-0.6-0.7-1-0.9
							c-0.8-0.5-1.6-0.7-2.5-0.3c-1.2,0.6-1.8,1.5-2.1,2.8c-0.2,1.2,0.1,1.9,1.3,2.2c0.1,0,0.2,0.2,0.3,0.3
							c-0.1,0.1-0.2,0.3-0.3,0.3c-0.3,0-0.6,0-0.8-0.2c-0.7-0.5-1.1-1.1-1.1-2c0-0.6,0.2-1.1,0.3-1.7c0.3-0.9,0.8-1.7,1.7-2.2
							c0.8-0.5,1.7-0.9,2.7-0.5c0,0,0.1,0,0.2,0c0-0.4-0.1-0.7-0.1-1.1c-0.6,0.2-0.9,0-1.2-0.5s-0.1-0.8,0.2-1.2
							c0.1-0.2,0.1-0.6,0.5-0.5c0.1,0,0.1,0.6,0,0.8c-0.2,0.4-0.2,0.7,0.2,0.9s0.7,0.1,0.9-0.2s0.4-0.7,0.5-1.1
							c0.3-0.7,0.6-1.4,0.9-2.1c0.3-0.6,0.7-1,1.1-1.5c0.5-0.7,0.9-1.4,1.1-2.2c0.4-1.9-0.8-3.7-2.7-3.8c-1-0.1-2.1,0-3.1,0.2
							c-2,0.3-3.9,0.8-5.7,1.9c-1.4,0.9-1.8,2.1-1,3.3c0.3,0.4,0.6,0.7,1,1c0.7,0.6,1,1.3,0.6,2.2c-0.4,0.8-0.9,1.4-1.3,2.1
							c-0.1,0.1-0.2,0.3-0.1,0.4c0,0.1,0.2,0.1,0.4,0.2c0.2,0,0.5,0,0.7,0.1c0.8,0.1,1.5,1.2,1.3,2c-0.3,1.1-1,1.9-2,2.4
							c-1.3,0.7-2.8,0.8-4.3,0.7c-0.6,0-1.2-0.1-1.7-0.1c-0.3,0-0.5,0.2-0.7,0.3c-0.1,0.1-0.2,0.3-0.2,0.4c0,1,0,2,0,3
							c0,0.3,0,0.7,0.4,0.8c0.8,0.2,1.3,0.7,1.8,1.3c0.5,0.5,0.9,1.1,1.5,1.4c0.8,0.4,1.6,0.9,2.2,1.6c0.5,0.6,1.1,0.8,1.9,0.9
							c1.1,0,1.6-0.3,2-1.3c0.1-0.3,0.3-0.6,0.5-0.8c1-0.9,1.1-2.1,1.1-3.3c0-0.5-0.1-0.8-0.7-0.9c-0.4-0.1-0.7-0.3-0.8-0.8
							c0.2,0,0.4,0,0.5,0.1c0.5,0.4,1.1,0.3,1.6,0.3c0.4,0,0.5-0.1,0.4-0.6c-0.1-0.3-0.3-0.7-0.2-1c0.1-0.7,0.2-1.4,0.4-2.1
							c0.1-0.3,0.4-0.6,0.6-0.9l0.1,0.1c-0.1,0.2-0.2,0.4-0.3,0.6c-0.3,0.8-0.6,1.7-0.3,2.6c0.1,0.3,0.3,0.5,0.7,0.5
							c0.3,0,0.6,0,0.8,0c1.4,0.6,2.4,1.5,2.9,3.1c0,0.2,0.1,0.3,0.2,0.5c0.1,0,0.1,0,0.2,0c0.3-1,0.6-2.1,0.9-3.1
							c0.1,0,0.1,0,0.2,0c0,0.2,0,0.4,0,0.6c-0.1,0.3-0.3,0.6-0.3,0.9c-0.2,0.7-0.3,1.4-0.4,2.2c-0.1,1.2-0.3,2.3-0.3,3.5
							c-0.1,2.7-0.2,5.4-0.3,8.1c-0.1,1.9-0.1,3.9-0.2,5.8c0,0.8,0.4,1.2,1.2,1.2c1,0.1,1.9-0.3,2.7-0.9c0.8-0.5,1.1-1.3,1.1-2.2
							c0-1.1,0-2.3,0.1-3.4c0.2-3.6,0.4-7.2,0.6-10.7c0-0.7,0.2-1.3,0.7-1.8c0.3-0.3,0.5-0.6,0.7-0.8c-0.6-0.5-1.3-0.9-1.9-1.3
							C61.5,47,61.1,46.3,60.7,45.6z M28.6,46.2l0.1,0.1c-0.2,0.3-0.4,0.6-0.8,0.6c-0.3,0-0.5,0.1-0.5,0.4c-0.1,1.3,0,2.5,1,3.5
							c0.3,0.4,0.6,0.8,0.8,1.3c0.2,0.5,0.6,0.8,1.2,0.9c1.2,0.2,2.1-0.2,2.9-1.1c0.3-0.4,0.7-0.8,1.2-1c0.9-0.4,1.5-0.9,2.1-1.6
							c0.6-0.6,1.1-1.3,2-1.5c0.2,0,0.4-0.4,0.4-0.7c0-1,0-1.9,0-2.9c0-0.7-0.4-1-1.1-0.9c-0.9,0.1-1.8,0.1-2.7,0.1
							c-0.3,0-0.7-0.1-1-0.1c-1.5-0.1-2.8-0.7-3.6-2c-0.5-0.7-0.8-1.4-0.3-2.3c0.4-0.6,0.9-0.9,1.7-0.9c0.2,0,0.4-0.1,0.5-0.1
							c-0.1-0.2-0.1-0.4-0.2-0.5c-0.4-0.5-0.8-1.1-1.1-1.6c-0.6-1.2-0.7-1.6,0.3-2.5c0.3-0.3,0.7-0.6,1-1c0.7-1,0.8-2-0.1-2.8
							c-0.8-0.7-1.7-1.3-2.7-1.6c-1.2-0.5-2.6-0.7-3.9-0.9c-1.1-0.2-2.2-0.3-3.3-0.1c-1.6,0.3-2.7,1.8-2.4,3.3
							c0.2,1,0.7,1.9,1.3,2.7c0.9,1.1,1.8,2.2,2,3.7c0,0.3,0.2,0.6,0.4,0.8c0.2,0.3,0.6,0.4,0.9,0.2c0.4-0.2,0.4-0.5,0.2-0.8
							c-0.1-0.2-0.1-0.5-0.2-0.8c0.4,0.1,1,0.9,0.9,1.2c-0.1,0.2-0.2,0.5-0.4,0.7c-0.3,0.2-0.6,0.2-1,0.4c0,0.3,0,0.7-0.1,1.1
							c0.1,0,0.2,0,0.3,0c0.5,0,1-0.2,1.4-0.1c2,0.4,3.3,2.3,3.2,4.5c-0.1,1.4-1.3,2.3-2.6,1.8c-0.3,0.3-0.1,0.5,0.1,0.5
							c0.5,0,1-0.1,1.5-0.1C28.3,46.4,28.4,46.3,28.6,46.2z M26.5,45.9c1.4-0.1,1.9-0.7,1.9-1.5c0.1-1-0.2-2-0.9-2.8
							c-1.4-1.5-3.3-1.5-4.5,0.1c-0.8,1.1-1.8,1.7-3,2.1c-1,0.3-1.4,0.1-1.7-0.9c-0.2-0.6-0.8-1.1-1.4-0.9c-0.4,0.1-0.8,0.3-1.1,0.6
							c-1.4,1.2-2,2.8-2.1,4.7c0,0.6,0.4,0.9,0.9,0.7c0.8-0.2,1.4-0.7,2-1.3c0.3-0.3,0.5-0.6,0.7-0.9c0,0.6-0.3,0.9-0.6,1.3
							c-0.3,0.3-0.7,0.7-1.1,1c-0.4,0.3-0.9,0.4-1.4,0.6c0.1,0.2,0.3,0.3,0.4,0.4c0.7,0.7,1.2,1.4,1.2,2.4c0,0.5,0.1,0.9,0.1,1.4
							c0.2,4.2,0.4,8.4,0.7,12.7c0,0.6-0.1,1.2,0.4,1.7c0.9,0.9,2,1.4,3.3,1.4c0.8,0,1.2-0.3,1.2-1.2c0-0.7,0-1.4,0-2.1
							c-0.1-3.3-0.1-6.5-0.2-9.8c0-1.3-0.1-2.6-0.2-3.9c-0.1-1-0.4-2.1-0.5-3.1c-0.1-0.3-0.1-0.6-0.2-0.9c-0.1-0.4-0.1-0.7-0.2-1.1
							c0.2,0.1,0.3,0.1,0.3,0.3c0.2,0.6,0.4,1.3,0.6,1.9c0.1,0.2,0.1,0.5,0.2,0.7c0.1,0,0.1,0,0.2,0c0.1-0.2,0.2-0.3,0.2-0.5
							c0.4-1.1,1-2,2-2.7c0.5-0.3,1-0.6,1.6-0.4c0.4,0.1,0.7-0.2,0.8-0.6c0.3-1.1,0-2.1-0.6-3.1c-0.1-0.1-0.1-0.2-0.3-0.4
							c0.2,0.1,0.3,0.1,0.3,0.1c0.2,0.3,0.5,0.6,0.6,0.9c0.4,0.8,0.8,1.6,0.4,2.6C26.5,45.5,26.5,45.7,26.5,45.9z M41.1,43.1
							c0.5,0.1,1,0.1,1.5,0.2c0.8,0.1,1.1-0.1,1.3-0.8c0.2-0.6,0.4-1.2,0.6-1.7c0.3-1,0.5-2,1.2-2.8c0.4-0.6,0.8-1.1,1.2-1.7
							c0.6-0.9,0.4-1.9-0.4-2.6c-0.4-0.4-0.9-0.8-1.1-1.4c-0.2-0.7-0.7-1-1.2-1.3c-0.4-0.2-0.6-0.1-0.8,0.3
							c-0.1,0.2-0.3,0.4-0.4,0.6c-0.1-0.2-0.3-0.3-0.4-0.5c-0.2-0.4-0.5-0.5-0.8-0.2c-0.2,0.2-0.3,0.5-0.5,0.8
							c-0.1,0.3-0.3,0.5-0.7,0.4c-0.9-0.2-1.8-0.2-2.6,0c-0.2,0-0.4-0.1-0.6-0.2c-0.1-0.1-0.1-0.2-0.2-0.4c-0.1-0.4-0.4-0.7-0.8-0.8
							c-0.4,0-0.4,0.4-0.5,0.6c0,0.1-0.2,0.2-0.3,0.2s-0.3-0.1-0.3-0.2c-0.2-0.2-0.3-0.6-0.4-0.7c-0.2,0-0.5,0.2-0.8,0.3
							c-0.1,0-0.2,0.1-0.3,0.1c-0.1,0.1-0.3,0.2-0.3,0.4c-0.2,0.8-0.8,1.5-1.4,2c-0.5,0.4-0.7,0.9-0.6,1.6c0.2,0.8,0.6,1.4,1,1.9
							c0.7,0.8,1.2,1.7,1.5,2.8c0.2,0.8,0.5,1.6,0.8,2.4c0.2,0.6,0.7,0.9,1.4,0.8c0.6-0.1,1.3-0.1,1.9-0.1c0.4,0,0.7,0.1,1,0.4
							c0.1,0.1,0.5,0.2,0.6,0.1C39.9,43.1,40.4,43,41.1,43.1z M45.8,41.6c0.2-0.1,0.4-0.1,0.5-0.2c0.2-0.2,0.4-0.5,0.6-0.8
							c0.2-0.2,0.2-0.5-0.1-0.6c-0.3-0.2-0.6-0.1-0.7,0.2C46,40.6,45.9,41,45.8,41.6z M32.6,41.5L32.6,41.5c-0.1-0.5-0.2-1-0.4-1.4
							C32.1,40,31.8,40,31.6,40c0,0.2-0.2,0.4-0.1,0.6c0.1,0.3,0.3,0.5,0.5,0.7C32.2,41.4,32.4,41.4,32.6,41.5z"/>
						<path class="st4" d="M44.8,44.8c-0.8,0.1-1.5,0.1-2.2,0.2v-0.1c1-0.6,5.5-0.9,5.9,0c-0.1,0-0.1,0.1-0.2,0.1
							c-0.7,0.3-1,0.8-0.7,1.5c0.7,1.3-0.2,2.3-0.7,3.3c-0.1,0.1-0.4,0.2-0.5,0.1c-0.9-0.5-1.9-1.1-2.4-2.1
							c-0.4-0.8-0.4-1.6,0.3-2.4C44.4,45.3,44.6,45.1,44.8,44.8z M46,46.1c-0.2,0-0.3,0-0.3,0.1c-0.2,0.2-0.4,0.5-0.4,0.7
							c0.1,0.3,0.4,0.6,0.6,0.9c0.1-0.1,0.4-0.2,0.4-0.3C46.2,47.1,46.1,46.6,46,46.1z"/>
						<path class="st4" d="M36.3,45c-0.8,0-1.6-0.1-2.4-0.1c0.1,0.2,0.2,0.3,0.2,0.4c0.2,0.4,0.5,0.7,0.7,1.1
							c0.2,0.4,0.1,0.8-0.1,1.2c-0.5,1-1.3,1.7-2.3,2.2c-0.5,0.3-0.8,0.1-1-0.4c-0.1-0.3-0.2-0.7-0.4-0.9c-0.3-0.5-0.3-1-0.2-1.5
							c0.1-0.4,0.2-0.8,0.2-1.1c0-0.4-0.2-0.7-0.6-0.7c-0.1,0-0.3-0.1-0.4-0.2C30.6,44,35.2,44.1,36.3,45z M32.4,46.1
							c-0.1,0.4-0.2,0.7-0.2,1c0,0.2,0.1,0.5,0.1,0.7c0.2-0.1,0.4-0.2,0.6-0.3l0.1-0.1c0.1-0.2,0.2-0.5,0.2-0.7
							C33.1,46.4,32.9,46.1,32.4,46.1z"/>
					</g>
					<g>
						<path class="st4" d="M41.5,32.9c0,0.8-1.2,1.3-2.5,1.2c-1.3-0.1-2.2-0.5-2-1.1C38.5,33.8,40,33.9,41.5,32.9z"/>
						<path class="st4" d="M36.3,34.9c0.2,0.3,0.4,0.5,0.5,0.7l-0.3,0.3c-0.2-0.2-0.4-0.4-0.5-0.6C36,35.2,36.1,35.1,36.3,34.9z"/>
						<path class="st4" d="M42.7,35.4c-0.3,0.2-0.5,0.4-0.7,0.4c-0.1,0-0.2-0.2-0.3-0.3c0.2-0.2,0.3-0.3,0.5-0.5
							C42.2,35,42.4,35.2,42.7,35.4z"/>
						<path class="st4" d="M36.9,40.8c-0.2-0.3-0.4-0.4-0.5-0.6c0-0.1,0.2-0.2,0.3-0.4c0.2,0.2,0.4,0.3,0.5,0.5
							C37.2,40.3,37,40.5,36.9,40.8z"/>
						<path class="st4" d="M36.6,37.4c0.1,0.2,0.3,0.4,0.4,0.6c0,0-0.3,0.3-0.3,0.2c-0.2-0.1-0.3-0.3-0.4-0.5c0-0.1,0.1-0.3,0.2-0.4
							C36.5,37.4,36.6,37.4,36.6,37.4z"/>
						<path class="st4" d="M41.8,38.4c-0.2-0.3-0.3-0.4-0.3-0.5c0.1-0.2,0.3-0.3,0.5-0.5c0.1,0.1,0.3,0.3,0.3,0.3
							C42.1,38,42,38.1,41.8,38.4z"/>
						<path class="st4" d="M42.3,40.2c-0.3,0.2-0.4,0.4-0.6,0.4c-0.1,0-0.2-0.2-0.3-0.3c0.2-0.2,0.3-0.3,0.5-0.5
							C41.9,39.8,42.1,40,42.3,40.2z"/>
						<path class="st4" d="M41.4,42.6c-0.2-0.3-0.4-0.4-0.4-0.5c0.1-0.2,0.3-0.3,0.4-0.3c0.1,0,0.3,0.2,0.3,0.3
							C41.7,42.2,41.6,42.4,41.4,42.6z"/>
						<path class="st4" d="M37.6,42.1c-0.3,0.2-0.4,0.3-0.6,0.3c-0.1,0-0.2-0.2-0.3-0.3c0.1-0.1,0.3-0.3,0.4-0.3
							C37.2,41.8,37.4,41.9,37.6,42.1z"/>
					</g>
				</g>
				<g>
					<path class="st5" d="M60.7,45.6c0.3,0.7,0.7,1.3,1.3,1.8s1.2,0.9,1.9,1.3c-0.2,0.2-0.4,0.6-0.7,0.8c-0.6,0.5-0.7,1.1-0.7,1.8
						c-0.2,3.6-0.4,7.2-0.6,10.7c-0.1,1.1-0.1,2.3-0.1,3.4c0,1-0.3,1.7-1.1,2.2S59,68.5,58,68.5c-0.8-0.1-1.2-0.4-1.2-1.2
						c0-1.9,0.1-3.9,0.2-5.8c0.1-2.7,0.1-5.4,0.3-8.1c0-1.2,0.2-2.3,0.3-3.5c0.1-0.7,0.2-1.4,0.4-2.2c0.1-0.3,0.3-0.6,0.3-0.9
						c0.1-0.2,0-0.4,0-0.6c-0.1,0-0.1,0-0.2,0c-0.3,1-0.6,2.1-0.9,3.1c-0.1,0-0.1,0-0.2,0c-0.1-0.2-0.1-0.3-0.2-0.5
						c-0.4-1.5-1.4-2.5-2.9-3.1c-0.2-0.1-0.5-0.1-0.8,0c-0.4,0-0.5-0.1-0.7-0.5c-0.3-0.9,0-1.8,0.3-2.6c0.1-0.2,0.2-0.4,0.3-0.6
						l-0.1-0.1c-0.2,0.3-0.5,0.5-0.6,0.9c-0.2,0.7-0.3,1.4-0.4,2.1c0,0.3,0.1,0.7,0.2,1c0.1,0.4,0,0.6-0.4,0.6
						c-0.5,0-1.1,0.1-1.6-0.3c-0.1-0.1-0.2-0.1-0.5-0.1c0.1,0.5,0.4,0.8,0.8,0.8c0.5,0.1,0.7,0.4,0.7,0.9c0,1.2-0.1,2.4-1.1,3.3
						c-0.2,0.2-0.4,0.5-0.5,0.8c-0.4,1-0.9,1.3-2,1.3c-0.8,0-1.4-0.3-1.9-0.9c-0.6-0.7-1.3-1.2-2.2-1.6c-0.6-0.3-1.1-0.9-1.5-1.4
						c-0.5-0.6-1-1.1-1.8-1.3c-0.4-0.1-0.4-0.4-0.4-0.8c0-1,0-2,0-3c0-0.1,0.1-0.3,0.2-0.4c0.2-0.1,0.5-0.3,0.7-0.3
						c0.6,0,1.2,0,1.7,0.1c1.5,0,3,0,4.3-0.7c1-0.5,1.7-1.3,2-2.4c0.2-0.8-0.5-1.8-1.3-2c-0.2,0-0.5,0-0.7-0.1
						c-0.1,0-0.4-0.1-0.4-0.2c0-0.1,0-0.3,0.1-0.4c0.4-0.7,1-1.4,1.3-2.1c0.4-0.9,0.2-1.5-0.6-2.2c-0.3-0.3-0.7-0.6-1-1
						c-0.8-1.2-0.4-2.5,1-3.3c1.7-1.1,3.7-1.6,5.7-1.9c1-0.1,2.1-0.2,3.1-0.2c1.9,0.1,3.1,1.9,2.7,3.8c-0.2,0.8-0.6,1.5-1.1,2.2
						c-0.4,0.5-0.8,1-1.1,1.5c-0.4,0.7-0.6,1.4-0.9,2.1c-0.2,0.4-0.3,0.8-0.5,1.1S54.4,38.2,54,38s-0.3-0.5-0.2-0.9
						c0.1-0.2,0.1-0.8,0-0.8c-0.4-0.1-0.4,0.3-0.5,0.5c-0.2,0.4-0.4,0.7-0.2,1.2c0.3,0.5,0.6,0.8,1.2,0.5c0,0.4,0.1,0.8,0.1,1.1
						c-0.1,0-0.1,0.1-0.2,0c-1-0.4-1.9,0-2.7,0.5s-1.4,1.3-1.7,2.2c-0.2,0.6-0.3,1.1-0.3,1.7c-0.1,0.9,0.4,1.5,1.1,2
						c0.2,0.1,0.5,0.2,0.8,0.2c0.1,0,0.2-0.2,0.3-0.3c-0.1-0.1-0.2-0.3-0.3-0.3c-1.2-0.4-1.5-1-1.3-2.2c0.2-1.3,0.9-2.2,2.1-2.8
						c0.9-0.4,1.7-0.2,2.5,0.3c0.4,0.2,0.7,0.6,1,0.9c0.5,0.7,1.1,1.2,1.9,1.5c0.4,0.2,0.7,0.3,1.1,0.4c0.6,0.2,1.2-0.1,1.4-0.7
						v-0.1c0.4-1.3,1.5-1.5,2.5-0.6c1.3,1.1,1.9,2.6,2.1,4.2c0.1,0.5,0.1,1.1-0.5,1.2c-0.4,0.1-1,0-1.3-0.3
						c-0.6-0.5-1.1-1.1-1.7-1.6c-0.1-0.1-0.2-0.3-0.4-0.4C60.8,45.5,60.8,45.6,60.7,45.6z M44.8,44.8c-0.2,0.3-0.3,0.5-0.5,0.7
						c-0.6,0.8-0.7,1.6-0.3,2.4c0.5,1,1.5,1.5,2.4,2.1c0.1,0.1,0.4,0,0.5-0.1c0.5-1,1.4-1.9,0.7-3.3c-0.4-0.7-0.1-1.2,0.7-1.5
						c0.1,0,0.1-0.1,0.2-0.1c-0.5-0.9-5-0.6-5.9,0v0.1C43.3,45,43.9,44.9,44.8,44.8z"/>
					<path class="st5" d="M28.6,46.2c-0.1,0.1-0.3,0.2-0.4,0.2c-0.5,0.1-1,0.2-1.5,0.1c-0.2,0-0.5-0.2-0.1-0.5
						c1.3,0.4,2.5-0.4,2.6-1.8c0.1-2.1-1.3-4.1-3.2-4.5c-0.4-0.1-0.9,0-1.4,0.1c-0.1,0-0.2,0-0.3,0c0-0.4,0.1-0.8,0.1-1.1
						c0.3-0.1,0.7-0.2,1-0.4c0.2-0.1,0.3-0.4,0.4-0.7s-0.5-1.2-0.9-1.2c0.1,0.3,0.1,0.5,0.2,0.8c0.2,0.4,0.1,0.6-0.2,0.8
						c-0.4,0.2-0.7,0.1-0.9-0.2c-0.2-0.2-0.4-0.6-0.4-0.8c-0.2-1.5-1.1-2.6-2-3.7c-0.7-0.8-1.1-1.7-1.3-2.7c-0.3-1.5,0.8-3,2.4-3.3
						c1.1-0.2,2.2-0.1,3.3,0.1c1.3,0.2,2.6,0.5,3.9,0.9c1,0.4,1.9,0.9,2.7,1.6c1,0.8,0.9,1.8,0.1,2.8c-0.3,0.4-0.6,0.6-1,1
						c-1,1-0.9,1.3-0.3,2.5c0.3,0.6,0.7,1.1,1.1,1.6c0.1,0.1,0.1,0.3,0.2,0.5c-0.2,0-0.4,0.1-0.5,0.1c-0.7,0-1.3,0.3-1.7,0.9
						c-0.6,0.9-0.2,1.6,0.3,2.3c0.9,1.3,2.1,1.8,3.6,2c0.3,0,0.7,0.1,1,0.1c0.9,0,1.8,0,2.7-0.1c0.6,0,1.1,0.3,1.1,0.9
						c0,1,0,1.9,0,2.9c0,0.2-0.2,0.6-0.4,0.7c-0.9,0.2-1.5,0.9-2,1.5c-0.6,0.7-1.2,1.3-2.1,1.6c-0.5,0.2-0.9,0.6-1.2,1
						c-0.8,0.9-1.7,1.3-2.9,1.1c-0.6-0.1-0.9-0.4-1.2-0.9c-0.2-0.5-0.5-0.9-0.8-1.3c-0.9-1-1-2.3-1-3.5c0-0.3,0.2-0.4,0.5-0.4
						c0.4,0,0.7-0.3,0.8-0.6C28.6,46.3,28.6,46.3,28.6,46.2z M36.3,45c-1-1-5.7-1-6.3-0.1c0.2,0.1,0.3,0.2,0.4,0.2
						c0.4,0.1,0.6,0.4,0.6,0.7c0,0.4-0.1,0.8-0.2,1.1c-0.1,0.5-0.2,1,0.2,1.5c0.2,0.3,0.3,0.6,0.4,0.9c0.2,0.6,0.5,0.7,1,0.4
						c1-0.5,1.8-1.2,2.3-2.2c0.2-0.4,0.3-0.8,0.1-1.2s-0.4-0.7-0.7-1.1C34,45.1,34,45,33.9,44.8C34.7,44.9,35.5,45,36.3,45z"/>
					<path class="st5" d="M26.5,45.9c0-0.2,0-0.4,0-0.5c0.4-0.9,0-1.8-0.4-2.6c-0.2-0.3-0.4-0.6-0.6-0.9c0-0.1-0.1-0.1-0.3-0.1
						c0.2,0.2,0.2,0.3,0.3,0.4c0.6,0.9,0.9,1.9,0.6,3.1c-0.1,0.4-0.4,0.7-0.8,0.6c-0.6-0.1-1.1,0.1-1.6,0.4c-1,0.6-1.7,1.5-2,2.7
						c-0.1,0.2-0.2,0.3-0.2,0.5c-0.1,0-0.1,0-0.2,0c-0.1-0.2-0.1-0.5-0.2-0.7c-0.2-0.6-0.4-1.3-0.6-1.9c0-0.1-0.1-0.2-0.3-0.3
						c0.1,0.4,0.1,0.7,0.2,1.1c0.1,0.3,0.2,0.6,0.2,0.9c0.2,1,0.4,2.1,0.5,3.1c0.1,1.3,0.2,2.6,0.2,3.9c0.1,3.3,0.1,6.5,0.2,9.8
						c0,0.7,0,1.4,0,2.1c0,0.8-0.3,1.1-1.2,1.2c-1.3,0-2.4-0.5-3.3-1.4c-0.5-0.5-0.4-1.1-0.4-1.7c-0.2-4.2-0.5-8.4-0.7-12.7
						c0-0.5-0.1-0.9-0.1-1.4c0.1-1-0.5-1.8-1.2-2.4c-0.1-0.1-0.2-0.3-0.4-0.4c0.5-0.2,1-0.4,1.4-0.6c0.4-0.3,0.7-0.6,1.1-1
						c0.3-0.3,0.7-0.7,0.6-1.3c-0.2,0.3-0.5,0.6-0.7,0.9c-0.6,0.6-1.2,1.1-2,1.3c-0.6,0.1-0.9-0.2-0.9-0.7c0-1.8,0.7-3.4,2.1-4.7
						c0.3-0.3,0.7-0.5,1.1-0.6c0.6-0.2,1.2,0.2,1.4,0.9c0.3,1,0.7,1.2,1.7,0.9c1.2-0.4,2.2-1,3-2.1c1.2-1.6,3.1-1.6,4.5-0.1
						c0.7,0.8,1,1.8,0.9,2.8C28.4,45.2,27.9,45.8,26.5,45.9z"/>
					<path class="st5" d="M41.1,43.1c-0.6-0.1-1.2,0-1.6,0.5c-0.1,0.1-0.4,0-0.6-0.1c-0.3-0.3-0.6-0.4-1-0.4c-0.6,0-1.3,0.1-1.9,0.1
						c-0.6,0.1-1.2-0.2-1.4-0.8c-0.3-0.8-0.6-1.6-0.8-2.4c-0.3-1.1-0.8-2-1.5-2.8c-0.5-0.6-0.9-1.2-1-1.9c-0.2-0.7,0.1-1.2,0.6-1.6
						c0.7-0.5,1.2-1.1,1.4-2c0-0.1,0.2-0.3,0.3-0.4s0.2-0.1,0.3-0.1c0.3-0.1,0.6-0.4,0.8-0.3c0.2,0,0.3,0.5,0.4,0.7
						c0.1,0.1,0.2,0.2,0.3,0.2s0.3-0.1,0.3-0.2c0.1-0.3,0.1-0.7,0.5-0.6c0.4,0,0.7,0.4,0.8,0.8c0,0.1,0.1,0.3,0.2,0.4
						c0.2,0.1,0.4,0.2,0.6,0.2c0.9-0.2,1.8-0.2,2.6,0c0.4,0.1,0.6-0.1,0.7-0.4c0.1-0.3,0.3-0.6,0.5-0.8c0.3-0.3,0.6-0.2,0.8,0.2
						c0.1,0.2,0.3,0.4,0.4,0.5c0.2-0.2,0.4-0.4,0.4-0.6c0.2-0.4,0.4-0.5,0.8-0.3c0.6,0.3,1,0.6,1.2,1.3c0.2,0.5,0.7,1,1.1,1.4
						c0.8,0.7,1,1.7,0.4,2.6c-0.4,0.6-0.8,1.2-1.2,1.7c-0.7,0.8-0.8,1.9-1.2,2.8c-0.2,0.6-0.4,1.2-0.6,1.7c-0.3,0.7-0.6,0.9-1.3,0.8
						C42.1,43.2,41.6,43.1,41.1,43.1z M41.5,32.9c-1.5,1-3,1-4.5,0.1c-0.2,0.7,0.7,1,2,1.1C40.4,34.2,41.5,33.7,41.5,32.9z
						 M36.3,34.9c-0.2,0.2-0.3,0.3-0.3,0.4c0.1,0.2,0.3,0.4,0.5,0.6c0,0,0.3-0.2,0.3-0.3C36.7,35.4,36.5,35.2,36.3,34.9z M42.7,35.4
						c-0.3-0.2-0.5-0.3-0.5-0.3c-0.2,0.1-0.3,0.3-0.5,0.5c0.1,0.1,0.3,0.3,0.3,0.3C42.2,35.7,42.3,35.6,42.7,35.4z M36.9,40.8
						c0.1-0.3,0.3-0.5,0.2-0.5c-0.1-0.2-0.3-0.3-0.5-0.5c-0.1,0.1-0.3,0.3-0.3,0.4C36.5,40.3,36.6,40.5,36.9,40.8z M36.6,37.4
						c-0.1,0-0.1,0-0.2,0c-0.1,0.1-0.2,0.3-0.2,0.4c0.1,0.2,0.2,0.3,0.4,0.5l0.3-0.2C36.9,37.8,36.8,37.6,36.6,37.4z M41.8,38.4
						c0.2-0.3,0.4-0.5,0.4-0.7c0-0.1-0.2-0.2-0.3-0.3c-0.2,0.2-0.3,0.3-0.5,0.5C41.4,38,41.6,38.2,41.8,38.4z M42.3,40.2
						c-0.2-0.2-0.4-0.3-0.5-0.3c-0.2,0.1-0.3,0.3-0.5,0.5c0.1,0.1,0.2,0.3,0.3,0.3C41.9,40.5,42,40.3,42.3,40.2z M41.4,42.6
						c0.2-0.3,0.4-0.4,0.4-0.6c0-0.1-0.2-0.3-0.3-0.3c-0.2,0-0.4,0.2-0.4,0.3C41,42.2,41.2,42.4,41.4,42.6z M37.6,42.1
						c-0.2-0.2-0.4-0.3-0.5-0.3c-0.2,0-0.3,0.2-0.4,0.3c0.1,0.1,0.2,0.3,0.3,0.3C37.2,42.4,37.3,42.3,37.6,42.1z"/>
					<path class="st5" d="M45.8,41.6c0.2-0.6,0.3-1,0.4-1.4c0.1-0.3,0.4-0.4,0.7-0.2s0.2,0.4,0.1,0.6c-0.2,0.3-0.4,0.5-0.6,0.8
						C46.2,41.5,46,41.5,45.8,41.6z"/>
					<path class="st5" d="M32.6,41.5c-0.2-0.1-0.3-0.2-0.5-0.3c-0.2-0.2-0.4-0.4-0.5-0.7c-0.1-0.2,0.1-0.4,0.1-0.6
						c0.2,0.1,0.5,0.1,0.5,0.2C32.4,40.5,32.5,40.9,32.6,41.5C32.6,41.5,32.6,41.5,32.6,41.5z"/>
					<path class="st5" d="M46,46.1c0.1,0.5,0.2,0.9,0.3,1.4c0,0.1-0.2,0.2-0.4,0.3c-0.2-0.3-0.5-0.6-0.6-0.9
						c-0.1-0.2,0.2-0.5,0.4-0.7C45.7,46.2,45.8,46.2,46,46.1z"/>
					<path class="st5" d="M32.4,46.1c0.5,0,0.7,0.3,0.8,0.6c0,0.2-0.1,0.5-0.2,0.7l-0.1,0.1c-0.2,0.1-0.4,0.2-0.6,0.3
						c0-0.2-0.1-0.5-0.1-0.7C32.2,46.8,32.3,46.5,32.4,46.1z"/>
				</g>
			</g>
		</g>
	</g>
</g>
</svg>
