<?xml version="1.0" encoding="utf-8"?>
<!-- Generator: Adobe Illustrator 21.0.0, SVG Export Plug-In . SVG Version: 6.00 Build 0)  -->
<svg version="1.1" id="Layer_1" xmlns="http://www.w3.org/2000/svg" xmlns:xlink="http://www.w3.org/1999/xlink" x="0px" y="0px"
	 viewBox="0 0 80 78" style="enable-background:new 0 0 80 78;" xml:space="preserve">
<style type="text/css">
	.st0{fill:none;stroke:#19A6D1;stroke-width:4.1629;stroke-miterlimit:10;}
	.st1{fill:none;stroke:#19A6D1;stroke-width:4.31;stroke-miterlimit:10;}
	.st2{clip-path:url(#SVGID_2_);}
	.st3{fill:#22024F;}
	.st4{fill:#FFFFFF;}
</style>
<g>
	<line class="st0" x1="16.5" y1="38.8" x2="4.3" y2="38.8"/>
	<line class="st0" x1="62.1" y1="38.8" x2="74.3" y2="38.8"/>
	<circle class="st1" cx="39.3" cy="38.8" r="35"/>
	<g>
		<defs>
			<circle id="SVGID_1_" cx="39.3" cy="38.8" r="30.6"/>
		</defs>
		<use xlink:href="#SVGID_1_"  style="overflow:visible;fill:#19A6D1;"/>
		<clipPath id="SVGID_2_">
			<use xlink:href="#SVGID_1_"  style="overflow:visible;"/>
		</clipPath>
		<g class="st2">
			<g>
				<g>
					<path class="st3" d="M23.6,24.6c2.4,0.1,4.5,0.6,6.5,1.3c0.9,0.3,1.7,0.7,2.5,1.3c0.4,0.3,0.7,0.7,1,1c0.2,0.1,0.4,0.2,0.6,0.2
						c0.3,0,0.7,0,1,0c0.4,0,0.8,0.1,1.2,0.1c0.6,0,1.1,0.2,1.5,0.7c0.3,0.4,0.7,0.5,1.2,0.5c0.7,0,1.1-0.1,1.6-0.6
						c0.4-0.5,1.1-0.6,1.8-0.6c0.3,0,0.5,0,0.8-0.1c0.3,0,0.7,0,1,0c0.2,0,0.4,0,0.5-0.1c1.2-1.4,2.7-2.2,4.4-2.7c2-0.6,3.9-1.1,6-1
						c1.5,0,2.8,0.6,3.8,1.6c1,1.1,1.2,2.4,1,3.7c-0.2,1.5-1,2.6-1.9,3.7c-0.6,0.8-1.2,1.6-1.4,2.6c-0.1,0.6-0.4,1.3-0.7,1.9
						c-0.2,0.5-0.1,0.9,0.2,1.2c0.6,0.6,1.1,1.4,1.9,1.7c0.3,0.1,0.5,0.1,0.6-0.1c1.2-1.9,3.2-1.8,4.5-0.8c1.1,0.8,1.8,1.9,2.3,3.2
						c0.3,0.8,0.5,1.6,0.6,2.4c0,1-0.2,1.9-0.8,2.6c-0.3,0.4-0.7,0.7-1,1.2c-0.2,0.3-0.4,0.7-0.4,1c-0.2,4.2-0.5,8.5-0.7,12.7
						c-0.1,1-0.1,2-0.3,2.9c-0.2,0.6-0.6,1.1-1.1,1.5c-1.2,1.1-2.7,1.6-4.3,1.4c-1.3-0.2-2.3-1.2-2.2-2.8c0.1-3.1,0.2-6.1,0.3-9.2
						c0.1-2.2,0.3-4.4,0.2-6.5c0-1.6-0.5-3-1.9-4c-0.2-0.1-0.6-0.2-0.7-0.1c-0.3,0.2-0.6,0.5-0.6,0.8c0,1.5-0.6,2.8-1.6,4
						c-0.1,0.2-0.3,0.4-0.3,0.6c-0.6,1.8-2.8,2.2-4.1,1.8c-1-0.3-1.8-0.9-2.5-1.6c-0.3-0.3-0.8-0.5-1.1-0.8
						c-0.6-0.4-1.2-0.9-1.7-1.4c-0.6-0.5-1-1.3-1.8-1.5c-0.2,0-0.4-0.1-0.6,0c-0.6,0.3-1.1,0.6-1.5,1.1c-0.7,0.9-1.5,1.6-2.5,2
						c-0.5,0.2-0.8,0.6-1.2,1C32.4,54,30,54.1,28.5,53c-0.4-0.3-0.6-0.9-0.9-1.3c-0.1-0.2-0.2-0.4-0.4-0.6c-1-1-1.3-2.3-1.4-3.7
						c0-0.5-0.3-0.8-0.7-0.9c-0.2-0.1-0.5,0.1-0.7,0.2c-0.8,0.5-1.1,1.4-1.5,2.3c-0.4,1-0.2,2-0.2,3c0.1,4,0.2,8.1,0.3,12.1
						c0,0.9,0,1.8,0,2.7c0.1,1.2-1,2.3-2.2,2.4c-2,0.1-3.8-0.6-5-2.2c-0.3-0.4-0.5-1-0.5-1.5c-0.2-3.3-0.3-6.5-0.5-9.8
						c-0.1-1.8-0.2-3.6-0.4-5.4c0-0.4-0.4-0.7-0.7-1c-0.8-0.8-1.4-1.8-1.4-2.9c0-0.8,0.1-1.6,0.3-2.3c0.4-1.4,1.1-2.6,2.2-3.5
						c1.1-0.9,2.4-1.4,3.8-0.5c0.4,0.2,0.6,0.6,0.9,1c0.2,0.3,0.4,0.4,0.7,0.2c1-0.3,1.5-1.2,2.1-2c0.2-0.3,0.2-0.9,0-1.3
						c-0.6-1.9-1.4-3.7-2.7-5.3c-1.1-1.3-1.5-2.9-1.1-4.6c0.5-1.9,2.2-3,3.9-3.2C22.9,24.6,23.4,24.6,23.6,24.6z M60.7,44.6
						c0,0,0.1-0.1,0.1-0.1c0.1,0.1,0.2,0.3,0.4,0.4c0.6,0.6,1.1,1.2,1.7,1.6c0.3,0.3,0.9,0.4,1.3,0.3c0.6-0.1,0.5-0.7,0.5-1.2
						c-0.2-1.6-0.8-3.1-2.1-4.2c-1-0.9-2.1-0.6-2.5,0.6c0,0,0,0.1,0,0.1c-0.2,0.6-0.8,0.9-1.4,0.7c-0.4-0.1-0.7-0.3-1.1-0.4
						c-0.8-0.3-1.4-0.8-1.9-1.5c-0.2-0.4-0.6-0.7-1-0.9c-0.8-0.5-1.6-0.7-2.5-0.3c-1.2,0.6-1.8,1.5-2.1,2.8
						c-0.2,1.2,0.1,1.9,1.3,2.2c0.1,0,0.2,0.2,0.3,0.3c-0.1,0.1-0.2,0.3-0.3,0.3c-0.3,0-0.6,0-0.8-0.2c-0.7-0.5-1.1-1.1-1.1-2
						c0-0.6,0.2-1.1,0.3-1.7c0.3-0.9,0.8-1.7,1.7-2.2c0.8-0.5,1.7-0.9,2.7-0.5c0,0,0.1,0,0.2,0c0-0.4-0.1-0.7-0.1-1.1
						c-0.6,0.2-0.9,0-1.2-0.5c-0.3-0.5-0.1-0.8,0.2-1.2c0.1-0.2,0.1-0.6,0.5-0.5c0.1,0,0.1,0.6,0,0.8c-0.2,0.4-0.2,0.7,0.2,0.9
						c0.4,0.2,0.7,0.1,0.9-0.2c0.2-0.3,0.4-0.7,0.5-1.1c0.3-0.7,0.6-1.4,0.9-2.1c0.3-0.6,0.7-1,1.1-1.5c0.5-0.7,0.9-1.4,1.1-2.2
						c0.4-1.9-0.8-3.7-2.7-3.8c-1-0.1-2.1,0-3.1,0.2c-2,0.3-3.9,0.8-5.7,1.9c-1.4,0.9-1.8,2.1-1,3.3c0.3,0.4,0.6,0.7,1,1
						c0.7,0.6,1,1.3,0.6,2.2c-0.4,0.8-0.9,1.4-1.3,2.1c-0.1,0.1-0.2,0.3-0.1,0.4c0,0.1,0.2,0.1,0.4,0.2c0.2,0,0.5,0,0.7,0.1
						c0.8,0.1,1.5,1.2,1.3,2c-0.3,1.1-1,1.9-2,2.4c-1.3,0.7-2.8,0.8-4.3,0.7c-0.6,0-1.2-0.1-1.7-0.1c-0.3,0-0.5,0.2-0.7,0.3
						c-0.1,0.1-0.2,0.3-0.2,0.4c0,1,0,2,0,3c0,0.3,0,0.7,0.4,0.8c0.8,0.2,1.3,0.7,1.8,1.3c0.5,0.5,0.9,1.1,1.5,1.4
						c0.8,0.4,1.6,0.9,2.2,1.6c0.5,0.6,1.1,0.8,1.9,0.9c1.1,0,1.6-0.3,2-1.3c0.1-0.3,0.3-0.6,0.5-0.8c1-0.9,1.1-2.1,1.1-3.3
						c0-0.5-0.1-0.8-0.7-0.9c-0.4-0.1-0.7-0.3-0.8-0.8c0.2,0,0.4,0,0.5,0.1c0.5,0.4,1.1,0.3,1.6,0.3c0.4,0,0.5-0.1,0.4-0.6
						c-0.1-0.3-0.3-0.7-0.2-1c0.1-0.7,0.2-1.4,0.4-2.1c0.1-0.3,0.4-0.6,0.6-0.9c0,0,0.1,0.1,0.1,0.1c-0.1,0.2-0.2,0.4-0.3,0.6
						c-0.3,0.8-0.6,1.7-0.3,2.6c0.1,0.3,0.3,0.5,0.7,0.5c0.3,0,0.6,0,0.8,0c1.4,0.6,2.4,1.5,2.9,3.1c0,0.2,0.1,0.3,0.2,0.5
						c0.1,0,0.1,0,0.2,0c0.3-1,0.6-2.1,0.9-3.1c0.1,0,0.1,0,0.2,0c0,0.2,0,0.4,0,0.6c-0.1,0.3-0.3,0.6-0.3,0.9
						c-0.2,0.7-0.3,1.4-0.4,2.2c-0.1,1.2-0.3,2.3-0.3,3.5c-0.1,2.7-0.2,5.4-0.3,8.1c-0.1,1.9-0.1,3.9-0.2,5.8c0,0.8,0.4,1.2,1.2,1.2
						c1,0.1,1.9-0.3,2.7-0.9c0.8-0.5,1.1-1.3,1.1-2.2c0-1.1,0-2.3,0.1-3.4c0.2-3.6,0.4-7.2,0.6-10.7c0-0.7,0.2-1.3,0.7-1.8
						c0.3-0.3,0.5-0.6,0.7-0.8c-0.6-0.5-1.3-0.9-1.9-1.3C61.5,46,61.1,45.3,60.7,44.6z M28.6,45.2c0,0,0.1,0.1,0.1,0.1
						c-0.2,0.3-0.4,0.6-0.8,0.6c-0.3,0-0.5,0.1-0.5,0.4c-0.1,1.3,0,2.5,1,3.5c0.3,0.4,0.6,0.8,0.8,1.3c0.2,0.5,0.6,0.8,1.2,0.9
						c1.2,0.2,2.1-0.2,2.9-1.1c0.3-0.4,0.7-0.8,1.2-1c0.9-0.4,1.5-0.9,2.1-1.6c0.6-0.6,1.1-1.3,2-1.5c0.2,0,0.4-0.4,0.4-0.7
						c0-1,0-1.9,0-2.9c0-0.7-0.4-1-1.1-0.9c-0.9,0.1-1.8,0.1-2.7,0.1c-0.3,0-0.7-0.1-1-0.1c-1.5-0.1-2.8-0.7-3.6-2
						c-0.5-0.7-0.8-1.4-0.3-2.3c0.4-0.6,0.9-0.9,1.7-0.9c0.2,0,0.4-0.1,0.5-0.1c-0.1-0.2-0.1-0.4-0.2-0.5c-0.4-0.5-0.8-1.1-1.1-1.6
						c-0.6-1.2-0.7-1.6,0.3-2.5c0.3-0.3,0.7-0.6,1-1c0.7-1,0.8-2-0.1-2.8c-0.8-0.7-1.7-1.3-2.7-1.6c-1.2-0.5-2.6-0.7-3.9-0.9
						c-1.1-0.2-2.2-0.3-3.3-0.1c-1.6,0.3-2.7,1.8-2.4,3.3c0.2,1,0.7,1.9,1.3,2.7c0.9,1.1,1.8,2.2,2,3.7c0,0.3,0.2,0.6,0.4,0.8
						c0.2,0.3,0.6,0.4,0.9,0.2c0.4-0.2,0.4-0.5,0.2-0.8c-0.1-0.2-0.1-0.5-0.2-0.8c0.4,0.1,1,0.9,0.9,1.2c-0.1,0.2-0.2,0.5-0.4,0.7
						c-0.3,0.2-0.6,0.2-1,0.4c0,0.3,0,0.7-0.1,1.1c0.1,0,0.2,0,0.3,0c0.5,0,1-0.2,1.4-0.1c2,0.4,3.3,2.3,3.2,4.5
						c-0.1,1.4-1.3,2.3-2.6,1.8c-0.3,0.3-0.1,0.5,0.1,0.5c0.5,0,1-0.1,1.5-0.1C28.3,45.4,28.4,45.3,28.6,45.2z M26.5,44.9
						c1.4-0.1,1.9-0.7,1.9-1.5c0.1-1-0.2-2-0.9-2.8c-1.4-1.5-3.3-1.5-4.5,0.1c-0.8,1.1-1.8,1.7-3,2.1c-1,0.3-1.4,0.1-1.7-0.9
						c-0.2-0.6-0.8-1.1-1.4-0.9c-0.4,0.1-0.8,0.3-1.1,0.6c-1.4,1.2-2,2.8-2.1,4.7c0,0.6,0.4,0.9,0.9,0.7c0.8-0.2,1.4-0.7,2-1.3
						c0.3-0.3,0.5-0.6,0.7-0.9c0,0.6-0.3,0.9-0.6,1.3c-0.3,0.3-0.7,0.7-1.1,1c-0.4,0.3-0.9,0.4-1.4,0.6c0.1,0.2,0.3,0.3,0.4,0.4
						c0.7,0.7,1.2,1.4,1.2,2.4c0,0.5,0.1,0.9,0.1,1.4c0.2,4.2,0.4,8.4,0.7,12.7c0,0.6-0.1,1.2,0.4,1.7c0.9,0.9,2,1.4,3.3,1.4
						c0.8,0,1.2-0.3,1.2-1.2c0-0.7,0-1.4,0-2.1c-0.1-3.3-0.1-6.5-0.2-9.8c0-1.3-0.1-2.6-0.2-3.9c-0.1-1-0.4-2.1-0.5-3.1
						c-0.1-0.3-0.1-0.6-0.2-0.9c-0.1-0.4-0.1-0.7-0.2-1.1c0.2,0.1,0.3,0.1,0.3,0.3c0.2,0.6,0.4,1.3,0.6,1.9c0.1,0.2,0.1,0.5,0.2,0.7
						c0.1,0,0.1,0,0.2,0c0.1-0.2,0.2-0.3,0.2-0.5c0.4-1.1,1-2,2-2.7c0.5-0.3,1-0.6,1.6-0.4c0.4,0.1,0.7-0.2,0.8-0.6
						c0.3-1.1,0-2.1-0.6-3.1c-0.1-0.1-0.1-0.2-0.3-0.4c0.2,0.1,0.3,0.1,0.3,0.1c0.2,0.3,0.5,0.6,0.6,0.9c0.4,0.8,0.8,1.6,0.4,2.6
						C26.5,44.5,26.5,44.7,26.5,44.9z M41.1,42.1c0.5,0.1,1,0.1,1.5,0.2c0.8,0.1,1.1-0.1,1.3-0.8c0.2-0.6,0.4-1.2,0.6-1.7
						c0.3-1,0.5-2,1.2-2.8c0.4-0.6,0.8-1.1,1.2-1.7c0.6-0.9,0.4-1.9-0.4-2.6c-0.4-0.4-0.9-0.8-1.1-1.4c-0.2-0.7-0.7-1-1.2-1.3
						c-0.4-0.2-0.6-0.1-0.8,0.3c-0.1,0.2-0.3,0.4-0.4,0.6c-0.1-0.2-0.3-0.3-0.4-0.5c-0.2-0.4-0.5-0.5-0.8-0.2
						c-0.2,0.2-0.3,0.5-0.5,0.8c-0.1,0.3-0.3,0.5-0.7,0.4c-0.9-0.2-1.8-0.2-2.6,0c-0.2,0-0.4-0.1-0.6-0.2c-0.1-0.1-0.1-0.2-0.2-0.4
						c-0.1-0.4-0.4-0.7-0.8-0.8c-0.4,0-0.4,0.4-0.5,0.6c0,0.1-0.2,0.2-0.3,0.2c-0.1,0-0.3-0.1-0.3-0.2c-0.2-0.2-0.3-0.6-0.4-0.7
						c-0.2,0-0.5,0.2-0.8,0.3c-0.1,0-0.2,0.1-0.3,0.1c-0.1,0.1-0.3,0.2-0.3,0.4c-0.2,0.8-0.8,1.5-1.4,2c-0.5,0.4-0.7,0.9-0.6,1.6
						c0.2,0.8,0.6,1.4,1,1.9c0.7,0.8,1.2,1.7,1.5,2.8c0.2,0.8,0.5,1.6,0.8,2.4c0.2,0.6,0.7,0.9,1.4,0.8c0.6-0.1,1.3-0.1,1.9-0.1
						c0.4,0,0.7,0.1,1,0.4c0.1,0.1,0.5,0.2,0.6,0.1C39.9,42.1,40.4,42,41.1,42.1z M45.8,40.6c0.2-0.1,0.4-0.1,0.5-0.2
						c0.2-0.2,0.4-0.5,0.6-0.8c0.2-0.2,0.2-0.5-0.1-0.6c-0.3-0.2-0.6-0.1-0.7,0.2C46,39.6,45.9,40,45.8,40.6z M32.6,40.5
						c0,0,0.1-0.1,0.1-0.1c-0.2-0.4-0.3-0.9-0.5-1.3C32.1,39,31.8,39,31.6,39c0,0.2-0.2,0.4-0.1,0.6c0.1,0.3,0.3,0.5,0.5,0.7
						C32.2,40.4,32.4,40.4,32.6,40.5z"/>
					<path class="st3" d="M44.8,43.8c-0.8,0.1-1.5,0.1-2.2,0.2c0,0,0-0.1,0-0.1c1-0.6,5.5-0.9,5.9,0c-0.1,0-0.1,0.1-0.2,0.1
						c-0.7,0.3-1,0.8-0.7,1.5c0.7,1.3-0.2,2.3-0.7,3.3c-0.1,0.1-0.4,0.2-0.5,0.1c-0.9-0.5-1.9-1.1-2.4-2.1c-0.4-0.8-0.4-1.6,0.3-2.4
						C44.4,44.3,44.6,44.1,44.8,43.8z M46,45.1c-0.2,0-0.3,0-0.3,0.1c-0.2,0.2-0.4,0.5-0.4,0.7c0.1,0.3,0.4,0.6,0.6,0.9
						c0.1-0.1,0.4-0.2,0.4-0.3C46.2,46.1,46.1,45.6,46,45.1z"/>
					<path class="st3" d="M36.3,44c-0.8,0-1.6-0.1-2.4-0.1c0.1,0.2,0.2,0.3,0.2,0.4c0.2,0.4,0.5,0.7,0.7,1.1
						c0.2,0.4,0.1,0.8-0.1,1.2c-0.5,1-1.3,1.7-2.3,2.2c-0.5,0.3-0.8,0.1-1-0.4c-0.1-0.3-0.2-0.7-0.4-0.9c-0.3-0.5-0.3-1-0.2-1.5
						c0.1-0.4,0.2-0.8,0.2-1.1c0-0.4-0.2-0.7-0.6-0.7c-0.1,0-0.3-0.1-0.4-0.2C30.6,43,35.2,43.1,36.3,44z M32.4,45.1
						c-0.1,0.4-0.2,0.7-0.2,1c0,0.2,0.1,0.5,0.1,0.7c0.2-0.1,0.4-0.2,0.6-0.3c0,0,0.1-0.1,0.1-0.1c0.1-0.2,0.2-0.5,0.2-0.7
						C33.1,45.4,32.9,45.1,32.4,45.1z"/>
				</g>
				<g>
					<path class="st3" d="M41.5,31.9c0,0.8-1.2,1.3-2.5,1.2c-1.3-0.1-2.2-0.5-2-1.1C38.5,32.8,40,32.9,41.5,31.9z"/>
					<path class="st3" d="M36.3,33.9c0.2,0.3,0.4,0.5,0.5,0.7c0,0-0.3,0.3-0.3,0.3c-0.2-0.2-0.4-0.4-0.5-0.6
						C36,34.2,36.1,34.1,36.3,33.9z"/>
					<path class="st3" d="M42.7,34.4c-0.3,0.2-0.5,0.4-0.7,0.4c-0.1,0-0.2-0.2-0.3-0.3c0.2-0.2,0.3-0.3,0.5-0.5
						C42.2,34,42.4,34.2,42.7,34.4z"/>
					<path class="st3" d="M36.9,39.8c-0.2-0.3-0.4-0.4-0.5-0.6c0-0.1,0.2-0.2,0.3-0.4c0.2,0.2,0.4,0.3,0.5,0.5
						C37.2,39.3,37,39.5,36.9,39.8z"/>
					<path class="st3" d="M36.6,36.4c0.1,0.2,0.3,0.4,0.4,0.6c0,0-0.3,0.3-0.3,0.2c-0.2-0.1-0.3-0.3-0.4-0.5c0-0.1,0.1-0.3,0.2-0.4
						C36.5,36.4,36.6,36.4,36.6,36.4z"/>
					<path class="st3" d="M41.8,37.4c-0.2-0.3-0.3-0.4-0.3-0.5c0.1-0.2,0.3-0.3,0.5-0.5c0.1,0.1,0.3,0.3,0.3,0.3
						C42.1,37,42,37.1,41.8,37.4z"/>
					<path class="st3" d="M42.3,39.2c-0.3,0.2-0.4,0.4-0.6,0.4c-0.1,0-0.2-0.2-0.3-0.3c0.2-0.2,0.3-0.3,0.5-0.5
						C41.9,38.8,42.1,39,42.3,39.2z"/>
					<path class="st3" d="M41.4,41.6c-0.2-0.3-0.4-0.4-0.4-0.5c0.1-0.2,0.3-0.3,0.4-0.3c0.1,0,0.3,0.2,0.3,0.3
						C41.7,41.2,41.6,41.4,41.4,41.6z"/>
					<path class="st3" d="M37.6,41.1c-0.3,0.2-0.4,0.3-0.6,0.3c-0.1,0-0.2-0.2-0.3-0.3c0.1-0.1,0.3-0.3,0.4-0.3
						C37.2,40.8,37.4,40.9,37.6,41.1z"/>
				</g>
			</g>
			<g>
				<path class="st4" d="M60.7,44.6c0.3,0.7,0.7,1.3,1.3,1.8c0.6,0.5,1.2,0.9,1.9,1.3c-0.2,0.2-0.4,0.6-0.7,0.8
					c-0.6,0.5-0.7,1.1-0.7,1.8c-0.2,3.6-0.4,7.2-0.6,10.7c-0.1,1.1-0.1,2.3-0.1,3.4c0,1-0.3,1.7-1.1,2.2c-0.8,0.5-1.7,0.9-2.7,0.9
					c-0.8-0.1-1.2-0.4-1.2-1.2c0-1.9,0.1-3.9,0.2-5.8c0.1-2.7,0.1-5.4,0.3-8.1c0-1.2,0.2-2.3,0.3-3.5c0.1-0.7,0.2-1.4,0.4-2.2
					c0.1-0.3,0.3-0.6,0.3-0.9c0.1-0.2,0-0.4,0-0.6c-0.1,0-0.1,0-0.2,0c-0.3,1-0.6,2.1-0.9,3.1c-0.1,0-0.1,0-0.2,0
					c-0.1-0.2-0.1-0.3-0.2-0.5c-0.4-1.5-1.4-2.5-2.9-3.1c-0.2-0.1-0.5-0.1-0.8,0c-0.4,0-0.5-0.1-0.7-0.5c-0.3-0.9,0-1.8,0.3-2.6
					c0.1-0.2,0.2-0.4,0.3-0.6c0,0-0.1-0.1-0.1-0.1c-0.2,0.3-0.5,0.5-0.6,0.9c-0.2,0.7-0.3,1.4-0.4,2.1c0,0.3,0.1,0.7,0.2,1
					c0.1,0.4,0,0.6-0.4,0.6c-0.5,0-1.1,0.1-1.6-0.3c-0.1-0.1-0.2-0.1-0.5-0.1c0.1,0.5,0.4,0.8,0.8,0.8c0.5,0.1,0.7,0.4,0.7,0.9
					c0,1.2-0.1,2.4-1.1,3.3c-0.2,0.2-0.4,0.5-0.5,0.8c-0.4,1-0.9,1.3-2,1.3c-0.8,0-1.4-0.3-1.9-0.9c-0.6-0.7-1.3-1.2-2.2-1.6
					c-0.6-0.3-1.1-0.9-1.5-1.4c-0.5-0.6-1-1.1-1.8-1.3c-0.4-0.1-0.4-0.4-0.4-0.8c0-1,0-2,0-3c0-0.1,0.1-0.3,0.2-0.4
					c0.2-0.1,0.5-0.3,0.7-0.3c0.6,0,1.2,0,1.7,0.1c1.5,0,3,0,4.3-0.7c1-0.5,1.7-1.3,2-2.4c0.2-0.8-0.5-1.8-1.3-2
					c-0.2,0-0.5,0-0.7-0.1c-0.1,0-0.4-0.1-0.4-0.2c0-0.1,0-0.3,0.1-0.4c0.4-0.7,1-1.4,1.3-2.1c0.4-0.9,0.2-1.5-0.6-2.2
					c-0.3-0.3-0.7-0.6-1-1c-0.8-1.2-0.4-2.5,1-3.3c1.7-1.1,3.7-1.6,5.7-1.9c1-0.1,2.1-0.2,3.1-0.2c1.9,0.1,3.1,1.9,2.7,3.8
					c-0.2,0.8-0.6,1.5-1.1,2.2c-0.4,0.5-0.8,1-1.1,1.5c-0.4,0.7-0.6,1.4-0.9,2.1c-0.2,0.4-0.3,0.8-0.5,1.1c-0.2,0.3-0.5,0.4-0.9,0.2
					c-0.4-0.2-0.3-0.5-0.2-0.9c0.1-0.2,0.1-0.8,0-0.8c-0.4-0.1-0.4,0.3-0.5,0.5c-0.2,0.4-0.4,0.7-0.2,1.2c0.3,0.5,0.6,0.8,1.2,0.5
					c0,0.4,0.1,0.8,0.1,1.1c-0.1,0-0.1,0.1-0.2,0c-1-0.4-1.9,0-2.7,0.5c-0.8,0.5-1.4,1.3-1.7,2.2c-0.2,0.6-0.3,1.1-0.3,1.7
					c-0.1,0.9,0.4,1.5,1.1,2c0.2,0.1,0.5,0.2,0.8,0.2c0.1,0,0.2-0.2,0.3-0.3c-0.1-0.1-0.2-0.3-0.3-0.3c-1.2-0.4-1.5-1-1.3-2.2
					c0.2-1.3,0.9-2.2,2.1-2.8c0.9-0.4,1.7-0.2,2.5,0.3c0.4,0.2,0.7,0.6,1,0.9c0.5,0.7,1.1,1.2,1.9,1.5c0.4,0.2,0.7,0.3,1.1,0.4
					c0.6,0.2,1.2-0.1,1.4-0.7c0,0,0-0.1,0-0.1c0.4-1.3,1.5-1.5,2.5-0.6c1.3,1.1,1.9,2.6,2.1,4.2c0.1,0.5,0.1,1.1-0.5,1.2
					c-0.4,0.1-1,0-1.3-0.3c-0.6-0.5-1.1-1.1-1.7-1.6c-0.1-0.1-0.2-0.3-0.4-0.4C60.8,44.5,60.8,44.6,60.7,44.6z M44.8,43.8
					c-0.2,0.3-0.3,0.5-0.5,0.7c-0.6,0.8-0.7,1.6-0.3,2.4c0.5,1,1.5,1.5,2.4,2.1c0.1,0.1,0.4,0,0.5-0.1c0.5-1,1.4-1.9,0.7-3.3
					c-0.4-0.7-0.1-1.2,0.7-1.5c0.1,0,0.1-0.1,0.2-0.1c-0.5-0.9-5-0.6-5.9,0c0,0,0,0.1,0,0.1C43.3,44,43.9,43.9,44.8,43.8z"/>
				<path class="st4" d="M28.6,45.2c-0.1,0.1-0.3,0.2-0.4,0.2c-0.5,0.1-1,0.2-1.5,0.1c-0.2,0-0.5-0.2-0.1-0.5
					c1.3,0.4,2.5-0.4,2.6-1.8c0.1-2.1-1.3-4.1-3.2-4.5c-0.4-0.1-0.9,0-1.4,0.1c-0.1,0-0.2,0-0.3,0c0-0.4,0.1-0.8,0.1-1.1
					c0.3-0.1,0.7-0.2,1-0.4c0.2-0.1,0.3-0.4,0.4-0.7c0.1-0.3-0.5-1.2-0.9-1.2c0.1,0.3,0.1,0.5,0.2,0.8c0.2,0.4,0.1,0.6-0.2,0.8
					c-0.4,0.2-0.7,0.1-0.9-0.2c-0.2-0.2-0.4-0.6-0.4-0.8c-0.2-1.5-1.1-2.6-2-3.7c-0.7-0.8-1.1-1.7-1.3-2.7c-0.3-1.5,0.8-3,2.4-3.3
					c1.1-0.2,2.2-0.1,3.3,0.1c1.3,0.2,2.6,0.5,3.9,0.9c1,0.4,1.9,0.9,2.7,1.6c1,0.8,0.9,1.8,0.1,2.8c-0.3,0.4-0.6,0.6-1,1
					c-1,1-0.9,1.3-0.3,2.5c0.3,0.6,0.7,1.1,1.1,1.6c0.1,0.1,0.1,0.3,0.2,0.5c-0.2,0-0.4,0.1-0.5,0.1c-0.7,0-1.3,0.3-1.7,0.9
					c-0.6,0.9-0.2,1.6,0.3,2.3c0.9,1.3,2.1,1.8,3.6,2c0.3,0,0.7,0.1,1,0.1c0.9,0,1.8,0,2.7-0.1c0.6,0,1.1,0.3,1.1,0.9
					c0,1,0,1.9,0,2.9c0,0.2-0.2,0.6-0.4,0.7c-0.9,0.2-1.5,0.9-2,1.5c-0.6,0.7-1.2,1.3-2.1,1.6c-0.5,0.2-0.9,0.6-1.2,1
					c-0.8,0.9-1.7,1.3-2.9,1.1c-0.6-0.1-0.9-0.4-1.2-0.9c-0.2-0.5-0.5-0.9-0.8-1.3c-0.9-1-1-2.3-1-3.5c0-0.3,0.2-0.4,0.5-0.4
					c0.4,0,0.7-0.3,0.8-0.6C28.6,45.3,28.6,45.3,28.6,45.2z M36.3,44c-1-1-5.7-1-6.3-0.1c0.2,0.1,0.3,0.2,0.4,0.2
					c0.4,0.1,0.6,0.4,0.6,0.7c0,0.4-0.1,0.8-0.2,1.1c-0.1,0.5-0.2,1,0.2,1.5c0.2,0.3,0.3,0.6,0.4,0.9c0.2,0.6,0.5,0.7,1,0.4
					c1-0.5,1.8-1.2,2.3-2.2c0.2-0.4,0.3-0.8,0.1-1.2c-0.2-0.4-0.4-0.7-0.7-1.1c-0.1-0.1-0.1-0.2-0.2-0.4C34.7,43.9,35.5,44,36.3,44z
					"/>
				<path class="st4" d="M26.5,44.9c0-0.2,0-0.4,0-0.5c0.4-0.9,0-1.8-0.4-2.6c-0.2-0.3-0.4-0.6-0.6-0.9c0-0.1-0.1-0.1-0.3-0.1
					c0.2,0.2,0.2,0.3,0.3,0.4c0.6,0.9,0.9,1.9,0.6,3.1c-0.1,0.4-0.4,0.7-0.8,0.6c-0.6-0.1-1.1,0.1-1.6,0.4c-1,0.6-1.7,1.5-2,2.7
					c-0.1,0.2-0.2,0.3-0.2,0.5c-0.1,0-0.1,0-0.2,0c-0.1-0.2-0.1-0.5-0.2-0.7c-0.2-0.6-0.4-1.3-0.6-1.9c0-0.1-0.1-0.2-0.3-0.3
					c0.1,0.4,0.1,0.7,0.2,1.1c0.1,0.3,0.2,0.6,0.2,0.9c0.2,1,0.4,2.1,0.5,3.1c0.1,1.3,0.2,2.6,0.2,3.9c0.1,3.3,0.1,6.5,0.2,9.8
					c0,0.7,0,1.4,0,2.1c0,0.8-0.3,1.1-1.2,1.2c-1.3,0-2.4-0.5-3.3-1.4c-0.5-0.5-0.4-1.1-0.4-1.7c-0.2-4.2-0.5-8.4-0.7-12.7
					c0-0.5-0.1-0.9-0.1-1.4c0.1-1-0.5-1.8-1.2-2.4c-0.1-0.1-0.2-0.3-0.4-0.4c0.5-0.2,1-0.4,1.4-0.6c0.4-0.3,0.7-0.6,1.1-1
					c0.3-0.3,0.7-0.7,0.6-1.3c-0.2,0.3-0.5,0.6-0.7,0.9c-0.6,0.6-1.2,1.1-2,1.3c-0.6,0.1-0.9-0.2-0.9-0.7c0-1.8,0.7-3.4,2.1-4.7
					c0.3-0.3,0.7-0.5,1.1-0.6c0.6-0.2,1.2,0.2,1.4,0.9c0.3,1,0.7,1.2,1.7,0.9c1.2-0.4,2.2-1,3-2.1c1.2-1.6,3.1-1.6,4.5-0.1
					c0.7,0.8,1,1.8,0.9,2.8C28.4,44.2,27.9,44.8,26.5,44.9z"/>
				<path class="st4" d="M41.1,42.1c-0.6-0.1-1.2,0-1.6,0.5c-0.1,0.1-0.4,0-0.6-0.1c-0.3-0.3-0.6-0.4-1-0.4c-0.6,0-1.3,0.1-1.9,0.1
					c-0.6,0.1-1.2-0.2-1.4-0.8c-0.3-0.8-0.6-1.6-0.8-2.4c-0.3-1.1-0.8-2-1.5-2.8c-0.5-0.6-0.9-1.2-1-1.9c-0.2-0.7,0.1-1.2,0.6-1.6
					c0.7-0.5,1.2-1.1,1.4-2c0-0.1,0.2-0.3,0.3-0.4c0.1-0.1,0.2-0.1,0.3-0.1c0.3-0.1,0.6-0.4,0.8-0.3c0.2,0,0.3,0.5,0.4,0.7
					c0.1,0.1,0.2,0.2,0.3,0.2c0.1,0,0.3-0.1,0.3-0.2c0.1-0.3,0.1-0.7,0.5-0.6c0.4,0,0.7,0.4,0.8,0.8c0,0.1,0.1,0.3,0.2,0.4
					c0.2,0.1,0.4,0.2,0.6,0.2c0.9-0.2,1.8-0.2,2.6,0c0.4,0.1,0.6-0.1,0.7-0.4c0.1-0.3,0.3-0.6,0.5-0.8c0.3-0.3,0.6-0.2,0.8,0.2
					c0.1,0.2,0.3,0.4,0.4,0.5c0.2-0.2,0.4-0.4,0.4-0.6c0.2-0.4,0.4-0.5,0.8-0.3c0.6,0.3,1,0.6,1.2,1.3c0.2,0.5,0.7,1,1.1,1.4
					c0.8,0.7,1,1.7,0.4,2.6c-0.4,0.6-0.8,1.2-1.2,1.7c-0.7,0.8-0.8,1.9-1.2,2.8c-0.2,0.6-0.4,1.2-0.6,1.7c-0.3,0.7-0.6,0.9-1.3,0.8
					C42.1,42.2,41.6,42.1,41.1,42.1z M41.5,31.9c-1.5,1-3,1-4.5,0.1c-0.2,0.7,0.7,1,2,1.1C40.4,33.2,41.5,32.7,41.5,31.9z
					 M36.3,33.9c-0.2,0.2-0.3,0.3-0.3,0.4c0.1,0.2,0.3,0.4,0.5,0.6c0,0,0.3-0.2,0.3-0.3C36.7,34.4,36.5,34.2,36.3,33.9z M42.7,34.4
					c-0.3-0.2-0.5-0.3-0.5-0.3c-0.2,0.1-0.3,0.3-0.5,0.5c0.1,0.1,0.3,0.3,0.3,0.3C42.2,34.7,42.3,34.6,42.7,34.4z M36.9,39.8
					c0.1-0.3,0.3-0.5,0.2-0.5c-0.1-0.2-0.3-0.3-0.5-0.5c-0.1,0.1-0.3,0.3-0.3,0.4C36.5,39.3,36.6,39.5,36.9,39.8z M36.6,36.4
					c-0.1,0-0.1,0-0.2,0c-0.1,0.1-0.2,0.3-0.2,0.4c0.1,0.2,0.2,0.3,0.4,0.5c0,0,0.3-0.2,0.3-0.2C36.9,36.8,36.8,36.6,36.6,36.4z
					 M41.8,37.4c0.2-0.3,0.4-0.5,0.4-0.7c0-0.1-0.2-0.2-0.3-0.3c-0.2,0.2-0.3,0.3-0.5,0.5C41.4,37,41.6,37.2,41.8,37.4z M42.3,39.2
					c-0.2-0.2-0.4-0.3-0.5-0.3c-0.2,0.1-0.3,0.3-0.5,0.5c0.1,0.1,0.2,0.3,0.3,0.3C41.9,39.5,42,39.3,42.3,39.2z M41.4,41.6
					c0.2-0.3,0.4-0.4,0.4-0.6c0-0.1-0.2-0.3-0.3-0.3c-0.2,0-0.4,0.2-0.4,0.3C41,41.2,41.2,41.4,41.4,41.6z M37.6,41.1
					c-0.2-0.2-0.4-0.3-0.5-0.3c-0.2,0-0.3,0.2-0.4,0.3c0.1,0.1,0.2,0.3,0.3,0.3C37.2,41.4,37.3,41.3,37.6,41.1z"/>
				<path class="st4" d="M45.8,40.6c0.2-0.6,0.3-1,0.4-1.4c0.1-0.3,0.4-0.4,0.7-0.2c0.3,0.2,0.2,0.4,0.1,0.6
					c-0.2,0.3-0.4,0.5-0.6,0.8C46.2,40.5,46,40.5,45.8,40.6z"/>
				<path class="st4" d="M32.6,40.5c-0.2-0.1-0.3-0.2-0.5-0.3c-0.2-0.2-0.4-0.4-0.5-0.7c-0.1-0.2,0.1-0.4,0.1-0.6
					c0.2,0.1,0.5,0.1,0.5,0.2c0.2,0.4,0.3,0.8,0.5,1.3C32.6,40.5,32.6,40.5,32.6,40.5z"/>
				<path class="st4" d="M46,45.1c0.1,0.5,0.2,0.9,0.3,1.4c0,0.1-0.2,0.2-0.4,0.3c-0.2-0.3-0.5-0.6-0.6-0.9
					c-0.1-0.2,0.2-0.5,0.4-0.7C45.7,45.2,45.8,45.2,46,45.1z"/>
				<path class="st4" d="M32.4,45.1c0.5,0,0.7,0.3,0.8,0.6c0,0.2-0.1,0.5-0.2,0.7c0,0-0.1,0.1-0.1,0.1c-0.2,0.1-0.4,0.2-0.6,0.3
					c0-0.2-0.1-0.5-0.1-0.7C32.2,45.8,32.3,45.5,32.4,45.1z"/>
			</g>
		</g>
	</g>
</g>
</svg>
