<?xml version="1.0" encoding="utf-8"?>
<!-- Generator: Adobe Illustrator 21.0.0, SVG Export Plug-In . SVG Version: 6.00 Build 0)  -->
<svg version="1.1" id="Layer_1" xmlns="http://www.w3.org/2000/svg" xmlns:xlink="http://www.w3.org/1999/xlink" x="0px" y="0px"
	 viewBox="0 0 464 191.1" style="enable-background:new 0 0 464 191.1;" xml:space="preserve">
<style type="text/css">
	.st0{fill:#19A6D1;}
	.st1{clip-path:url(#XMLID_453_);}
	.st2{fill:#22024F;}
	.st3{fill:#FFFFFF;}
</style>
<g id="XMLID_148_">
	<g id="XMLID_203_">
		<rect id="XMLID_366_" x="68.4" y="92.4" class="st0" width="18.3" height="6.2"/>
	</g>
	<g id="XMLID_202_">
		<rect id="XMLID_365_" x="154.9" y="92.4" class="st0" width="18.3" height="6.2"/>
	</g>
	<g id="XMLID_201_">
		<path id="XMLID_362_" class="st0" d="M120.8,151.1c-30.7,0-55.6-24.9-55.6-55.6s24.9-55.6,55.6-55.6s55.6,24.9,55.6,55.6
			S151.4,151.1,120.8,151.1z M120.8,46.4c-27.1,0-49.1,22-49.1,49.1s22,49.1,49.1,49.1s49.1-22,49.1-49.1S147.9,46.4,120.8,46.4z"/>
	</g>
	<g id="XMLID_149_">
		<defs>
			<circle id="XMLID_341_" cx="120.8" cy="95.5" r="45.7"/>
		</defs>
		<use xlink:href="#XMLID_341_"  style="overflow:visible;fill:#19A6D1;"/>
		<clipPath id="XMLID_453_">
			<use xlink:href="#XMLID_341_"  style="overflow:visible;"/>
		</clipPath>
		<g id="XMLID_151_" class="st1">
			<g id="XMLID_175_">
				<g id="XMLID_186_">
					<g id="XMLID_193_">
						<path id="XMLID_361_" class="st2" d="M97.4,74.3c3.5,0.1,6.7,0.8,9.7,2c1.3,0.5,2.6,1.1,3.7,1.9c0.6,0.4,1,1,1.5,1.4
							c0.2,0.2,0.6,0.2,0.9,0.3c0.5,0.1,1,0,1.5,0.1c0.6,0,1.2,0.1,1.8,0.1c0.9-0.1,1.7,0.3,2.2,1c0.5,0.6,1,0.7,1.7,0.7
							c1,0.1,1.7-0.2,2.4-1c0.7-0.8,1.6-1,2.6-0.8c0.4,0.1,0.8-0.1,1.2-0.1c0.5,0,1,0,1.5,0c0.3,0,0.6,0,0.8-0.2
							c1.8-2.1,4.1-3.2,6.6-4c2.9-0.8,5.9-1.6,9-1.5c2.2,0,4.1,0.9,5.7,2.5c1.5,1.6,1.8,3.5,1.5,5.6c-0.3,2.2-1.5,3.9-2.9,5.5
							c-1,1.1-1.7,2.3-2,3.9c-0.2,1-0.6,1.9-1,2.8c-0.3,0.7-0.2,1.3,0.3,1.8c0.9,0.9,1.6,2.1,2.9,2.6c0.4,0.1,0.7,0.2,0.9-0.2
							c1.7-2.8,4.7-2.7,6.8-1.1c1.6,1.2,2.7,2.8,3.4,4.7c0.5,1.2,0.8,2.3,0.9,3.6c0.1,1.5-0.3,2.8-1.2,4c-0.5,0.6-1,1.1-1.4,1.7
							c-0.3,0.4-0.6,1-0.6,1.5c-0.4,6.3-0.7,12.7-1,19c-0.1,1.5-0.2,3-0.5,4.4c-0.2,0.9-0.9,1.7-1.6,2.3c-1.8,1.6-4.1,2.4-6.5,2.1
							c-1.9-0.2-3.4-1.8-3.3-4.2c0.1-4.6,0.3-9.2,0.4-13.8c0.1-3.3,0.4-6.5,0.3-9.8c0-2.3-0.7-4.5-2.8-5.9c-0.3-0.2-0.8-0.4-1-0.2
							c-0.4,0.3-0.9,0.8-0.9,1.2c0,2.3-0.9,4.2-2.4,5.9c-0.2,0.2-0.4,0.5-0.5,0.8c-0.9,2.7-4.2,3.3-6.2,2.7
							c-1.6-0.4-2.6-1.4-3.7-2.5c-0.5-0.5-1.1-0.7-1.7-1.1c-0.9-0.7-1.8-1.3-2.5-2.1c-0.9-0.8-1.5-1.9-2.7-2.2
							c-0.3-0.1-0.6-0.1-0.8,0c-0.8,0.4-1.6,0.8-2.2,1.6c-1,1.3-2.2,2.4-3.7,3c-0.7,0.3-1.2,1-1.8,1.5c-2.2,2.3-5.8,2.5-7.9,0.7
							c-0.6-0.5-0.9-1.3-1.4-2c-0.2-0.3-0.4-0.7-0.6-0.9c-1.4-1.6-2-3.5-2.1-5.5c0-0.7-0.5-1.1-1-1.3c-0.3-0.1-0.8,0.1-1.1,0.3
							c-1.2,0.8-1.7,2.1-2.2,3.4c-0.6,1.5-0.3,3-0.3,4.5c0.2,6,0.3,12.1,0.5,18.1c0,1.4,0,2.7,0,4.1c0.1,1.7-1.5,3.4-3.3,3.5
							c-3.1,0.2-5.6-0.9-7.5-3.4c-0.5-0.6-0.7-1.5-0.8-2.3c-0.3-4.9-0.4-9.8-0.7-14.6c-0.1-2.7-0.4-5.4-0.7-8.1
							c-0.1-0.5-0.6-1.1-1.1-1.5c-1.2-1.2-2-2.6-2.1-4.3c0-1.1,0.2-2.3,0.5-3.4c0.6-2.1,1.7-3.9,3.3-5.3c1.6-1.3,3.5-2.1,5.7-0.7
							c0.5,0.3,0.9,0.9,1.3,1.4c0.3,0.5,0.5,0.5,1.1,0.3c1.5-0.5,2.3-1.8,3.1-2.9c0.3-0.4,0.3-1.3,0.1-1.9c-0.9-2.8-2.1-5.5-4.1-7.9
							c-1.6-1.9-2.3-4.3-1.6-7c0.8-2.8,3.2-4.4,5.8-4.8C96.3,74.3,97,74.4,97.4,74.3z M152.9,104.2c0.1,0,0.1-0.1,0.2-0.1
							c0.2,0.2,0.3,0.4,0.5,0.6c0.8,0.8,1.6,1.7,2.6,2.4c0.5,0.4,1.4,0.6,2,0.4c0.8-0.2,0.8-1.1,0.7-1.8c-0.3-2.4-1.2-4.6-3.1-6.3
							c-1.5-1.3-3.1-0.9-3.8,1c0,0.1,0,0.1-0.1,0.2c-0.4,0.9-1.2,1.3-2.1,1c-0.5-0.2-1.1-0.4-1.6-0.6c-1.1-0.5-2.1-1.2-2.8-2.2
							c-0.4-0.5-0.9-1-1.4-1.4c-1.2-0.8-2.4-1.1-3.8-0.4c-1.8,0.9-2.7,2.3-3.1,4.2c-0.3,1.8,0.2,2.8,1.9,3.4
							c0.2,0.1,0.3,0.3,0.4,0.4c-0.2,0.1-0.3,0.4-0.5,0.4c-0.4,0-0.9-0.1-1.2-0.3c-1-0.7-1.7-1.7-1.6-3c0.1-0.9,0.2-1.7,0.5-2.5
							c0.4-1.4,1.3-2.5,2.5-3.3c1.2-0.7,2.5-1.3,4-0.7c0.1,0,0.1,0,0.3-0.1c-0.1-0.5-0.1-1.1-0.2-1.7c-0.9,0.4-1.4-0.1-1.8-0.8
							c-0.4-0.7-0.1-1.2,0.2-1.8c0.2-0.3,0.1-1,0.7-0.8c0.1,0,0.1,0.8,0,1.2c-0.2,0.6-0.3,1,0.3,1.3c0.6,0.3,1.1,0.1,1.4-0.3
							c0.3-0.5,0.5-1.1,0.8-1.7c0.5-1,0.8-2.1,1.4-3.1c0.5-0.8,1.1-1.5,1.7-2.3c0.8-1,1.4-2,1.7-3.3c0.6-2.8-1.2-5.5-4-5.6
							c-1.5-0.1-3.1,0-4.6,0.2c-3,0.4-5.9,1.2-8.5,2.8c-2.1,1.3-2.7,3.2-1.4,5c0.4,0.5,0.9,1,1.5,1.4c1.1,1,1.5,2,0.9,3.3
							c-0.5,1.1-1.3,2.1-2,3.2c-0.1,0.2-0.2,0.5-0.2,0.6c0,0.1,0.4,0.2,0.6,0.2c0.4,0.1,0.7,0.1,1.1,0.1c1.2,0.2,2.2,1.8,2,3
							c-0.4,1.7-1.5,2.9-3,3.6c-2,1-4.2,1.1-6.4,1.1c-0.9,0-1.7-0.1-2.6-0.1c-0.4,0-0.8,0.2-1.1,0.4c-0.1,0.1-0.2,0.4-0.2,0.6
							c0,1.5,0,2.9,0,4.4c0,0.5,0.1,1.1,0.7,1.2c1.2,0.2,2,1,2.8,1.9c0.7,0.8,1.4,1.7,2.3,2.2c1.2,0.6,2.3,1.4,3.3,2.4
							c0.8,0.9,1.7,1.3,2.9,1.3c1.6,0,2.3-0.4,3-1.9c0.2-0.4,0.4-0.9,0.7-1.2c1.5-1.3,1.7-3.1,1.7-4.9c0-0.7-0.2-1.2-1-1.3
							c-0.6-0.1-1.1-0.5-1.2-1.3c0.3,0.1,0.5,0.1,0.7,0.2c0.7,0.6,1.6,0.5,2.4,0.5c0.5,0,0.8-0.2,0.6-0.8c-0.2-0.5-0.4-1.1-0.4-1.6
							c0.1-1,0.3-2.1,0.6-3.1c0.1-0.5,0.6-0.9,0.9-1.3c0.1,0,0.1,0.1,0.2,0.1c-0.1,0.3-0.3,0.6-0.4,0.9c-0.4,1.3-1,2.5-0.5,3.9
							c0.2,0.5,0.4,0.7,1,0.7c0.4,0,0.9-0.1,1.2,0.1c2.2,0.8,3.7,2.3,4.3,4.6c0.1,0.3,0.2,0.5,0.3,0.8c0.1,0,0.2,0,0.3,0
							c0.5-1.5,0.9-3.1,1.4-4.6c0.1,0,0.2,0,0.3,0.1c0,0.3,0.1,0.6,0,0.9c-0.1,0.4-0.4,0.9-0.5,1.3c-0.2,1.1-0.5,2.1-0.6,3.2
							c-0.2,1.7-0.4,3.5-0.5,5.2c-0.2,4-0.3,8.1-0.4,12.1c-0.1,2.9-0.2,5.8-0.2,8.7c0,1.2,0.6,1.7,1.7,1.8c1.5,0.1,2.8-0.5,4-1.3
							c1.2-0.8,1.7-1.9,1.7-3.3c0-1.7,0-3.4,0.1-5.1c0.3-5.4,0.6-10.7,1-16.1c0.1-1,0.2-2,1.1-2.7c0.4-0.4,0.7-0.9,1-1.3
							c-1-0.7-1.9-1.3-2.8-2C154,106.3,153.3,105.3,152.9,104.2z M104.7,105.2c0,0.1,0.1,0.1,0.1,0.2c-0.2,0.5-0.6,0.9-1.3,1
							c-0.4,0-0.8,0.2-0.8,0.6c-0.1,1.9,0.1,3.8,1.4,5.3c0.5,0.6,0.9,1.3,1.2,1.9c0.4,0.8,0.9,1.2,1.8,1.4c1.8,0.3,3.2-0.3,4.3-1.6
							c0.5-0.6,1.1-1.1,1.8-1.4c1.3-0.5,2.2-1.4,3.1-2.4c0.8-1,1.6-2,3-2.3c0.3-0.1,0.6-0.6,0.6-1c0.1-1.4,0-2.9,0-4.3
							c0-1-0.6-1.4-1.6-1.4c-1.4,0.1-2.7,0.1-4.1,0.2c-0.5,0-1-0.1-1.5-0.2c-2.2-0.2-4.1-1-5.4-2.9c-0.7-1-1.2-2.1-0.4-3.4
							c0.6-0.9,1.4-1.4,2.5-1.4c0.3,0,0.5-0.1,0.8-0.2c-0.1-0.3-0.1-0.5-0.3-0.7c-0.5-0.8-1.2-1.6-1.6-2.4c-0.9-1.8-1-2.3,0.5-3.8
							c0.5-0.5,1-0.9,1.4-1.5c1.1-1.5,1.2-3-0.2-4.2c-1.2-1-2.6-1.9-4-2.4c-1.9-0.7-3.8-1-5.8-1.4c-1.6-0.3-3.3-0.4-4.9-0.1
							c-2.4,0.5-4,2.7-3.6,5c0.3,1.6,1,2.9,2,4.1c1.4,1.7,2.7,3.3,3,5.6c0.1,0.4,0.3,0.9,0.6,1.3c0.3,0.4,0.8,0.6,1.4,0.3
							c0.5-0.3,0.6-0.7,0.3-1.3C99,91.4,99,91,98.9,90.6c0.6,0.1,1.5,1.4,1.3,1.9c-0.1,0.4-0.3,0.8-0.6,1c-0.4,0.3-0.9,0.4-1.4,0.5
							c0,0.4-0.1,1-0.1,1.6c0.2,0,0.3,0,0.5,0c0.7,0,1.5-0.2,2.1-0.1c2.9,0.6,5,3.5,4.8,6.7c-0.1,2.1-1.9,3.4-3.8,2.8
							c-0.5,0.4-0.1,0.7,0.2,0.7c0.7,0,1.5-0.1,2.2-0.2C104.3,105.4,104.5,105.3,104.7,105.2z M101.7,104.7c2.1-0.1,2.8-1,2.9-2.3
							c0.1-1.6-0.3-3-1.4-4.2c-2-2.3-4.9-2.3-6.7,0.1c-1.2,1.6-2.7,2.5-4.4,3.1c-1.5,0.5-2.1,0.1-2.6-1.3c-0.3-1-1.2-1.6-2.2-1.3
							c-0.6,0.1-1.2,0.4-1.6,0.8c-2.1,1.8-3,4.2-3.1,7c0,0.8,0.6,1.3,1.4,1.1c1.2-0.3,2.2-1,3-1.9c0.4-0.4,0.7-0.9,1.1-1.3
							c0.1,0.8-0.4,1.4-0.9,1.9c-0.5,0.5-1,1.1-1.6,1.5c-0.6,0.4-1.3,0.6-2,1c0.2,0.2,0.4,0.5,0.6,0.6c1.1,1,1.9,2.1,1.8,3.6
							c0,0.7,0.1,1.4,0.1,2.1c0.3,6.3,0.7,12.6,1,18.9c0,0.9-0.1,1.8,0.6,2.5c1.3,1.4,2.9,2.1,4.9,2.1c1.2,0,1.8-0.5,1.8-1.7
							c0-1,0-2.1,0-3.1c-0.1-4.9-0.2-9.8-0.3-14.7c-0.1-2-0.1-3.9-0.4-5.8c-0.2-1.6-0.5-3.1-0.8-4.6c-0.1-0.5-0.2-0.9-0.3-1.4
							c-0.1-0.5-0.2-1.1-0.3-1.6c0.3,0.1,0.4,0.2,0.5,0.4c0.3,1,0.6,1.9,0.8,2.9c0.1,0.3,0.2,0.7,0.3,1c0.1,0,0.2,0,0.3,0
							c0.1-0.2,0.3-0.5,0.4-0.7c0.5-1.7,1.5-3,3-4c0.7-0.4,1.4-0.8,2.3-0.7c0.6,0.1,1-0.2,1.2-0.9c0.4-1.7-0.1-3.2-0.9-4.6
							c-0.1-0.2-0.2-0.3-0.4-0.7c0.3,0.1,0.5,0.1,0.5,0.2c0.3,0.4,0.7,0.9,1,1.4c0.6,1.2,1.2,2.4,0.6,3.8
							C101.6,104.2,101.7,104.4,101.7,104.7z M123.4,100.5c0.8,0.1,1.5,0.2,2.3,0.2c1.1,0.1,1.6-0.2,2-1.2c0.3-0.9,0.6-1.7,0.9-2.6
							c0.5-1.4,0.8-3,1.7-4.2c0.7-0.8,1.3-1.7,1.9-2.6c0.9-1.3,0.5-2.9-0.7-3.9c-0.7-0.6-1.4-1.3-1.7-2c-0.3-1-1-1.5-1.9-1.9
							c-0.6-0.3-0.9-0.2-1.1,0.5c-0.1,0.3-0.4,0.6-0.7,0.9c-0.2-0.3-0.5-0.5-0.6-0.8c-0.3-0.6-0.7-0.8-1.2-0.3
							c-0.3,0.3-0.5,0.8-0.7,1.2c-0.2,0.5-0.5,0.7-1.1,0.6c-1.3-0.3-2.6-0.3-3.9,0c-0.3,0.1-0.6-0.1-0.9-0.3
							c-0.1-0.1-0.2-0.4-0.2-0.6c-0.2-0.6-0.6-1.1-1.3-1.2c-0.6-0.1-0.6,0.5-0.8,1c-0.1,0.2-0.3,0.3-0.5,0.3c-0.2,0-0.4-0.1-0.5-0.3
							c-0.2-0.3-0.4-1-0.7-1c-0.4-0.1-0.8,0.3-1.2,0.5c-0.1,0.1-0.3,0.1-0.4,0.2c-0.2,0.2-0.4,0.3-0.5,0.5c-0.4,1.3-1.1,2.2-2.2,3
							c-0.8,0.6-1.1,1.4-0.9,2.4c0.2,1.1,0.8,2,1.5,2.9c1,1.3,1.8,2.6,2.2,4.2c0.3,1.2,0.8,2.4,1.2,3.6c0.3,0.9,1.1,1.3,2,1.2
							c0.9-0.1,1.9-0.1,2.8-0.2c0.6,0,1,0.1,1.5,0.5c0.2,0.2,0.7,0.3,0.8,0.1C121.7,100.5,122.5,100.4,123.4,100.5z M130.5,98.2
							c0.4-0.1,0.7-0.2,0.8-0.3c0.3-0.3,0.6-0.8,0.9-1.1c0.3-0.3,0.4-0.7-0.1-0.9c-0.4-0.2-0.9-0.1-1,0.3
							C130.9,96.8,130.7,97.4,130.5,98.2z M110.7,98.2c0.1-0.1,0.1-0.1,0.2-0.2c-0.2-0.6-0.4-1.3-0.7-1.9c-0.1-0.2-0.5-0.2-0.8-0.3
							c-0.1,0.3-0.2,0.7-0.1,0.9c0.2,0.4,0.5,0.7,0.8,1C110.2,97.9,110.5,98,110.7,98.2z"/>
					</g>
					<g id="XMLID_190_">
						<path id="XMLID_360_" class="st2" d="M129,103.1c-1.2,0.1-2.2,0.2-3.2,0.3c0-0.1,0-0.1,0-0.2c1.5-0.9,8.2-1.4,8.9,0
							c-0.1,0.1-0.2,0.2-0.3,0.2c-1.1,0.5-1.5,1.1-1,2.2c1,2-0.3,3.4-1.1,4.9c-0.1,0.2-0.6,0.3-0.7,0.2c-1.4-0.8-2.8-1.6-3.7-3.1
							c-0.7-1.2-0.5-2.4,0.4-3.6C128.5,103.8,128.7,103.5,129,103.1z M130.8,105c-0.2,0.1-0.4,0.1-0.4,0.1c-0.2,0.4-0.7,0.8-0.6,1.1
							c0.1,0.5,0.6,0.9,0.9,1.3c0.2-0.2,0.6-0.4,0.6-0.5C131.2,106.4,131,105.8,130.8,105z"/>
					</g>
					<g id="XMLID_187_">
						<path id="XMLID_359_" class="st2" d="M116.2,103.4c-1.2-0.1-2.4-0.1-3.7-0.2c0.1,0.2,0.2,0.4,0.3,0.6c0.3,0.5,0.7,1.1,1,1.6
							c0.3,0.6,0.2,1.2-0.1,1.8c-0.8,1.5-1.9,2.6-3.4,3.3c-0.8,0.4-1.2,0.2-1.5-0.7c-0.2-0.5-0.3-1-0.6-1.4
							c-0.5-0.7-0.5-1.5-0.2-2.3c0.2-0.6,0.3-1.1,0.3-1.7c0-0.6-0.2-1-0.9-1.1c-0.2,0-0.4-0.2-0.7-0.3
							C107.7,101.9,114.7,101.9,116.2,103.4z M110.5,105c-0.1,0.6-0.2,1.1-0.3,1.6c0,0.4,0.1,0.7,0.1,1.1c0.3-0.2,0.6-0.3,0.9-0.5
							c0.1,0,0.1-0.1,0.2-0.2c0.1-0.3,0.4-0.7,0.3-1C111.6,105.4,111.2,105,110.5,105z"/>
					</g>
				</g>
				<g id="XMLID_176_">
					<g id="XMLID_185_">
						<path id="XMLID_358_" class="st2" d="M124.1,85.2c-0.1,1.2-1.7,2-3.7,1.8c-2-0.2-3.3-0.7-3.1-1.7
							C119.6,86.6,121.8,86.7,124.1,85.2z"/>
					</g>
					<g id="XMLID_184_">
						<path id="XMLID_357_" class="st2" d="M116.3,88.2c0.3,0.4,0.6,0.7,0.8,1c0,0-0.4,0.4-0.5,0.4c-0.3-0.3-0.5-0.5-0.7-0.8
							C115.8,88.7,116.1,88.5,116.3,88.2z"/>
					</g>
					<g id="XMLID_183_">
						<path id="XMLID_356_" class="st2" d="M125.8,88.9c-0.5,0.3-0.7,0.6-1,0.7c-0.1,0-0.3-0.3-0.5-0.4c0.2-0.2,0.5-0.5,0.8-0.7
							C125.1,88.4,125.4,88.7,125.8,88.9z"/>
					</g>
					<g id="XMLID_182_">
						<path id="XMLID_355_" class="st2" d="M117.2,97c-0.4-0.4-0.6-0.6-0.8-0.9c0-0.1,0.3-0.4,0.4-0.5c0.2,0.2,0.5,0.4,0.7,0.7
							C117.6,96.3,117.4,96.6,117.2,97z"/>
					</g>
					<g id="XMLID_181_">
						<path id="XMLID_354_" class="st2" d="M116.8,92c0.2,0.3,0.4,0.6,0.6,0.9c0,0-0.4,0.4-0.5,0.4c-0.2-0.2-0.5-0.4-0.6-0.7
							c-0.1-0.1,0.2-0.4,0.2-0.6C116.6,92,116.7,92,116.8,92z"/>
					</g>
					<g id="XMLID_180_">
						<path id="XMLID_353_" class="st2" d="M124.5,93.5c-0.3-0.4-0.5-0.7-0.5-0.7c0.2-0.3,0.5-0.5,0.7-0.8c0.1,0.2,0.4,0.4,0.4,0.5
							C125,92.8,124.8,93.1,124.5,93.5z"/>
					</g>
					<g id="XMLID_179_">
						<path id="XMLID_352_" class="st2" d="M125.3,96.1c-0.4,0.3-0.7,0.5-1,0.6c-0.1,0-0.3-0.3-0.5-0.4c0.2-0.2,0.4-0.5,0.7-0.7
							C124.7,95.6,124.9,95.8,125.3,96.1z"/>
					</g>
					<g id="XMLID_178_">
						<path id="XMLID_351_" class="st2" d="M123.9,99.8c-0.3-0.4-0.6-0.7-0.5-0.8c0.1-0.2,0.4-0.5,0.6-0.5c0.1,0,0.5,0.3,0.5,0.5
							C124.4,99.2,124.2,99.4,123.9,99.8z"/>
					</g>
					<g id="XMLID_177_">
						<path id="XMLID_350_" class="st2" d="M118.2,99c-0.4,0.2-0.6,0.4-0.8,0.5c-0.1,0-0.3-0.3-0.4-0.5c0.2-0.2,0.4-0.4,0.6-0.5
							C117.7,98.5,117.9,98.8,118.2,99z"/>
					</g>
				</g>
			</g>
			<g id="XMLID_152_">
				<g id="XMLID_172_">
					<path id="XMLID_349_" class="st3" d="M152.9,104.2c0.5,1.1,1.1,2,2,2.7c0.9,0.7,1.8,1.3,2.8,2c-0.3,0.3-0.5,0.9-1,1.3
						c-0.9,0.7-1,1.7-1.1,2.7c-0.3,5.4-0.7,10.7-1,16.1c-0.1,1.7-0.1,3.4-0.1,5.1c0,1.4-0.5,2.6-1.7,3.3c-1.2,0.8-2.5,1.4-4,1.3
						c-1.2-0.1-1.8-0.6-1.7-1.8c0.1-2.9,0.1-5.8,0.2-8.7c0.1-4,0.2-8.1,0.4-12.1c0.1-1.7,0.3-3.5,0.5-5.2c0.1-1.1,0.3-2.2,0.6-3.2
						c0.1-0.5,0.4-0.9,0.5-1.3c0.1-0.3,0-0.6,0-0.9c-0.1,0-0.2,0-0.3-0.1c-0.5,1.5-0.9,3.1-1.4,4.6c-0.1,0-0.2,0-0.3,0
						c-0.1-0.3-0.2-0.5-0.3-0.8c-0.6-2.3-2.1-3.8-4.3-4.6c-0.4-0.1-0.8-0.1-1.2-0.1c-0.5,0-0.8-0.2-1-0.7c-0.5-1.4,0-2.6,0.5-3.9
						c0.1-0.3,0.3-0.6,0.4-0.9c-0.1,0-0.1-0.1-0.2-0.1c-0.3,0.4-0.8,0.8-0.9,1.3c-0.3,1-0.5,2-0.6,3.1c0,0.5,0.2,1.1,0.4,1.6
						c0.2,0.6-0.1,0.9-0.6,0.8c-0.8,0-1.7,0.1-2.4-0.5c-0.1-0.1-0.4-0.1-0.7-0.2c0.2,0.8,0.7,1.2,1.2,1.3c0.8,0.1,1,0.6,1,1.3
						c0,1.8-0.2,3.6-1.7,4.9c-0.3,0.3-0.6,0.8-0.7,1.2c-0.7,1.5-1.4,1.9-3,1.9c-1.2,0-2.1-0.4-2.9-1.3c-0.9-1-2-1.8-3.3-2.4
						c-0.9-0.5-1.6-1.4-2.3-2.2c-0.8-0.9-1.6-1.6-2.8-1.9c-0.6-0.1-0.7-0.7-0.7-1.2c0-1.5,0-2.9,0-4.4c0-0.2,0.1-0.5,0.2-0.6
						c0.3-0.2,0.7-0.4,1.1-0.4c0.9,0,1.7,0,2.6,0.1c2.2,0.1,4.4-0.1,6.4-1.1c1.5-0.8,2.6-2,3-3.6c0.3-1.2-0.7-2.8-2-3
						c-0.4-0.1-0.7-0.1-1.1-0.1c-0.2,0-0.5-0.1-0.6-0.2c0-0.2,0.1-0.5,0.2-0.6c0.7-1.1,1.5-2.1,2-3.2c0.6-1.3,0.2-2.3-0.9-3.3
						c-0.5-0.4-1.1-0.9-1.5-1.4c-1.3-1.8-0.6-3.7,1.4-5c2.6-1.6,5.5-2.4,8.5-2.8c1.5-0.2,3.1-0.3,4.6-0.2c2.9,0.2,4.6,2.9,4,5.6
						c-0.3,1.3-0.9,2.3-1.7,3.3c-0.6,0.7-1.3,1.5-1.7,2.3c-0.6,1-0.9,2.1-1.4,3.1c-0.2,0.6-0.4,1.2-0.8,1.7
						c-0.3,0.4-0.8,0.7-1.4,0.3c-0.6-0.3-0.5-0.8-0.3-1.3c0.2-0.4,0.1-1.2,0-1.2c-0.6-0.2-0.5,0.5-0.7,0.8c-0.3,0.6-0.6,1.1-0.2,1.8
						c0.4,0.7,0.9,1.1,1.8,0.8c0.1,0.6,0.1,1.2,0.2,1.7c-0.1,0-0.2,0.1-0.3,0.1c-1.5-0.6-2.8-0.1-4,0.7c-1.3,0.8-2.1,1.9-2.5,3.3
						c-0.2,0.8-0.4,1.7-0.5,2.5c-0.1,1.3,0.6,2.3,1.6,3c0.3,0.2,0.8,0.3,1.2,0.3c0.2,0,0.3-0.2,0.5-0.4c-0.1-0.2-0.3-0.4-0.4-0.4
						c-1.7-0.5-2.3-1.5-1.9-3.4c0.4-1.9,1.3-3.4,3.1-4.2c1.4-0.7,2.6-0.4,3.8,0.4c0.5,0.4,1.1,0.8,1.4,1.4c0.7,1,1.7,1.7,2.8,2.2
						c0.5,0.2,1.1,0.5,1.6,0.6c0.9,0.3,1.8-0.1,2.1-1c0-0.1,0-0.1,0.1-0.2c0.7-1.9,2.3-2.3,3.8-1c1.9,1.6,2.8,3.8,3.1,6.3
						c0.1,0.7,0.1,1.6-0.7,1.8c-0.6,0.1-1.5-0.1-2-0.4c-0.9-0.7-1.7-1.6-2.6-2.4c-0.2-0.2-0.4-0.4-0.5-0.6
						C153,104.2,152.9,104.2,152.9,104.2z M129,103.1c-0.3,0.4-0.5,0.7-0.7,1c-1,1.2-1.1,2.3-0.4,3.6c0.8,1.5,2.3,2.3,3.7,3.1
						c0.2,0.1,0.6-0.1,0.7-0.2c0.8-1.5,2.1-2.9,1.1-4.9c-0.5-1.1-0.1-1.7,1-2.2c0.1,0,0.2-0.1,0.3-0.2c-0.7-1.4-7.4-0.9-8.9,0
						c0,0.1,0,0.1,0,0.2C126.7,103.3,127.7,103.2,129,103.1z"/>
				</g>
				<g id="XMLID_169_">
					<path id="XMLID_348_" class="st3" d="M104.7,105.2c-0.2,0.1-0.4,0.2-0.6,0.3c-0.7,0.1-1.5,0.2-2.2,0.2c-0.3,0-0.7-0.3-0.2-0.7
						c1.9,0.7,3.8-0.6,3.8-2.8c0.1-3.2-1.9-6.1-4.8-6.7c-0.7-0.1-1.4,0-2.1,0.1c-0.1,0-0.3,0-0.5,0c0-0.6,0.1-1.2,0.1-1.6
						c0.5-0.2,1-0.3,1.4-0.5c0.3-0.2,0.5-0.6,0.6-1c0.1-0.5-0.8-1.7-1.3-1.9c0.1,0.4,0.1,0.8,0.3,1.1c0.3,0.6,0.2,1-0.3,1.3
						c-0.6,0.3-1,0.1-1.4-0.3c-0.3-0.4-0.6-0.8-0.6-1.3c-0.3-2.2-1.7-3.9-3-5.6c-1-1.2-1.7-2.5-2-4.1c-0.4-2.3,1.2-4.5,3.6-5
						c1.6-0.3,3.3-0.2,4.9,0.1c2,0.4,3.9,0.7,5.8,1.4c1.4,0.5,2.8,1.4,4,2.4c1.4,1.2,1.3,2.7,0.2,4.2c-0.4,0.5-1,1-1.4,1.5
						c-1.5,1.5-1.4,2-0.5,3.8c0.4,0.9,1.1,1.6,1.6,2.4c0.1,0.2,0.2,0.5,0.3,0.7c-0.3,0.1-0.5,0.2-0.8,0.2c-1.1,0-1.9,0.4-2.5,1.4
						c-0.8,1.3-0.3,2.4,0.4,3.4c1.3,1.9,3.2,2.7,5.4,2.9c0.5,0.1,1,0.2,1.5,0.2c1.4,0,2.7-0.1,4.1-0.2c1-0.1,1.6,0.4,1.6,1.4
						c0,1.4,0.1,2.9,0,4.3c0,0.4-0.4,0.9-0.6,1c-1.4,0.3-2.2,1.3-3,2.3c-0.9,1-1.8,1.9-3.1,2.4c-0.7,0.3-1.3,0.9-1.8,1.4
						c-1.2,1.3-2.6,1.9-4.3,1.6c-0.8-0.1-1.4-0.6-1.8-1.4c-0.3-0.7-0.7-1.4-1.2-1.9c-1.4-1.5-1.5-3.4-1.4-5.3c0-0.5,0.4-0.6,0.8-0.6
						c0.7,0,1-0.4,1.3-1C104.8,105.3,104.8,105.2,104.7,105.2z M116.2,103.4c-1.6-1.5-8.5-1.5-9.5-0.2c0.2,0.1,0.4,0.3,0.7,0.3
						c0.6,0.1,0.9,0.5,0.9,1.1c0,0.6-0.1,1.2-0.3,1.7c-0.2,0.8-0.3,1.5,0.2,2.3c0.3,0.4,0.4,0.9,0.6,1.4c0.3,0.9,0.8,1.1,1.5,0.7
						c1.5-0.8,2.6-1.8,3.4-3.3c0.3-0.6,0.4-1.2,0.1-1.8c-0.3-0.6-0.7-1.1-1-1.6c-0.1-0.2-0.2-0.4-0.3-0.6
						C113.9,103.3,115.1,103.3,116.2,103.4z"/>
				</g>
				<g id="XMLID_168_">
					<path id="XMLID_347_" class="st3" d="M101.7,104.7c0-0.3-0.1-0.5,0-0.7c0.5-1.4,0-2.6-0.6-3.8c-0.3-0.5-0.6-0.9-1-1.4
						c-0.1-0.1-0.2-0.1-0.5-0.2c0.2,0.3,0.3,0.5,0.4,0.7c0.9,1.4,1.4,2.9,0.9,4.6c-0.2,0.6-0.5,1-1.2,0.9c-0.9-0.2-1.6,0.2-2.3,0.7
						c-1.5,1-2.5,2.3-3,4c-0.1,0.3-0.2,0.5-0.4,0.7c-0.1,0-0.2,0-0.3,0c-0.1-0.3-0.2-0.7-0.3-1c-0.3-1-0.5-1.9-0.8-2.9
						c0-0.2-0.2-0.3-0.5-0.4c0.1,0.5,0.2,1.1,0.3,1.6c0.1,0.5,0.2,0.9,0.3,1.4c0.3,1.5,0.6,3.1,0.8,4.6c0.2,1.9,0.3,3.9,0.4,5.8
						c0.1,4.9,0.2,9.8,0.3,14.7c0,1,0,2.1,0,3.1c0,1.2-0.5,1.7-1.8,1.7c-1.9,0-3.5-0.7-4.9-2.1c-0.7-0.7-0.6-1.7-0.6-2.5
						c-0.3-6.3-0.7-12.6-1-18.9c0-0.7-0.2-1.4-0.1-2.1c0.1-1.6-0.7-2.6-1.8-3.6c-0.2-0.2-0.3-0.4-0.6-0.6c0.7-0.3,1.4-0.6,2-1
						c0.6-0.4,1.1-1,1.6-1.5c0.5-0.5,1-1,0.9-1.9c-0.4,0.4-0.7,0.9-1.1,1.3c-0.8,0.9-1.8,1.6-3,1.9c-0.8,0.2-1.4-0.3-1.4-1.1
						c0-2.8,1-5.1,3.1-7c0.4-0.4,1.1-0.7,1.6-0.8c1-0.2,1.9,0.4,2.2,1.3c0.5,1.5,1.1,1.8,2.6,1.3c1.8-0.6,3.3-1.5,4.4-3.1
						c1.8-2.4,4.7-2.4,6.7-0.1c1.1,1.2,1.5,2.6,1.4,4.2C104.4,103.7,103.8,104.6,101.7,104.7z"/>
				</g>
				<g id="XMLID_157_">
					<path id="XMLID_346_" class="st3" d="M123.4,100.5c-0.9-0.1-1.7,0-2.4,0.7c-0.1,0.1-0.7,0-0.8-0.1c-0.4-0.4-0.9-0.6-1.5-0.5
						c-0.9,0.1-1.9,0.1-2.8,0.2c-0.9,0.1-1.7-0.3-2-1.2c-0.4-1.2-0.9-2.4-1.2-3.6c-0.4-1.6-1.2-2.9-2.2-4.2
						c-0.7-0.8-1.3-1.7-1.5-2.9c-0.2-1.1,0.1-1.8,0.9-2.4c1-0.8,1.8-1.7,2.2-3c0.1-0.2,0.3-0.4,0.5-0.5c0.1-0.1,0.3-0.1,0.4-0.2
						c0.4-0.2,0.8-0.6,1.2-0.5c0.3,0,0.4,0.7,0.7,1c0.1,0.1,0.3,0.3,0.5,0.3c0.2,0,0.4-0.2,0.5-0.3c0.2-0.4,0.2-1,0.8-1
						c0.7,0.1,1,0.5,1.3,1.2c0.1,0.2,0.1,0.5,0.2,0.6c0.2,0.2,0.6,0.4,0.9,0.3c1.3-0.3,2.6-0.3,3.9,0c0.6,0.1,0.8-0.1,1.1-0.6
						c0.2-0.4,0.4-0.8,0.7-1.2c0.5-0.5,0.9-0.3,1.2,0.3c0.1,0.3,0.4,0.5,0.6,0.8c0.2-0.3,0.5-0.5,0.7-0.9c0.2-0.6,0.5-0.8,1.1-0.5
						c0.8,0.4,1.5,0.9,1.9,1.9c0.3,0.8,1,1.5,1.7,2c1.2,1,1.5,2.6,0.7,3.9c-0.6,0.9-1.2,1.7-1.9,2.6c-1,1.2-1.2,2.8-1.7,4.2
						c-0.3,0.9-0.5,1.7-0.9,2.6c-0.4,1.1-0.9,1.3-2,1.2C124.9,100.6,124.2,100.5,123.4,100.5z M124.1,85.2c-2.3,1.5-4.5,1.4-6.8,0.1
						c-0.3,1,1.1,1.5,3.1,1.7C122.4,87.1,124,86.4,124.1,85.2z M116.3,88.2c-0.2,0.3-0.4,0.5-0.4,0.6c0.2,0.3,0.5,0.6,0.7,0.8
						c0,0,0.5-0.4,0.5-0.4C116.9,88.9,116.6,88.6,116.3,88.2z M125.8,88.9c-0.4-0.2-0.7-0.5-0.8-0.4c-0.3,0.2-0.5,0.4-0.8,0.7
						c0.2,0.1,0.4,0.5,0.5,0.4C125.1,89.5,125.3,89.3,125.8,88.9z M117.2,97c0.2-0.4,0.4-0.7,0.4-0.8c-0.2-0.3-0.5-0.5-0.7-0.7
						c-0.1,0.2-0.5,0.4-0.4,0.5C116.5,96.4,116.8,96.6,117.2,97z M116.8,92c-0.1,0-0.2,0-0.3,0c-0.1,0.2-0.3,0.4-0.2,0.6
						c0.1,0.3,0.4,0.5,0.6,0.7c0,0,0.5-0.3,0.5-0.4C117.2,92.5,117,92.3,116.8,92z M124.5,93.5c0.3-0.5,0.5-0.7,0.6-1
						c0-0.1-0.3-0.3-0.4-0.5c-0.2,0.2-0.5,0.5-0.7,0.8C124,92.9,124.2,93.1,124.5,93.5z M125.3,96.1c-0.4-0.2-0.6-0.5-0.7-0.5
						c-0.3,0.2-0.5,0.4-0.7,0.7c0.2,0.1,0.4,0.4,0.5,0.4C124.6,96.6,124.9,96.4,125.3,96.1z M123.9,99.8c0.3-0.4,0.5-0.6,0.6-0.8
						c0-0.1-0.4-0.5-0.5-0.5c-0.2,0.1-0.5,0.3-0.6,0.5C123.3,99.1,123.6,99.4,123.9,99.8z M118.2,99c-0.3-0.3-0.5-0.5-0.7-0.5
						c-0.2,0.1-0.4,0.3-0.6,0.5c0.1,0.2,0.3,0.5,0.4,0.5C117.6,99.4,117.8,99.2,118.2,99z"/>
				</g>
				<g id="XMLID_156_">
					<path id="XMLID_345_" class="st3" d="M130.5,98.2c0.2-0.8,0.4-1.5,0.6-2.1c0.2-0.5,0.6-0.6,1-0.3c0.4,0.2,0.3,0.6,0.1,0.9
						c-0.3,0.4-0.6,0.8-0.9,1.1C131.1,98.1,130.9,98.1,130.5,98.2z"/>
				</g>
				<g id="XMLID_155_">
					<path id="XMLID_344_" class="st3" d="M110.7,98.2c-0.2-0.1-0.5-0.2-0.7-0.4c-0.3-0.3-0.6-0.6-0.8-1c-0.1-0.2,0.1-0.6,0.1-0.9
						c0.3,0.1,0.7,0.1,0.8,0.3c0.3,0.6,0.5,1.2,0.7,1.9C110.8,98,110.8,98.1,110.7,98.2z"/>
				</g>
				<g id="XMLID_154_">
					<path id="XMLID_343_" class="st3" d="M130.8,105c0.2,0.7,0.4,1.4,0.4,2.1c0,0.1-0.4,0.3-0.6,0.5c-0.3-0.4-0.8-0.8-0.9-1.3
						c-0.1-0.3,0.4-0.8,0.6-1.1C130.4,105.1,130.6,105.1,130.8,105z"/>
				</g>
				<g id="XMLID_153_">
					<path id="XMLID_342_" class="st3" d="M110.5,105c0.7,0,1.1,0.4,1.2,0.9c0.1,0.3-0.2,0.7-0.3,1c0,0.1-0.1,0.1-0.2,0.2
						c-0.3,0.2-0.6,0.3-0.9,0.5c-0.1-0.4-0.2-0.7-0.1-1.1C110.2,106.1,110.4,105.6,110.5,105z"/>
				</g>
			</g>
		</g>
	</g>
</g>
<g id="XMLID_369_">
	<g id="XMLID_147_">
		<path id="XMLID_339_" class="st0" d="M202.6,83c-1.3,0.1-2.3,0.6-2.8,1.6c-0.4,0.7-0.6,1.7-0.8,3.2c-0.1,1.7-0.5,3-1,3.9
			c-0.7,1.1-2,1.6-3.6,1.6c-4.1,0-6.2-2-6.2-5.9c0-1.2,0.3-2.2,0.8-2.9c0.5-0.7,1.2-1.1,2.1-1.1l1.3,0.1c-0.4,0.4-0.7,0.9-1,1.5
			c-0.4,0.7-0.5,1.5-0.5,2.2c0,1.1,0.2,1.9,0.6,2.4c0.5,0.7,1.6,1,3.1,1c0.7,0,1.2-0.3,1.5-1c0.1-0.4,0.3-1.2,0.3-2.4
			c0-0.9,0.1-1.7,0.3-2.4c0.2-0.9,0.5-1.7,0.8-2.3c1.1-1.6,3-2.4,5.7-2.4h2.3v7h1.9v2.8h-4.7V83z"/>
		<path id="XMLID_336_" class="st0" d="M211.2,82c1.3,0,2,0.7,2,2v2c0,1.1-0.3,2.1-1,2.8c-0.7,0.8-1.7,1.2-3,1.2h-2.3v-2.8h2.1
			c0.7-0.1,1.1-0.5,1.1-1.3V82H211.2z M212.7,80.3c-0.3,0.3-0.7,0.5-1.1,0.5c-0.4,0-0.8-0.2-1.1-0.5c-0.3-0.3-0.5-0.7-0.5-1.1
			c0-0.4,0.2-0.8,0.5-1.1c0.3-0.3,0.7-0.5,1.1-0.5c0.4,0,0.8,0.2,1.1,0.5c0.3,0.3,0.5,0.7,0.5,1.1S213,80,212.7,80.3z"/>
		<path id="XMLID_334_" class="st0" d="M218.2,86.2c0.1,0.5,0.5,0.8,1,0.9h0.6v2.8h-0.8c-1.3,0-2.3-0.4-3-1.2c-0.7-0.7-1-1.6-1-2.8
			v-9.7h1.5c0.4,0,0.8,0.1,1.1,0.4c0.4,0.3,0.5,0.7,0.5,1.1V86.2z"/>
		<path id="XMLID_331_" class="st0" d="M223.6,81.9c1.3,0,2,0.7,2,2v2c0,1.1-0.3,2.1-1,2.8c-0.7,0.8-1.7,1.2-3,1.2h-2.3v-2.8h2.1
			c0.7-0.1,1.1-0.5,1.1-1.3v-3.9H223.6z M223.6,93.7c-0.3,0.3-0.7,0.5-1.1,0.5c-0.4,0-0.8-0.2-1.1-0.5c-0.3-0.3-0.5-0.7-0.5-1.1
			c0-0.4,0.1-0.8,0.4-1.1c0.3-0.3,0.7-0.5,1.1-0.5c0.4,0,0.8,0.2,1.1,0.5c0.3,0.3,0.5,0.6,0.5,1.1C224.1,93,224,93.4,223.6,93.7z"/>
		<path id="XMLID_329_" class="st0" d="M237.3,76.2c1.4,0,2,0.7,2,2v7.7c0,1.1-0.3,2.1-1,2.8c-0.7,0.8-1.7,1.2-3,1.2h-5.6
			c-1.4,0-2.2-0.6-2.2-1.8v-1h2.5V76.2h1.4c0.4,0,0.8,0.1,1.1,0.4c0.4,0.3,0.6,0.7,0.6,1.1v9.3h2c0.7,0,1.1-0.5,1.1-1.3v-9.6H237.3z
			"/>
		<path id="XMLID_326_" class="st0" d="M244.6,89.9v0.5c0,0.9-0.3,1.6-0.9,2.3c-0.6,0.7-1.4,1-2.4,1c-0.6,0-1.1-0.1-1.5-0.4
			c-0.4-0.3-0.6-0.7-0.6-1.2v-1.2l0.4,0l0.2,0l0.2,0c0.2,0,0.4,0,0.4,0c0.5,0,0.9-0.2,1-0.5c0.1-0.2,0.2-0.7,0.2-1.4V82h1.2
			c0.7,0,1.2,0.2,1.5,0.5c0.3,0.3,0.4,0.8,0.4,1.5v3.1h2v2.8H244.6z M241.8,80.3c-0.3-0.3-0.5-0.7-0.5-1.1c0-0.4,0.1-0.8,0.4-1.1
			c0.3-0.3,0.7-0.5,1.1-0.5c0.4,0,0.8,0.2,1.1,0.5c0.3,0.3,0.5,0.6,0.5,1.1c0,0.4-0.2,0.8-0.5,1.1c-0.3,0.3-0.7,0.5-1.1,0.5
			C242.5,80.8,242.1,80.6,241.8,80.3z"/>
		<path id="XMLID_324_" class="st0" d="M249.1,76.3c1.4,0,2,0.7,2,2v7.7c0,1.2-0.3,2.1-1,2.8c-0.7,0.7-1.7,1.1-3,1.2h-1.1v-2.8h0.9
			c0.7,0,1.1-0.5,1.1-1.3v-9.6H249.1z"/>
		<path id="XMLID_322_" class="st0" d="M254.9,89.9c-0.5,0-0.9-0.2-1.3-0.5c-0.4-0.4-0.5-0.9-0.5-1.5V76.2h1.4
			c0.4,0,0.8,0.1,1.1,0.4c0.4,0.3,0.5,0.7,0.5,1.1v12.1H254.9z"/>
		<path id="XMLID_317_" class="st0" d="M276.5,81.8c0.7,0.9,1.1,2.2,1.2,3.8v0.7c0,0.3,0,0.5,0,0.8h1.8v2.8h-2.3
			c-0.8,2.7-2.7,4.1-5.8,4.1c-2.3,0-4.1-0.7-5.4-2c-1.2-1.2-1.8-2.8-1.8-4.8c0-1.1,0.2-1.9,0.7-2.6c0.5-0.7,1.1-1,1.9-1h1.6
			c-0.6,0.5-1.1,1.1-1.4,1.8c-0.3,0.6-0.4,1.2-0.4,1.7c0,0.4,0.1,0.8,0.2,1.2c0.2,0.5,0.4,0.9,0.7,1.3c0.8,1,2,1.5,3.5,1.5
			c1.4-0.1,2.5-0.5,3.1-1.3c-1.7-0.1-3-0.4-3.9-1c-1.3-0.8-1.9-2-1.9-3.7v-0.1l0-0.2l0-0.3c0-0.2,0.1-0.5,0.1-0.7
			c0.1-0.6,0.3-1.2,0.6-1.6c0.8-1.4,2.1-2.1,3.9-2.1C274.5,80.2,275.7,80.8,276.5,81.8z M270.3,78.7c-0.3-0.3-0.5-0.7-0.5-1.1
			s0.2-0.8,0.5-1.1c0.3-0.3,0.7-0.5,1.1-0.5c0.4,0,0.8,0.2,1.1,0.5c0.3,0.3,0.5,0.7,0.5,1.1s-0.2,0.8-0.5,1.1
			c-0.3,0.3-0.7,0.5-1.1,0.5C271,79.2,270.7,79,270.3,78.7z M274.9,85.9c0-1-0.1-1.8-0.3-2.3c-0.3-0.7-0.9-1-1.7-1
			c-0.5,0-1,0.2-1.3,0.7c-0.3,0.4-0.4,1-0.4,1.6c0,0.9,0.4,1.6,1.3,1.9c0.3,0.1,0.7,0.2,1.1,0.3l0.6,0h0.7V85.9z M273.7,78.7
			c-0.3-0.3-0.5-0.7-0.5-1.1s0.2-0.8,0.5-1.1c0.3-0.3,0.7-0.5,1.1-0.5c0.4,0,0.8,0.2,1.1,0.5c0.3,0.3,0.5,0.7,0.5,1.1
			s-0.2,0.8-0.5,1.1c-0.3,0.3-0.7,0.5-1.1,0.5C274.4,79.2,274,79,273.7,78.7z"/>
		<path id="XMLID_315_" class="st0" d="M281.8,76.3c1.4,0,2,0.7,2,2v7.7c0,1.2-0.3,2.1-1,2.8c-0.7,0.7-1.7,1.1-3,1.2h-1.1v-2.8h0.9
			c0.7,0,1.1-0.5,1.1-1.3v-9.6H281.8z"/>
		<path id="XMLID_313_" class="st0" d="M288.8,86.2c0.1,0.5,0.5,0.8,1,0.9h0.6v2.8h-0.8c-1.3,0-2.3-0.4-3-1.2c-0.7-0.7-1-1.6-1-2.8
			v-9.7h1.5c0.4,0,0.8,0.1,1.1,0.4c0.4,0.3,0.5,0.7,0.5,1.1V86.2z"/>
		<path id="XMLID_310_" class="st0" d="M290,87.1h8c-0.1-0.5-0.3-0.9-0.4-1.3c-0.2-0.5-0.4-1-0.7-1.3c-0.7-1-1.5-1.5-2.4-1.5
			c-1.1,0-2.2,0.5-3.3,1.6V83c0-0.9,0.3-1.5,0.9-2c0.7-0.5,1.6-0.8,2.9-0.8c1.7,0,3.1,0.8,4.2,2.3c0.9,1.2,1.4,2.8,1.8,4.7h2v2.8
			H290V87.1z M293.7,78.7c-0.3-0.3-0.4-0.7-0.4-1.1c0-0.4,0.1-0.8,0.4-1.1c0.3-0.3,0.7-0.4,1.1-0.4c0.4,0,0.8,0.1,1.1,0.4
			c0.3,0.3,0.5,0.7,0.5,1.1c0,0.4-0.2,0.8-0.5,1.1c-0.3,0.3-0.7,0.5-1.1,0.5C294.4,79.2,294,79,293.7,78.7z"/>
		<path id="XMLID_308_" class="st0" d="M305.4,76.3c1.4,0,2,0.7,2,2v7.7c0,1.2-0.3,2.1-1,2.8c-0.7,0.7-1.7,1.1-3,1.2h-1.1v-2.8h0.9
			c0.7,0,1.1-0.5,1.1-1.3v-9.6H305.4z"/>
		<path id="XMLID_306_" class="st0" d="M311.1,89.9c-0.5,0-0.9-0.2-1.3-0.5c-0.4-0.4-0.5-0.9-0.5-1.5V76.2h1.4
			c0.4,0,0.8,0.1,1.1,0.4c0.4,0.3,0.5,0.7,0.5,1.1v12.1H311.1z"/>
		<path id="XMLID_304_" class="st0" d="M325.8,87.1v2.8h-0.5c-1.2,0-2.1-0.2-2.7-0.7c-0.5,0.5-1.1,0.7-1.6,0.7H316
			c-0.5,0-0.9-0.2-1.1-0.5c-0.2-0.3-0.4-0.7-0.4-1.1v-1.2h5.9c-0.1-1.1-0.5-2-1.1-2.7c-0.7-0.8-1.6-1.2-2.6-1.2
			c-0.2,0-0.7,0.1-1.5,0.2l0.5-1.3c0.6-0.9,1.3-1.3,2.2-1.3c0.3,0,0.7,0,1,0.1c1.9,0.6,3.3,2.1,4,4.5v0c0.3,0.8,0.5,1.2,0.7,1.4
			c0.3,0.2,0.8,0.3,1.6,0.3H325.8z"/>
		<path id="XMLID_301_" class="st0" d="M331,85.2c0,0.7,0.2,1.1,0.5,1.4c0.4,0.3,0.9,0.5,1.7,0.5v2.8h-0.4c-1.3,0-2.4-0.3-3.1-0.9
			c-0.8,0.6-2.2,0.9-4.1,0.9v-2.8h1.2c0.7,0,1.1-0.5,1.1-1.3V82h1.1c1.3,0,2,0.7,2,2V85.2z M330.5,91.5c0.3,0.3,0.5,0.7,0.5,1.1
			c0,0.4-0.2,0.8-0.5,1.1c-0.3,0.3-0.7,0.4-1.1,0.4c-0.4,0-0.8-0.1-1.1-0.4c-0.3-0.3-0.5-0.7-0.5-1.1c0-0.4,0.2-0.8,0.5-1.1
			c0.3-0.3,0.7-0.4,1.1-0.4C329.8,91,330.2,91.2,330.5,91.5z"/>
		<path id="XMLID_299_" class="st0" d="M343.9,87.1v1.3c0,0.4-0.1,0.7-0.4,1c-0.3,0.3-0.7,0.5-1.1,0.5h-9.6v-2.8h2.2
			c-0.2-0.6-0.3-1.2-0.3-1.9c0-1.5,0.4-2.7,1.2-3.6c0.9-1,2-1.5,3.5-1.5c0.9,0,1.7,0.2,2.4,0.7c0.8,0.5,1.3,1.2,1.5,2.2
			c0,0.5-0.1,0.9-0.2,1.2l-0.7,1.5c-0.4-1.2-0.9-2-1.6-2.5c-0.3-0.2-0.6-0.3-0.9-0.4c-0.2-0.1-0.5-0.1-0.7-0.1
			c-1.1,0-1.6,0.8-1.6,2.3c0,1.1,0.3,1.9,0.8,2.2H343.9z"/>
		<path id="XMLID_297_" class="st0" d="M356.9,90.4c0,0.9-0.3,1.6-1,2.3c-0.7,0.7-1.5,1-2.5,1c-0.6,0-1.1-0.1-1.5-0.4
			c-0.4-0.3-0.6-0.7-0.6-1.2v-1.2c0.2,0,0.5,0.1,0.8,0.1c0.1,0,0.2,0,0.3,0h0.1c0.5,0,0.9-0.1,1-0.4c0.1-0.2,0.2-0.6,0.2-1.2V82h1.2
			c0.7,0,1.2,0.2,1.5,0.5c0.3,0.3,0.4,0.8,0.4,1.5V90.4z"/>
		<path id="XMLID_294_" class="st0" d="M367.3,82.5c0.5,0.9,0.7,1.9,0.7,3.1l0,1.5h2.3v2.8h-2.4c-0.3,1-0.8,1.8-1.6,2.5
			c-1.1,0.8-2.5,1.3-4.2,1.3c-0.5,0-1-0.1-1.3-0.4c-0.3-0.3-0.5-0.6-0.5-1v-1.1c2.1,0,3.6-0.5,4.5-1.3c-1.7-0.1-3-0.4-3.9-1
			c-1.3-0.8-1.9-2-1.9-3.7c0-1.5,0.4-2.7,1.2-3.6c0.8-1,2-1.5,3.5-1.5c0.6,0,1.1,0.1,1.7,0.3C366.1,80.8,366.8,81.5,367.3,82.5z
			 M362.4,86.8c0.4,0.2,1,0.3,1.8,0.3h1v-0.5l0-0.7l0-0.7c0-0.5-0.1-0.9-0.2-1.3c-0.3-0.9-0.8-1.3-1.6-1.3c-0.5,0-1,0.2-1.3,0.7
			c-0.3,0.4-0.4,1-0.4,1.6C361.6,85.8,361.9,86.4,362.4,86.8z"/>
		<path id="XMLID_290_" class="st0" d="M375.4,85.2c0,0.7,0.2,1.1,0.5,1.4c0.3,0.3,0.9,0.4,1.7,0.5v2.8h-0.4c-1.4,0-2.4-0.3-3.1-0.9
			c-0.7,0.6-1.6,0.9-2.7,0.9h-1.4v-2.8h1.2c0.7,0,1.1-0.5,1.1-1.3V82h1.1c1.3,0,2,0.7,2,2V85.2z M371,80.3c-0.3-0.3-0.5-0.7-0.5-1.1
			c0-0.4,0.2-0.8,0.5-1.1c0.3-0.3,0.7-0.5,1.1-0.5c0.4,0,0.8,0.2,1.1,0.5c0.3,0.3,0.5,0.7,0.5,1.1c0,0.4-0.2,0.8-0.5,1.1
			c-0.3,0.3-0.7,0.5-1.1,0.5C371.6,80.8,371.3,80.6,371,80.3z M374.4,80.3c-0.3-0.3-0.5-0.7-0.5-1.1c0-0.4,0.2-0.8,0.5-1.1
			c0.3-0.3,0.7-0.5,1.1-0.5c0.4,0,0.8,0.2,1.1,0.5c0.3,0.3,0.5,0.7,0.5,1.1c0,0.4-0.2,0.8-0.5,1.1c-0.3,0.3-0.7,0.5-1.1,0.5
			C375.1,80.8,374.7,80.6,374.4,80.3z"/>
		<path id="XMLID_288_" class="st0" d="M388.2,75.8c0,0.5-0.2,0.8-0.5,1.1l-5.3,3.9h0.1c0,0,0.1,0,0.1,0c0.1,0,0.1,0.1,0.2,0.1
			c0.2,0.1,0.4,0.1,0.6,0.3c0.6,0.3,1.1,0.7,1.5,1.1l0.1,0.1l0.1,0.1c0.1,0.1,0.2,0.2,0.3,0.3c0.2,0.3,0.4,0.7,0.6,1
			c0.5,1.1,0.8,2.2,0.8,3.5v2.5H377v-2.8h6.9c-0.1-1-0.4-1.8-0.9-2.6c-0.2-0.2-0.4-0.4-0.6-0.6c-0.1-0.1-0.1-0.1-0.2-0.2l-0.1,0l0,0
			v0c-0.6-0.4-1.3-0.6-2-0.6c-0.4,0-0.8,0-1.2,0.1l-0.6-0.8c-0.2-0.3-0.3-0.6-0.3-1c0-0.5,0.2-1,0.7-1.3l8.4-6.3l0.8,1
			C388.1,75.1,388.2,75.4,388.2,75.8z"/>
		<path id="XMLID_286_" class="st0" d="M398.9,89.9h-7.3c-0.5,0-0.8-0.2-1.1-0.5c-0.3-0.3-0.4-0.7-0.4-1.1v-1.2h5.9
			c-0.1-1.1-0.4-2-1.1-2.7c-0.7-0.8-1.6-1.2-2.6-1.2c-0.4,0-0.9,0.1-1.7,0.2l0.8-1.3c0.6-0.9,1.3-1.3,2.2-1.3c1.4,0,2.5,0.6,3.4,1.7
			l0.1,0.1l0.1,0.1c0.1,0.1,0.2,0.2,0.3,0.3c0.2,0.3,0.4,0.7,0.6,1c0.5,1.1,0.8,2.2,0.8,3.4V89.9z"/>
	</g>
	<g id="XMLID_146_">
		<path id="XMLID_283_" class="st2" d="M189.9,107.6c0.1-0.6,0.3-1.1,0.5-1.5c0.2-0.4,0.4-0.8,0.6-1.1s0.5-0.6,0.7-0.8
			c0.3-0.2,0.5-0.4,0.8-0.5s0.5-0.2,0.7-0.2c0.2,0,0.5-0.1,0.7-0.1c0.5,0,0.9,0.1,1.3,0.2s0.7,0.4,1,0.7c0.3,0.3,0.5,0.6,0.7,1.1
			c0.2,0.4,0.2,0.9,0.2,1.4c0,0.5-0.1,1-0.2,1.5c-0.1,0.4-0.3,0.8-0.6,1.1c-0.3,0.3-0.6,0.5-1,0.7c-0.4,0.2-0.9,0.3-1.4,0.3
			c-0.2,0-0.5,0-0.7-0.1c-0.2,0-0.5-0.1-0.8-0.2c-0.3-0.1-0.6-0.2-0.8-0.4c-0.3-0.2-0.6-0.4-0.9-0.6c-0.3,0.1-0.5,0.2-0.7,0.3
			c-0.2,0.1-0.3,0.3-0.4,0.5s-0.2,0.5-0.2,0.8c0,0.3-0.1,0.7-0.1,1.1v2.1h-1.5v-2.2c0-0.6,0-1.1,0.1-1.6c0.1-0.4,0.2-0.8,0.3-1.1
			s0.4-0.6,0.7-0.8S189.4,107.8,189.9,107.6z M195.5,106.9c0-0.3,0-0.6-0.1-0.8c-0.1-0.3-0.2-0.5-0.3-0.6c-0.1-0.2-0.3-0.3-0.5-0.4
			c-0.2-0.1-0.5-0.1-0.7-0.1s-0.5,0.1-0.8,0.2c-0.3,0.1-0.5,0.3-0.7,0.5s-0.4,0.5-0.6,0.9c-0.2,0.4-0.3,0.8-0.5,1.3
			c0.4,0.3,0.8,0.6,1.3,0.7c0.4,0.2,0.9,0.2,1.3,0.2c0.6,0,1-0.1,1.3-0.4S195.5,107.5,195.5,106.9z"/>
		<path id="XMLID_281_" class="st2" d="M202.8,109.2c0,0.3-0.1,0.5-0.2,0.6c-0.1,0.1-0.3,0.2-0.5,0.2h-0.3c-0.4,0-0.7,0-1-0.1
			s-0.6-0.2-0.8-0.4s-0.4-0.4-0.5-0.8c-0.1-0.3-0.2-0.7-0.2-1.2v-10h1.5v9.6c0,0.2,0,0.5,0,0.6s0.1,0.3,0.2,0.4
			c0.1,0.1,0.2,0.2,0.4,0.2c0.2,0,0.4,0.1,0.6,0.1h0c0.2,0,0.4,0.1,0.5,0.2C202.8,108.8,202.8,109,202.8,109.2z"/>
		<path id="XMLID_279_" class="st2" d="M202.1,110c-0.2,0-0.4-0.1-0.5-0.2c-0.1-0.1-0.2-0.3-0.2-0.5c0-0.3,0.1-0.5,0.2-0.6
			c0.1-0.1,0.3-0.2,0.5-0.2h2.6c0.2,0,0.4,0.1,0.5,0.2c0.1,0.1,0.2,0.3,0.2,0.5c0,0.3-0.1,0.5-0.2,0.6c-0.1,0.1-0.3,0.2-0.5,0.2
			H202.1z"/>
		<path id="XMLID_277_" class="st2" d="M204.7,110c-0.2,0-0.4-0.1-0.5-0.2c-0.1-0.1-0.2-0.3-0.2-0.5c0-0.3,0.1-0.5,0.2-0.6
			c0.1-0.1,0.3-0.2,0.5-0.2h2.6c0.2,0,0.4,0.1,0.5,0.2c0.1,0.1,0.2,0.3,0.2,0.5c0,0.3-0.1,0.5-0.2,0.6c-0.1,0.1-0.3,0.2-0.5,0.2
			H204.7z"/>
		<path id="XMLID_275_" class="st2" d="M207.4,110c-0.2,0-0.4-0.1-0.5-0.2c-0.1-0.1-0.2-0.3-0.2-0.5c0-0.3,0.1-0.5,0.2-0.6
			c0.1-0.1,0.3-0.2,0.5-0.2h2.6c0.2,0,0.4,0.1,0.5,0.2s0.2,0.3,0.2,0.5c0,0.3-0.1,0.5-0.2,0.6c-0.1,0.1-0.3,0.2-0.5,0.2H207.4z"/>
		<path id="XMLID_271_" class="st2" d="M223.6,108.5c0.2,0,0.4,0.1,0.5,0.2s0.2,0.3,0.2,0.5c0,0.3-0.1,0.5-0.2,0.6
			c-0.1,0.1-0.3,0.2-0.5,0.2H210c-0.2,0-0.4-0.1-0.5-0.2s-0.2-0.3-0.2-0.5c0-0.3,0.1-0.5,0.2-0.6c0.1-0.1,0.3-0.2,0.5-0.2h2.2V97.6
			h1.5v8.3c0.6-1,1.4-1.8,2.2-2.2c0.8-0.5,1.7-0.7,2.7-0.7c0.6,0,1.1,0.1,1.6,0.3s0.9,0.5,1.2,0.8s0.6,0.8,0.7,1.3
			c0.2,0.5,0.3,1.1,0.3,1.7v1.5H223.6z M220.9,108.5V107c0-0.3,0-0.7-0.1-1c-0.1-0.3-0.2-0.6-0.4-0.9c-0.2-0.2-0.4-0.5-0.8-0.6
			c-0.3-0.2-0.7-0.2-1.2-0.2c-0.4,0-0.7,0.1-1.1,0.2c-0.3,0.1-0.7,0.3-1,0.5c-0.3,0.2-0.6,0.4-0.9,0.7c-0.3,0.3-0.5,0.6-0.7,0.9
			c-0.2,0.3-0.4,0.6-0.6,1s-0.3,0.7-0.4,1H220.9z M217.5,100.1c0-0.1,0-0.2,0.1-0.4c0-0.1,0.1-0.2,0.2-0.3c0.1-0.1,0.2-0.2,0.3-0.2
			c0.1,0,0.2-0.1,0.4-0.1c0.1,0,0.2,0,0.4,0.1s0.2,0.1,0.3,0.2c0.1,0.1,0.2,0.2,0.2,0.3c0,0.1,0.1,0.2,0.1,0.4c0,0.1,0,0.3-0.1,0.4
			c0,0.1-0.1,0.2-0.2,0.3c-0.1,0.1-0.2,0.2-0.3,0.2c-0.1,0-0.2,0.1-0.4,0.1c-0.1,0-0.3,0-0.4-0.1c-0.1,0-0.2-0.1-0.3-0.2
			c-0.1-0.1-0.2-0.2-0.2-0.3C217.5,100.4,217.5,100.3,217.5,100.1z"/>
		<path id="XMLID_268_" class="st2" d="M223.6,110c-0.2,0-0.4-0.1-0.5-0.2s-0.2-0.3-0.2-0.5c0-0.3,0.1-0.5,0.2-0.6
			c0.1-0.1,0.3-0.2,0.5-0.2h1c0.5,0,0.9,0,1.3-0.1c0.4-0.1,0.9-0.2,1.3-0.3l-2.3-2.5c0-0.1,0.1-0.3,0.1-0.4c0.1-0.1,0.1-0.3,0.2-0.4
			s0.1-0.3,0.2-0.4c0.1-0.1,0.1-0.2,0.2-0.3c0.4-0.4,0.8-0.7,1.4-0.9c0.6-0.2,1.2-0.3,1.8-0.3c0.5,0,1,0.1,1.4,0.2
			c0.4,0.1,0.7,0.3,1,0.5s0.5,0.4,0.6,0.7c0.1,0.3,0.2,0.5,0.2,0.8c0,0.3-0.1,0.6-0.2,0.9c-0.1,0.3-0.2,0.6-0.4,0.9
			s-0.4,0.5-0.7,0.8s-0.5,0.5-0.9,0.7c0.1,0,0.3,0,0.4,0.1c0.2,0,0.3,0,0.5,0h2.3c0.2,0,0.4,0.1,0.5,0.2s0.2,0.3,0.2,0.5
			c0,0.3-0.1,0.5-0.2,0.6c-0.1,0.1-0.3,0.2-0.5,0.2h-2.7c-0.3,0-0.7,0-1-0.1c-0.3-0.1-0.6-0.3-1-0.6c-0.6,0.2-1.1,0.4-1.7,0.5
			s-1.2,0.2-1.9,0.2H223.6z M228.7,104.3c-0.2,0-0.5,0-0.7,0.1s-0.4,0.1-0.6,0.2c-0.2,0.1-0.4,0.2-0.6,0.3c-0.2,0.1-0.3,0.3-0.4,0.4
			l2.2,2.3c0.3-0.1,0.5-0.3,0.8-0.5c0.2-0.2,0.4-0.4,0.6-0.5c0.2-0.2,0.3-0.4,0.4-0.6s0.1-0.4,0.1-0.6c0-0.1,0-0.3-0.1-0.4
			c-0.1-0.1-0.2-0.2-0.3-0.3c-0.1-0.1-0.3-0.2-0.5-0.2C229.3,104.4,229,104.3,228.7,104.3z"/>
		<path id="XMLID_266_" class="st2" d="M233,110c-0.2,0-0.4-0.1-0.5-0.2c-0.1-0.1-0.2-0.3-0.2-0.5c0-0.3,0.1-0.5,0.2-0.6
			c0.1-0.1,0.3-0.2,0.5-0.2h2.2V97.6h1.5V110H233z"/>
		<path id="XMLID_264_" class="st2" d="M240.7,97.6V110h-1.5V97.6H240.7z"/>
		<path id="XMLID_260_" class="st2" d="M263,110h-10.8c-0.7,0-1.3,0-1.7-0.1c-0.5-0.1-0.8-0.2-1.1-0.5c-0.3-0.2-0.5-0.5-0.6-0.8
			c-0.1-0.3-0.2-0.7-0.2-1.2v-2.8h1.5v2.2c0,0.4,0,0.7,0.1,0.9c0.1,0.2,0.2,0.4,0.5,0.5c0.2,0.1,0.5,0.2,0.9,0.2
			c0.4,0,0.8,0.1,1.4,0.1h8.5v-5.4h1.5V110z M253.8,101.2c0-0.1,0-0.2,0.1-0.4c0-0.1,0.1-0.2,0.2-0.3c0.1-0.1,0.2-0.2,0.3-0.2
			c0.1,0,0.2-0.1,0.4-0.1c0.1,0,0.2,0,0.4,0.1s0.2,0.1,0.3,0.2c0.1,0.1,0.2,0.2,0.2,0.3c0,0.1,0.1,0.2,0.1,0.4c0,0.1,0,0.3-0.1,0.4
			c0,0.1-0.1,0.2-0.2,0.3c-0.1,0.1-0.2,0.2-0.3,0.2s-0.2,0.1-0.4,0.1c-0.1,0-0.3,0-0.4-0.1c-0.1,0-0.2-0.1-0.3-0.2
			c-0.1-0.1-0.2-0.2-0.2-0.3C253.8,101.5,253.8,101.3,253.8,101.2z M256.1,101.2c0-0.1,0-0.2,0.1-0.4c0-0.1,0.1-0.2,0.2-0.3
			c0.1-0.1,0.2-0.2,0.3-0.2s0.2-0.1,0.4-0.1c0.1,0,0.2,0,0.4,0.1c0.1,0,0.2,0.1,0.3,0.2c0.1,0.1,0.2,0.2,0.2,0.3
			c0,0.1,0.1,0.2,0.1,0.4c0,0.1,0,0.3-0.1,0.4c0,0.1-0.1,0.2-0.2,0.3c-0.1,0.1-0.2,0.2-0.3,0.2c-0.1,0-0.2,0.1-0.4,0.1
			c-0.1,0-0.3,0-0.4-0.1s-0.2-0.1-0.3-0.2c-0.1-0.1-0.2-0.2-0.2-0.3C256.1,101.5,256.1,101.3,256.1,101.2z"/>
		<path id="XMLID_258_" class="st2" d="M269,109.2c0,0.3-0.1,0.5-0.2,0.6c-0.1,0.1-0.3,0.2-0.5,0.2H268c-0.4,0-0.7,0-1-0.1
			s-0.6-0.2-0.8-0.4c-0.2-0.2-0.4-0.4-0.5-0.8s-0.2-0.7-0.2-1.2v-10h1.5v9.6c0,0.2,0,0.5,0,0.6c0,0.2,0.1,0.3,0.2,0.4
			c0.1,0.1,0.2,0.2,0.4,0.2s0.4,0.1,0.6,0.1h0c0.2,0,0.4,0.1,0.5,0.2S269,109,269,109.2z"/>
		<path id="XMLID_256_" class="st2" d="M268.3,110c-0.2,0-0.4-0.1-0.5-0.2s-0.2-0.3-0.2-0.5c0-0.3,0.1-0.5,0.2-0.6
			c0.1-0.1,0.3-0.2,0.5-0.2h2.6c0.2,0,0.4,0.1,0.5,0.2c0.1,0.1,0.2,0.3,0.2,0.5c0,0.3-0.1,0.5-0.2,0.6c-0.1,0.1-0.3,0.2-0.5,0.2
			H268.3z"/>
		<path id="XMLID_254_" class="st2" d="M270.9,110c-0.2,0-0.4-0.1-0.5-0.2c-0.1-0.1-0.2-0.3-0.2-0.5c0-0.3,0.1-0.5,0.2-0.6
			c0.1-0.1,0.3-0.2,0.5-0.2h2.6c0.2,0,0.4,0.1,0.5,0.2s0.2,0.3,0.2,0.5c0,0.3-0.1,0.5-0.2,0.6c-0.1,0.1-0.3,0.2-0.5,0.2H270.9z"/>
		<path id="XMLID_252_" class="st2" d="M273.6,110c-0.2,0-0.4-0.1-0.5-0.2s-0.2-0.3-0.2-0.5c0-0.3,0.1-0.5,0.2-0.6
			c0.1-0.1,0.3-0.2,0.5-0.2h2.6c0.2,0,0.4,0.1,0.5,0.2s0.2,0.3,0.2,0.5c0,0.3-0.1,0.5-0.2,0.6c-0.1,0.1-0.3,0.2-0.5,0.2H273.6z"/>
		<path id="XMLID_250_" class="st2" d="M276.2,110c-0.2,0-0.4-0.1-0.5-0.2s-0.2-0.3-0.2-0.5c0-0.3,0.1-0.5,0.2-0.6
			c0.1-0.1,0.3-0.2,0.5-0.2h2.6c0.2,0,0.4,0.1,0.5,0.2c0.1,0.1,0.2,0.3,0.2,0.5c0,0.3-0.1,0.5-0.2,0.6c-0.1,0.1-0.3,0.2-0.5,0.2
			H276.2z"/>
		<path id="XMLID_248_" class="st2" d="M278.8,110c-0.2,0-0.4-0.1-0.5-0.2c-0.1-0.1-0.2-0.3-0.2-0.5c0-0.3,0.1-0.5,0.2-0.6
			c0.1-0.1,0.3-0.2,0.5-0.2h2.6c0.2,0,0.4,0.1,0.5,0.2s0.2,0.3,0.2,0.5c0,0.3-0.1,0.5-0.2,0.6c-0.1,0.1-0.3,0.2-0.5,0.2H278.8z"/>
		<path id="XMLID_246_" class="st2" d="M281.5,110c-0.2,0-0.4-0.1-0.5-0.2s-0.2-0.3-0.2-0.5c0-0.3,0.1-0.5,0.2-0.6
			c0.1-0.1,0.3-0.2,0.5-0.2h2.6c0.2,0,0.4,0.1,0.5,0.2s0.2,0.3,0.2,0.5c0,0.3-0.1,0.5-0.2,0.6c-0.1,0.1-0.3,0.2-0.5,0.2H281.5z"/>
		<path id="XMLID_244_" class="st2" d="M291.2,108.5c0-0.8-0.1-1.4-0.3-1.9s-0.5-1-0.8-1.3c-0.3-0.3-0.7-0.6-1.2-0.7
			c-0.5-0.1-1-0.2-1.5-0.2c-0.2,0-0.4,0-0.5,0s-0.4,0-0.6,0.1s-0.4,0.1-0.5,0.1c-0.2,0-0.3,0.1-0.4,0.1v-1.4
			c0.2-0.1,0.5-0.2,0.9-0.2c0.4-0.1,0.8-0.1,1.3-0.1c0.9,0,1.7,0.2,2.3,0.5c0.6,0.3,1.2,0.7,1.6,1.3s0.7,1.1,0.9,1.8
			s0.3,1.4,0.3,2.2v1.3h-8.7c-0.2,0-0.4-0.1-0.5-0.2c-0.1-0.1-0.2-0.3-0.2-0.5c0-0.3,0.1-0.5,0.2-0.6c0.1-0.1,0.3-0.2,0.5-0.2H291.2
			z"/>
		<path id="XMLID_242_" class="st2" d="M296.5,97.6V110H295V97.6H296.5z"/>
		<path id="XMLID_240_" class="st2" d="M303.7,110c-0.2,0-0.3,0-0.5-0.1c-0.2,0-0.3-0.1-0.5-0.2c-0.1-0.1-0.3-0.2-0.4-0.2
			s-0.2-0.2-0.3-0.3c0,0.8,0,1.5-0.1,2.1c-0.1,0.6-0.3,1.1-0.5,1.4c-0.2,0.4-0.6,0.6-1,0.8c-0.4,0.2-1,0.3-1.6,0.3h-0.5v-1.5h0.6
			c0.4,0,0.8-0.1,1-0.2c0.2-0.1,0.4-0.3,0.5-0.6c0.1-0.3,0.2-0.6,0.2-1.1s0-0.9,0-1.6v-5.8h1.5v3.4c0,0.3,0,0.6,0.1,0.8
			c0.1,0.2,0.2,0.4,0.3,0.6c0.1,0.2,0.3,0.3,0.5,0.4c0.2,0.1,0.5,0.1,0.7,0.1c0.2,0,0.4,0.1,0.5,0.2s0.2,0.3,0.2,0.5
			c0,0.3-0.1,0.5-0.2,0.6C304.1,109.9,303.9,110,303.7,110z"/>
		<path id="XMLID_237_" class="st2" d="M310.8,108.5c0-0.8-0.1-1.4-0.3-1.9s-0.5-1-0.8-1.3c-0.3-0.3-0.7-0.6-1.2-0.7s-1-0.2-1.5-0.2
			c-0.2,0-0.4,0-0.5,0c-0.2,0-0.4,0-0.6,0.1s-0.4,0.1-0.5,0.1c-0.2,0-0.3,0.1-0.4,0.1v-1.4c0.2-0.1,0.5-0.2,0.9-0.2
			c0.4-0.1,0.8-0.1,1.3-0.1c0.9,0,1.7,0.2,2.3,0.5c0.6,0.3,1.2,0.7,1.6,1.3c0.4,0.5,0.7,1.1,0.9,1.8s0.3,1.4,0.3,2.2v1.3h-8.7
			c-0.2,0-0.4-0.1-0.5-0.2s-0.2-0.3-0.2-0.5c0-0.3,0.1-0.5,0.2-0.6c0.1-0.1,0.3-0.2,0.5-0.2H310.8z M306.5,112.9
			c0-0.1,0-0.2,0.1-0.4c0-0.1,0.1-0.2,0.2-0.3c0.1-0.1,0.2-0.2,0.3-0.2c0.1,0,0.2-0.1,0.4-0.1c0.1,0,0.2,0,0.4,0.1s0.2,0.1,0.3,0.2
			c0.1,0.1,0.2,0.2,0.2,0.3c0,0.1,0.1,0.2,0.1,0.4c0,0.1,0,0.3-0.1,0.4c0,0.1-0.1,0.2-0.2,0.3c-0.1,0.1-0.2,0.2-0.3,0.2
			s-0.2,0.1-0.4,0.1c-0.1,0-0.3,0-0.4-0.1c-0.1,0-0.2-0.1-0.3-0.2c-0.1-0.1-0.2-0.2-0.2-0.3C306.5,113.1,306.5,113,306.5,112.9z"/>
		<path id="XMLID_235_" class="st2" d="M321.4,108.6c0,0.5,0.1,1,0.2,1.3s0.4,0.7,0.8,1s0.8,0.5,1.5,0.6c0.6,0.1,1.4,0.2,2.3,0.2
			c0.5,0,1.1,0,1.6-0.1s1-0.1,1.4-0.3c0.4-0.1,0.7-0.3,1-0.5s0.4-0.5,0.4-0.8c0-0.2-0.1-0.4-0.2-0.5c-0.1-0.2-0.3-0.3-0.4-0.4
			c-0.2-0.1-0.4-0.2-0.6-0.3c-0.2-0.1-0.5-0.2-0.7-0.3s-0.5-0.2-0.7-0.4c-0.2-0.1-0.4-0.3-0.6-0.5c-0.2-0.2-0.3-0.4-0.4-0.6
			s-0.2-0.5-0.2-0.8c0-0.5,0.1-0.9,0.2-1.3c0.2-0.4,0.4-0.8,0.7-1.1s0.7-0.6,1.2-0.8s1.1-0.3,1.7-0.3c0.2,0,0.4,0,0.6,0
			c0.2,0,0.3,0.1,0.5,0.1c0.1,0,0.3,0.1,0.3,0.1c0.1,0,0.2,0.1,0.2,0.1v1.5c-0.2-0.1-0.5-0.1-0.8-0.2c-0.3,0-0.6-0.1-0.8-0.1
			c-0.4,0-0.7,0-1,0.1s-0.5,0.2-0.7,0.3c-0.2,0.1-0.4,0.3-0.4,0.5c-0.1,0.2-0.1,0.4-0.1,0.7c0,0.2,0.1,0.4,0.2,0.6
			c0.1,0.2,0.3,0.3,0.4,0.4c0.2,0.1,0.4,0.2,0.6,0.3c0.2,0.1,0.5,0.2,0.7,0.3s0.5,0.2,0.7,0.3s0.4,0.3,0.6,0.4
			c0.2,0.2,0.3,0.4,0.4,0.6c0.1,0.2,0.2,0.5,0.2,0.8c0,0.5-0.1,1-0.3,1.4c-0.2,0.4-0.5,0.8-1,1.1c-0.5,0.3-1.1,0.6-1.8,0.7
			c-0.8,0.2-1.7,0.3-2.8,0.3c-1.2,0-2.2-0.1-3.1-0.3s-1.5-0.5-2-0.9c-0.5-0.4-0.8-0.8-1-1.4c-0.2-0.5-0.3-1.1-0.3-1.7v-1.8h1.5
			V108.6z"/>
		<path id="XMLID_233_" class="st2" d="M335.8,103.1h1.5v6c0,0.9,0,1.6-0.1,2.2c-0.1,0.6-0.3,1.1-0.5,1.5c-0.2,0.4-0.6,0.6-1,0.8
			c-0.4,0.2-1,0.3-1.7,0.3h-0.5v-1.5h0.6c0.4,0,0.8-0.1,1-0.2c0.2-0.1,0.4-0.3,0.5-0.6c0.1-0.3,0.2-0.6,0.2-1.1s0-0.9,0-1.6V103.1z"
			/>
		<path id="XMLID_231_" class="st2" d="M343.4,109.2c0,0.3-0.1,0.5-0.2,0.6c-0.1,0.1-0.3,0.2-0.5,0.2h-0.3c-0.4,0-0.7,0-1-0.1
			s-0.6-0.2-0.8-0.4c-0.2-0.2-0.4-0.4-0.5-0.8s-0.2-0.7-0.2-1.2v-10h1.5v9.6c0,0.2,0,0.5,0,0.6c0,0.2,0.1,0.3,0.2,0.4
			c0.1,0.1,0.2,0.2,0.4,0.2c0.2,0,0.4,0.1,0.6,0.1h0c0.2,0,0.4,0.1,0.5,0.2C343.3,108.8,343.4,109,343.4,109.2z"/>
		<path id="XMLID_229_" class="st2" d="M342.7,110c-0.2,0-0.4-0.1-0.5-0.2s-0.2-0.3-0.2-0.5c0-0.3,0.1-0.5,0.2-0.6
			c0.1-0.1,0.3-0.2,0.5-0.2h2.6c0.2,0,0.4,0.1,0.5,0.2s0.2,0.3,0.2,0.5c0,0.3-0.1,0.5-0.2,0.6c-0.1,0.1-0.3,0.2-0.5,0.2H342.7z"/>
		<path id="XMLID_227_" class="st2" d="M345.3,110c-0.2,0-0.4-0.1-0.5-0.2s-0.2-0.3-0.2-0.5c0-0.3,0.1-0.5,0.2-0.6
			c0.1-0.1,0.3-0.2,0.5-0.2h2.6c0.2,0,0.4,0.1,0.5,0.2c0.1,0.1,0.2,0.3,0.2,0.5c0,0.3-0.1,0.5-0.2,0.6c-0.1,0.1-0.3,0.2-0.5,0.2
			H345.3z"/>
		<path id="XMLID_225_" class="st2" d="M348,110c-0.2,0-0.4-0.1-0.5-0.2c-0.1-0.1-0.2-0.3-0.2-0.5c0-0.3,0.1-0.5,0.2-0.6
			c0.1-0.1,0.3-0.2,0.5-0.2h2.6c0.2,0,0.4,0.1,0.5,0.2s0.2,0.3,0.2,0.5c0,0.3-0.1,0.5-0.2,0.6c-0.1,0.1-0.3,0.2-0.5,0.2H348z"/>
		<path id="XMLID_223_" class="st2" d="M350.6,110c-0.2,0-0.4-0.1-0.5-0.2s-0.2-0.3-0.2-0.5c0-0.3,0.1-0.5,0.2-0.6
			c0.1-0.1,0.3-0.2,0.5-0.2h2.6c0.2,0,0.4,0.1,0.5,0.2s0.2,0.3,0.2,0.5c0,0.3-0.1,0.5-0.2,0.6c-0.1,0.1-0.3,0.2-0.5,0.2H350.6z"/>
		<path id="XMLID_221_" class="st2" d="M353.2,110c-0.2,0-0.4-0.1-0.5-0.2s-0.2-0.3-0.2-0.5c0-0.3,0.1-0.5,0.2-0.6
			c0.1-0.1,0.3-0.2,0.5-0.2h2.6c0.2,0,0.4,0.1,0.5,0.2c0.1,0.1,0.2,0.3,0.2,0.5c0,0.3-0.1,0.5-0.2,0.6c-0.1,0.1-0.3,0.2-0.5,0.2
			H353.2z"/>
		<path id="XMLID_219_" class="st2" d="M355.9,110c-0.2,0-0.4-0.1-0.5-0.2c-0.1-0.1-0.2-0.3-0.2-0.5c0-0.3,0.1-0.5,0.2-0.6
			c0.1-0.1,0.3-0.2,0.5-0.2h2.6c0.2,0,0.4,0.1,0.5,0.2s0.2,0.3,0.2,0.5c0,0.3-0.1,0.5-0.2,0.6c-0.1,0.1-0.3,0.2-0.5,0.2H355.9z"/>
		<path id="XMLID_217_" class="st2" d="M358.5,110c-0.2,0-0.4-0.1-0.5-0.2s-0.2-0.3-0.2-0.5c0-0.3,0.1-0.5,0.2-0.6
			c0.1-0.1,0.3-0.2,0.5-0.2h2.6c0.2,0,0.4,0.1,0.5,0.2s0.2,0.3,0.2,0.5c0,0.3-0.1,0.5-0.2,0.6c-0.1,0.1-0.3,0.2-0.5,0.2H358.5z"/>
		<path id="XMLID_212_" class="st2" d="M367.2,110c-0.4,0-0.8,0-1-0.1c-0.3-0.1-0.5-0.1-0.7-0.2c-0.2-0.1-0.4-0.2-0.5-0.4
			s-0.2-0.3-0.3-0.4c-0.1,0.2-0.3,0.4-0.5,0.6c-0.2,0.1-0.4,0.3-0.6,0.3s-0.5,0.1-0.9,0.1c-0.4,0-0.8,0-1.3,0h-0.2
			c-0.2,0-0.4-0.1-0.5-0.2c-0.1-0.1-0.2-0.3-0.2-0.5c0-0.3,0.1-0.5,0.2-0.6c0.1-0.1,0.3-0.2,0.5-0.2h0.3c0.4,0,0.7,0,1,0
			c0.3,0,0.5-0.1,0.6-0.2c0.2-0.1,0.3-0.2,0.3-0.4c0.1-0.2,0.1-0.4,0.1-0.7V104h1.5v2.5c0,0.3,0,0.6,0.1,0.8c0,0.2,0.1,0.4,0.2,0.6
			c0.1,0.2,0.3,0.3,0.6,0.4s0.6,0.1,1,0.1c0.3,0,0.5,0,0.7,0c0.2,0,0.3-0.1,0.5-0.2c0.1-0.1,0.2-0.2,0.3-0.4
			c0.1-0.2,0.1-0.4,0.1-0.7V104h1.5v2.5c0,0.3,0,0.6,0.1,0.8c0,0.2,0.1,0.4,0.2,0.6c0.1,0.2,0.3,0.3,0.5,0.4s0.5,0.1,0.8,0.1
			c0.2,0,0.4,0,0.6,0c0.2,0,0.3-0.1,0.5-0.2c0.1-0.1,0.2-0.2,0.3-0.4c0.1-0.2,0.1-0.4,0.1-0.7v-4.1h1.5v3.4c0,0.3,0,0.6,0.1,0.8
			c0,0.2,0.1,0.4,0.3,0.6c0.1,0.2,0.3,0.3,0.5,0.4s0.5,0.1,0.8,0.1c0.2,0,0.4,0.1,0.5,0.2c0.1,0.1,0.2,0.3,0.2,0.5
			c0,0.3-0.1,0.5-0.2,0.6c-0.1,0.1-0.3,0.2-0.5,0.2c-0.2,0-0.4,0-0.6-0.1s-0.4-0.1-0.5-0.2c-0.2-0.1-0.3-0.2-0.4-0.3
			c-0.1-0.1-0.2-0.3-0.3-0.4c-0.1,0.2-0.3,0.4-0.4,0.5c-0.2,0.1-0.4,0.2-0.6,0.3c-0.2,0.1-0.4,0.1-0.6,0.1c-0.2,0-0.4,0-0.6,0
			c-0.3,0-0.6,0-0.9-0.1c-0.3-0.1-0.5-0.1-0.7-0.2c-0.2-0.1-0.3-0.2-0.5-0.3c-0.1-0.1-0.2-0.3-0.3-0.4c-0.1,0.2-0.3,0.4-0.5,0.6
			s-0.4,0.2-0.6,0.3c-0.2,0.1-0.4,0.1-0.6,0.1C367.6,110,367.4,110,367.2,110z M366.9,100.1c0-0.1,0-0.2,0.1-0.4s0.1-0.2,0.2-0.3
			c0.1-0.1,0.2-0.2,0.3-0.2s0.2-0.1,0.4-0.1c0.1,0,0.2,0,0.4,0.1c0.1,0,0.2,0.1,0.3,0.2c0.1,0.1,0.2,0.2,0.2,0.3
			c0,0.1,0.1,0.2,0.1,0.4c0,0.1,0,0.3-0.1,0.4c0,0.1-0.1,0.2-0.2,0.3c-0.1,0.1-0.2,0.2-0.3,0.2c-0.1,0-0.2,0.1-0.4,0.1
			c-0.1,0-0.3,0-0.4-0.1c-0.1,0-0.2-0.1-0.3-0.2c-0.1-0.1-0.2-0.2-0.2-0.3S366.9,100.3,366.9,100.1z M368.1,98c0-0.1,0-0.2,0.1-0.4
			s0.1-0.2,0.2-0.3c0.1-0.1,0.2-0.2,0.3-0.2c0.1,0,0.2-0.1,0.4-0.1c0.1,0,0.2,0,0.4,0.1s0.2,0.1,0.3,0.2c0.1,0.1,0.2,0.2,0.2,0.3
			s0.1,0.2,0.1,0.4s0,0.2-0.1,0.4c0,0.1-0.1,0.2-0.2,0.3c-0.1,0.1-0.2,0.2-0.3,0.2s-0.2,0.1-0.4,0.1c-0.1,0-0.3,0-0.4-0.1
			c-0.1,0-0.2-0.1-0.3-0.2c-0.1-0.1-0.2-0.2-0.2-0.3C368.1,98.3,368.1,98.1,368.1,98z M369.2,100.1c0-0.1,0-0.2,0.1-0.4
			c0-0.1,0.1-0.2,0.2-0.3c0.1-0.1,0.2-0.2,0.3-0.2c0.1,0,0.2-0.1,0.4-0.1c0.1,0,0.2,0,0.4,0.1s0.2,0.1,0.3,0.2
			c0.1,0.1,0.2,0.2,0.2,0.3c0,0.1,0.1,0.2,0.1,0.4c0,0.1,0,0.3-0.1,0.4c0,0.1-0.1,0.2-0.2,0.3c-0.1,0.1-0.2,0.2-0.3,0.2
			c-0.1,0-0.2,0.1-0.4,0.1c-0.1,0-0.3,0-0.4-0.1c-0.1,0-0.2-0.1-0.3-0.2c-0.1-0.1-0.2-0.2-0.2-0.3
			C369.3,100.4,369.2,100.3,369.2,100.1z"/>
		<path id="XMLID_208_" class="st2" d="M375.9,110c-0.2,0-0.4-0.1-0.5-0.2c-0.1-0.1-0.2-0.3-0.2-0.5c0-0.3,0.1-0.5,0.2-0.6
			c0.1-0.1,0.3-0.2,0.5-0.2h1.3c0.2,0,0.4,0,0.6,0c0.2,0,0.3-0.1,0.5-0.2c0.1-0.1,0.2-0.2,0.3-0.4c0.1-0.2,0.1-0.4,0.1-0.7v-4.1h1.5
			v3.4c0,0.3,0,0.6,0.1,0.8c0,0.2,0.1,0.4,0.3,0.6c0.1,0.2,0.3,0.3,0.5,0.4c0.2,0.1,0.5,0.1,0.8,0.1c0.2,0,0.4,0.1,0.5,0.2
			s0.2,0.3,0.2,0.5c0,0.3-0.1,0.5-0.2,0.6c-0.1,0.1-0.3,0.2-0.5,0.2c-0.2,0-0.4,0-0.6-0.1s-0.4-0.1-0.5-0.2
			c-0.2-0.1-0.3-0.2-0.4-0.3c-0.1-0.1-0.2-0.3-0.3-0.4c-0.1,0.2-0.3,0.4-0.4,0.5s-0.4,0.2-0.6,0.3c-0.2,0.1-0.4,0.1-0.6,0.1
			c-0.2,0-0.4,0-0.6,0H375.9z M377.3,100.1c0-0.1,0-0.2,0.1-0.4s0.1-0.2,0.2-0.3c0.1-0.1,0.2-0.2,0.3-0.2s0.2-0.1,0.4-0.1
			c0.1,0,0.2,0,0.4,0.1c0.1,0,0.2,0.1,0.3,0.2c0.1,0.1,0.2,0.2,0.2,0.3c0,0.1,0.1,0.2,0.1,0.4c0,0.1,0,0.3-0.1,0.4
			c0,0.1-0.1,0.2-0.2,0.3c-0.1,0.1-0.2,0.2-0.3,0.2c-0.1,0-0.2,0.1-0.4,0.1c-0.1,0-0.3,0-0.4-0.1c-0.1,0-0.2-0.1-0.3-0.2
			c-0.1-0.1-0.2-0.2-0.2-0.3S377.3,100.3,377.3,100.1z M379.6,100.1c0-0.1,0-0.2,0.1-0.4c0-0.1,0.1-0.2,0.2-0.3
			c0.1-0.1,0.2-0.2,0.3-0.2c0.1,0,0.2-0.1,0.4-0.1c0.1,0,0.2,0,0.4,0.1s0.2,0.1,0.3,0.2c0.1,0.1,0.2,0.2,0.2,0.3s0.1,0.2,0.1,0.4
			c0,0.1,0,0.3-0.1,0.4s-0.1,0.2-0.2,0.3c-0.1,0.1-0.2,0.2-0.3,0.2c-0.1,0-0.2,0.1-0.4,0.1c-0.1,0-0.3,0-0.4-0.1
			c-0.1,0-0.2-0.1-0.3-0.2c-0.1-0.1-0.2-0.2-0.2-0.3C379.7,100.4,379.6,100.3,379.6,100.1z"/>
		<path id="XMLID_206_" class="st2" d="M382.1,108.5c0.4,0,0.7,0,1,0c0.3,0,0.5-0.1,0.6-0.2c0.2-0.1,0.3-0.2,0.3-0.4
			c0.1-0.2,0.1-0.4,0.1-0.7V104h1.5v2.5c0,0.3,0,0.6,0.1,0.8c0,0.2,0.1,0.4,0.2,0.6c0.1,0.2,0.3,0.3,0.6,0.4s0.6,0.1,1,0.1
			c0.3,0,0.5,0,0.7,0c0.2,0,0.3-0.1,0.5-0.2c0.1-0.1,0.2-0.2,0.3-0.4c0.1-0.2,0.1-0.4,0.1-0.7V104h1.5v2.5c0,0.3,0,0.6,0.1,0.8
			c0,0.2,0.1,0.4,0.2,0.6c0.1,0.2,0.3,0.3,0.5,0.4s0.5,0.1,0.8,0.1h1.4v-5.4h1.5v6.9h-2.7c-0.3,0-0.6,0-0.8-0.1
			c-0.2-0.1-0.4-0.1-0.6-0.2c-0.2-0.1-0.3-0.2-0.4-0.3c-0.1-0.1-0.2-0.3-0.3-0.4c-0.1,0.2-0.3,0.4-0.5,0.6c-0.2,0.1-0.4,0.2-0.6,0.3
			s-0.4,0.1-0.7,0.1c-0.2,0-0.5,0-0.8,0c-0.4,0-0.7,0-1-0.1s-0.5-0.2-0.7-0.3c-0.2-0.1-0.3-0.2-0.5-0.4s-0.2-0.3-0.3-0.4
			c-0.1,0.2-0.3,0.4-0.5,0.6c-0.2,0.1-0.4,0.3-0.6,0.3s-0.5,0.1-0.9,0.2s-0.8,0-1.3,0h-0.2c-0.2,0-0.4-0.1-0.5-0.2
			c-0.1-0.1-0.2-0.3-0.2-0.5c0-0.3,0.1-0.5,0.2-0.6c0.1-0.1,0.3-0.2,0.5-0.2H382.1z"/>
		<path id="XMLID_204_" class="st2" d="M399,97.6V110h-1.5V97.6H399z"/>
	</g>
</g>
</svg>
