<?xml version="1.0" encoding="utf-8"?>
<!-- Generator: Adobe Illustrator 21.0.0, SVG Export Plug-In . SVG Version: 6.00 Build 0)  -->
<svg version="1.1" id="Layer_1" xmlns="http://www.w3.org/2000/svg" xmlns:xlink="http://www.w3.org/1999/xlink" x="0px" y="0px"
	 viewBox="0 0 464 191" style="enable-background:new 0 0 464 191;" xml:space="preserve">
<style type="text/css">
	.st0{fill:none;stroke:#19A6D1;stroke-width:5.5127;stroke-miterlimit:10;}
	.st1{fill:none;stroke:#19A6D1;stroke-width:5.7075;stroke-miterlimit:10;}
	.st2{fill:#19A6D1;}
	.st3{clip-path:url(#SVGID_3_);}
	.st4{fill:#22024F;}
	.st5{fill:#FFFFFF;}
</style>
<g>
	<line class="st0" x1="38.6" y1="96.8" x2="22.4" y2="96.8"/>
	<line class="st0" x1="98.9" y1="96.8" x2="115.1" y2="96.8"/>
	<circle class="st1" cx="68.8" cy="96.8" r="46.3"/>
	<g>
		<g>
			<circle id="SVGID_1_" class="st2" cx="68.8" cy="96.8" r="40.5"/>
		</g>
		<g>
			<defs>
				<circle id="SVGID_2_" cx="68.8" cy="96.8" r="40.5"/>
			</defs>
			<clipPath id="SVGID_3_">
				<use xlink:href="#SVGID_2_"  style="overflow:visible;"/>
			</clipPath>
			<g class="st3">
				<g>
					<g>
						<path class="st4" d="M48,78c3.1,0.1,5.9,0.7,8.6,1.7c1.2,0.4,2.3,0.9,3.3,1.7c0.5,0.4,0.9,0.9,1.4,1.3
							c0.2,0.2,0.5,0.2,0.8,0.2c0.4,0,0.9,0,1.3,0.1c0.5,0,1.1,0.1,1.6,0.1c0.8,0,1.5,0.3,2,0.9c0.4,0.5,0.9,0.6,1.5,0.7
							c0.9,0.1,1.5-0.2,2.1-0.8c0.6-0.7,1.4-0.9,2.3-0.7c0.3,0,0.7-0.1,1.1-0.1s0.9,0,1.3,0c0.2,0,0.6,0,0.7-0.1
							c1.6-1.8,3.6-2.9,5.9-3.5c2.6-0.7,5.2-1.4,8-1.4c2,0,3.6,0.8,5,2.2c1.4,1.4,1.6,3.1,1.3,5c-0.3,1.9-1.3,3.4-2.5,4.9
							c-0.9,1-1.5,2.1-1.8,3.4c-0.2,0.9-0.6,1.7-0.9,2.5c-0.2,0.6-0.2,1.1,0.3,1.6c0.8,0.8,1.4,1.9,2.6,2.3c0.3,0.1,0.6,0.1,0.8-0.2
							c1.5-2.5,4.2-2.4,6-1c1.4,1.1,2.4,2.5,3,4.2c0.4,1,0.7,2.1,0.8,3.2c0.1,1.3-0.3,2.5-1.1,3.5c-0.4,0.5-0.9,1-1.3,1.5
							c-0.3,0.4-0.5,0.9-0.5,1.3c-0.3,5.6-0.6,11.2-0.9,16.8c-0.1,1.3-0.1,2.6-0.5,3.9c-0.2,0.8-0.8,1.5-1.4,2
							c-1.6,1.4-3.6,2.1-5.8,1.9c-1.7-0.2-3-1.6-2.9-3.7c0.1-4.1,0.2-8.1,0.4-12.2c0.1-2.9,0.3-5.8,0.3-8.7c0-2.1-0.6-4-2.5-5.3
							c-0.3-0.2-0.7-0.3-0.9-0.2c-0.4,0.2-0.8,0.7-0.8,1.1c0,2-0.8,3.8-2.1,5.3c-0.2,0.2-0.4,0.5-0.5,0.7c-0.8,2.4-3.7,2.9-5.5,2.4
							c-1.4-0.3-2.3-1.2-3.3-2.2c-0.4-0.4-1-0.7-1.5-1c-0.8-0.6-1.6-1.2-2.3-1.8c-0.8-0.7-1.3-1.7-2.4-1.9c-0.2-0.1-0.5-0.1-0.7,0
							c-0.7,0.3-1.4,0.7-1.9,1.4c-0.9,1.1-1.9,2.1-3.3,2.7c-0.6,0.3-1.1,0.9-1.6,1.4c-1.9,2-5.1,2.2-7,0.6c-0.5-0.4-0.8-1.1-1.2-1.7
							c-0.2-0.3-0.3-0.6-0.5-0.8c-1.3-1.4-1.8-3.1-1.9-4.9c0-0.7-0.4-1-0.9-1.2c-0.3-0.1-0.7,0.1-1,0.3c-1.1,0.7-1.5,1.9-2,3
							c-0.6,1.3-0.3,2.6-0.3,4c0.1,5.3,0.3,10.7,0.5,16c0,1.2,0,2.4,0,3.6c0.1,1.5-1.3,3-2.9,3.1c-2.7,0.2-5-0.8-6.7-3
							c-0.4-0.5-0.6-1.3-0.7-2c-0.2-4.3-0.4-8.6-0.6-13c-0.1-2.4-0.3-4.8-0.6-7.1c-0.1-0.5-0.6-1-0.9-1.4c-1-1.1-1.8-2.3-1.8-3.8
							c0-1,0.2-2.1,0.4-3c0.5-1.9,1.5-3.4,3-4.7c1.4-1.2,3.1-1.8,5-0.6c0.5,0.3,0.8,0.8,1.2,1.3c0.3,0.4,0.5,0.5,1,0.3
							c1.3-0.4,2-1.6,2.8-2.6c0.3-0.4,0.2-1.2,0.1-1.7c-0.8-2.5-1.8-4.9-3.6-7c-1.4-1.7-2-3.8-1.4-6.2c0.7-2.5,2.8-3.9,5.2-4.3
							C47.1,78,47.7,78,48,78z M97.2,104.5c0.1,0,0.1-0.1,0.2-0.1c0.2,0.2,0.3,0.3,0.5,0.5c0.7,0.7,1.4,1.5,2.3,2.1
							c0.5,0.3,1.2,0.5,1.8,0.4c0.7-0.2,0.7-1,0.6-1.6c-0.3-2.2-1-4.1-2.7-5.5c-1.4-1.2-2.8-0.8-3.4,0.9c0,0.1,0,0.1-0.1,0.2
							c-0.3,0.8-1.1,1.1-1.9,0.9c-0.5-0.2-1-0.4-1.4-0.6c-1-0.4-1.9-1.1-2.5-2c-0.3-0.5-0.8-0.9-1.3-1.2c-1-0.7-2.1-0.9-3.3-0.4
							c-1.6,0.8-2.4,2-2.8,3.8c-0.3,1.6,0.2,2.5,1.7,3c0.2,0,0.3,0.3,0.4,0.4c-0.1,0.1-0.3,0.3-0.4,0.3c-0.4,0-0.8-0.1-1-0.3
							c-0.9-0.6-1.5-1.5-1.4-2.6c0-0.8,0.2-1.5,0.4-2.2c0.4-1.2,1.1-2.2,2.2-2.9c1.1-0.7,2.3-1.2,3.6-0.6c0,0,0.1,0,0.2-0.1
							c0-0.5-0.1-0.9-0.1-1.5c-0.8,0.3-1.2-0.1-1.6-0.7s-0.1-1.1,0.2-1.6c0.2-0.3,0.1-0.8,0.6-0.7c0.1,0,0.1,0.7,0,1.1
							c-0.2,0.5-0.3,0.9,0.2,1.2c0.5,0.3,0.9,0.1,1.2-0.3c0.3-0.4,0.5-1,0.7-1.5c0.4-0.9,0.7-1.9,1.2-2.7c0.4-0.7,1-1.4,1.5-2
							c0.7-0.9,1.2-1.8,1.5-2.9c0.6-2.5-1-4.8-3.5-5c-1.4-0.1-2.8,0-4.1,0.2c-2.7,0.4-5.2,1.1-7.5,2.5c-1.8,1.1-2.4,2.8-1.3,4.4
							c0.3,0.5,0.8,0.9,1.3,1.3c1,0.9,1.3,1.8,0.8,2.9c-0.5,1-1.2,1.9-1.8,2.8C78.1,94.6,78,94.8,78,95c0,0.1,0.3,0.2,0.5,0.2
							c0.3,0.1,0.7,0.1,1,0.1c1.1,0.2,2,1.6,1.7,2.6c-0.4,1.5-1.3,2.6-2.6,3.2c-1.8,0.9-3.7,1-5.7,0.9c-0.8,0-1.5-0.1-2.3-0.1
							c-0.3,0-0.7,0.2-1,0.4c-0.1,0.1-0.2,0.3-0.2,0.5c0,1.3,0,2.6,0,3.9c0,0.5,0,0.9,0.6,1.1c1.1,0.2,1.8,0.9,2.4,1.7
							c0.6,0.7,1.2,1.5,2,1.9c1.1,0.6,2.1,1.2,2.9,2.1c0.7,0.8,1.5,1.1,2.5,1.1c1.5,0,2.1-0.4,2.7-1.7c0.2-0.4,0.4-0.8,0.7-1.1
							c1.3-1.2,1.5-2.8,1.5-4.4c0-0.6-0.2-1-0.9-1.1c-0.5-0.1-0.9-0.4-1.1-1.1c0.3,0.1,0.5,0,0.6,0.1c0.6,0.5,1.4,0.4,2.1,0.4
							c0.5,0,0.7-0.2,0.5-0.7c-0.1-0.4-0.4-0.9-0.3-1.4c0.1-0.9,0.2-1.8,0.5-2.7c0.1-0.4,0.5-0.8,0.8-1.2c0.1,0,0.1,0.1,0.2,0.1
							c-0.1,0.3-0.2,0.6-0.3,0.8c-0.4,1.1-0.9,2.2-0.4,3.5c0.2,0.5,0.4,0.7,0.9,0.6c0.4,0,0.8-0.1,1.1,0.1c1.9,0.7,3.2,2,3.8,4.1
							c0.1,0.2,0.2,0.4,0.3,0.7c0.1,0,0.2,0,0.3,0c0.4-1.4,0.8-2.7,1.2-4.1c0.1,0,0.2,0,0.3,0.1c0,0.3,0.1,0.5,0,0.8
							c-0.1,0.4-0.4,0.8-0.5,1.2c-0.2,0.9-0.4,1.9-0.5,2.8c-0.2,1.5-0.3,3.1-0.4,4.6c-0.1,3.6-0.2,7.1-0.3,10.7
							c-0.1,2.6-0.1,5.1-0.2,7.7c0,1,0.5,1.5,1.5,1.6c1.4,0.1,2.5-0.5,3.6-1.1c1.1-0.7,1.5-1.7,1.5-3c0-1.5,0-3,0.1-4.5
							c0.3-4.7,0.6-9.5,0.8-14.2c0.1-0.9,0.2-1.8,1-2.4c0.4-0.3,0.6-0.8,0.9-1.1c-0.9-0.6-1.7-1.1-2.5-1.8
							C98.1,106.3,97.6,105.4,97.2,104.5z M54.6,105.3c0,0.1,0.1,0.1,0.1,0.2c-0.2,0.5-0.5,0.8-1.1,0.8c-0.4,0-0.7,0.2-0.7,0.6
							c-0.1,1.7,0.1,3.3,1.3,4.7c0.4,0.5,0.8,1.1,1.1,1.7c0.3,0.7,0.8,1.1,1.6,1.2c1.5,0.2,2.8-0.2,3.8-1.4c0.4-0.5,1-1,1.6-1.3
							c1.1-0.5,2-1.2,2.7-2.1c0.7-0.8,1.4-1.8,2.7-2c0.2,0,0.6-0.6,0.6-0.9c0.1-1.3,0-2.5,0-3.8c0-0.9-0.6-1.3-1.4-1.2
							c-1.2,0.1-2.4,0.1-3.6,0.2c-0.5,0-0.9-0.1-1.4-0.2c-2-0.2-3.6-0.9-4.8-2.6c-0.6-0.9-1.1-1.9-0.4-3c0.5-0.8,1.2-1.2,2.2-1.2
							c0.2,0,0.5-0.1,0.7-0.2c-0.1-0.2-0.1-0.5-0.3-0.7c-0.5-0.7-1-1.4-1.4-2.2c-0.8-1.6-0.9-2.1,0.4-3.4c0.4-0.4,0.9-0.8,1.3-1.3
							c1-1.3,1.1-2.6-0.2-3.7c-1.1-0.9-2.3-1.7-3.6-2.1c-1.6-0.6-3.4-0.9-5.1-1.3c-1.4-0.3-2.9-0.4-4.3-0.1
							c-2.1,0.4-3.6,2.4-3.2,4.4c0.2,1.4,0.9,2.6,1.8,3.6c1.2,1.5,2.4,2.9,2.7,4.9c0.1,0.4,0.3,0.8,0.6,1.1c0.3,0.4,0.7,0.6,1.2,0.3
							c0.5-0.3,0.5-0.6,0.3-1.1c-0.1-0.3-0.2-0.6-0.2-1c0.5,0.1,1.3,1.2,1.2,1.7c-0.1,0.3-0.3,0.7-0.5,0.9c-0.4,0.2-0.8,0.3-1.3,0.5
							c0,0.4-0.1,0.9-0.1,1.4c0.2,0,0.3,0,0.4,0c0.6,0,1.3-0.2,1.9-0.1c2.6,0.6,4.4,3.1,4.3,5.9c-0.1,1.9-1.7,3-3.4,2.4
							c-0.4,0.4-0.1,0.6,0.2,0.6c0.7,0,1.3-0.1,2-0.2C54.2,105.5,54.4,105.4,54.6,105.3z M51.8,104.9c1.9-0.1,2.5-0.9,2.5-2
							c0.1-1.4-0.3-2.7-1.2-3.7c-1.8-2-4.3-2-5.9,0.1c-1,1.4-2.4,2.2-3.9,2.7c-1.3,0.4-1.9,0.1-2.3-1.2c-0.3-0.9-1.1-1.4-1.9-1.2
							c-0.5,0.1-1,0.4-1.4,0.7c-1.8,1.6-2.7,3.7-2.7,6.2c0,0.8,0.5,1.1,1.2,1c1.1-0.2,1.9-0.9,2.7-1.7c0.3-0.4,0.6-0.8,1-1.1
							c0.1,0.7-0.4,1.2-0.8,1.7c-0.4,0.5-0.9,1-1.4,1.3s-1.1,0.5-1.8,0.8c0.2,0.2,0.3,0.4,0.5,0.6c0.9,0.9,1.6,1.8,1.6,3.2
							c0,0.6,0.1,1.2,0.1,1.8c0.3,5.6,0.6,11.2,0.9,16.8c0,0.8-0.1,1.6,0.6,2.2c1.2,1.2,2.6,1.9,4.3,1.9c1.1,0,1.6-0.4,1.6-1.5
							c0-0.9,0-1.8,0-2.8c-0.1-4.3-0.2-8.6-0.3-13c0-1.7-0.1-3.5-0.3-5.2c-0.1-1.4-0.5-2.7-0.7-4.1c-0.1-0.4-0.2-0.8-0.3-1.2
							c-0.1-0.5-0.2-0.9-0.3-1.4c0.3,0.1,0.4,0.2,0.4,0.3c0.3,0.9,0.5,1.7,0.7,2.6c0.1,0.3,0.2,0.6,0.3,0.9c0.1,0,0.2,0,0.3,0
							c0.1-0.2,0.2-0.4,0.3-0.7c0.5-1.5,1.4-2.7,2.7-3.5c0.6-0.4,1.3-0.7,2.1-0.6c0.6,0.1,0.9-0.2,1-0.8c0.4-1.5,0-2.8-0.8-4.1
							c-0.1-0.1-0.2-0.3-0.4-0.6c0.3,0.1,0.4,0.1,0.5,0.2c0.3,0.4,0.6,0.8,0.8,1.2c0.5,1.1,1,2.1,0.6,3.4
							C51.8,104.4,51.8,104.7,51.8,104.9z M71.1,101.1c0.7,0.1,1.3,0.2,2,0.2c1,0.1,1.4-0.1,1.8-1.1c0.3-0.8,0.5-1.5,0.8-2.3
							c0.5-1.3,0.7-2.6,1.5-3.7c0.6-0.7,1.1-1.5,1.6-2.3c0.8-1.1,0.5-2.5-0.6-3.4c-0.6-0.5-1.2-1.1-1.5-1.8
							c-0.3-0.9-0.9-1.3-1.6-1.7c-0.5-0.3-0.8-0.1-1,0.4c-0.1,0.3-0.4,0.5-0.6,0.8c-0.2-0.2-0.4-0.4-0.5-0.7
							c-0.2-0.6-0.6-0.7-1.1-0.3c-0.3,0.3-0.4,0.7-0.6,1c-0.2,0.4-0.4,0.6-0.9,0.5c-1.2-0.2-2.3-0.3-3.5,0c-0.2,0.1-0.5-0.1-0.8-0.3
							c0,0-0.1-0.2-0.1-0.4c-0.2-0.5-0.5-1-1.1-1c-0.5-0.1-0.5,0.5-0.7,0.8c-0.1,0.1-0.3,0.3-0.4,0.3c-0.1,0-0.3-0.1-0.4-0.2
							C63.1,85.6,63,85,62.8,85c-0.3-0.1-0.7,0.3-1,0.5c-0.1,0.1-0.3,0.1-0.4,0.2C61.2,85.8,61,86,61,86.2c-0.3,1.1-1,1.9-1.9,2.6
							c-0.7,0.5-1,1.2-0.8,2.1c0.2,1,0.7,1.8,1.4,2.5c0.9,1.1,1.6,2.3,2,3.7c0.3,1.1,0.7,2.1,1,3.2c0.3,0.8,1,1.1,1.8,1.1
							c0.8-0.1,1.7-0.1,2.5-0.2c0.5,0,0.9,0.1,1.3,0.5c0.1,0.2,0.6,0.2,0.7,0.1C69.6,101.2,70.3,101.1,71.1,101.1z M77.4,99.2
							c0.3-0.1,0.6-0.1,0.7-0.3c0.3-0.3,0.6-0.7,0.8-1c0.2-0.3,0.3-0.6-0.1-0.8c-0.4-0.2-0.8-0.1-0.9,0.3
							C77.7,97.9,77.6,98.4,77.4,99.2z M59.8,99.1c0.1-0.1,0.1-0.1,0.2-0.2c-0.2-0.6-0.4-1.1-0.6-1.7c-0.1-0.2-0.5-0.2-0.7-0.3
							c0,0.3-0.2,0.6-0.1,0.8c0.1,0.3,0.4,0.6,0.7,0.9C59.4,98.9,59.6,99,59.8,99.1z"/>
						<path class="st4" d="M76,103.5c-1.1,0.1-2,0.2-2.9,0.3c0-0.1,0-0.1,0-0.2c1.3-0.8,7.2-1.3,7.9,0c-0.1,0.1-0.2,0.1-0.2,0.2
							c-1,0.4-1.4,1-0.9,2c0.9,1.8-0.3,3-1,4.4c-0.1,0.1-0.5,0.3-0.6,0.2c-1.2-0.7-2.5-1.4-3.2-2.7c-0.6-1.1-0.5-2.1,0.4-3.2
							C75.6,104.1,75.7,103.9,76,103.5z M77.6,105.2c-0.2,0.1-0.4,0.1-0.4,0.1c-0.2,0.3-0.6,0.7-0.5,1c0.1,0.4,0.5,0.8,0.8,1.2
							c0.2-0.1,0.5-0.3,0.5-0.4C78,106.4,77.8,105.9,77.6,105.2z"/>
						<path class="st4" d="M64.8,103.7c-1.1-0.1-2.1-0.1-3.2-0.2c0.1,0.2,0.2,0.4,0.3,0.5c0.3,0.5,0.6,0.9,0.9,1.4
							c0.3,0.5,0.2,1.1-0.1,1.6c-0.7,1.3-1.7,2.3-3,3c-0.7,0.4-1.1,0.2-1.4-0.6c-0.1-0.4-0.3-0.9-0.5-1.3c-0.5-0.6-0.4-1.3-0.2-2
							c0.1-0.5,0.2-1,0.2-1.5s-0.2-0.9-0.8-1c-0.2,0-0.4-0.2-0.6-0.3C57.2,102.4,63.4,102.4,64.8,103.7z M59.6,105.2
							c-0.1,0.5-0.2,0.9-0.2,1.4c0,0.3,0.1,0.6,0.1,1c0.3-0.2,0.5-0.3,0.8-0.5c0.1,0,0.1-0.1,0.1-0.2c0.1-0.3,0.3-0.6,0.3-0.9
							C60.6,105.5,60.3,105.2,59.6,105.2z"/>
					</g>
					<g>
						<path class="st4" d="M71.7,87.6c-0.1,1.1-1.5,1.7-3.3,1.6c-1.8-0.2-2.9-0.6-2.7-1.5C67.7,88.9,69.7,88.9,71.7,87.6z"/>
						<path class="st4" d="M64.8,90.3c0.3,0.4,0.5,0.6,0.7,0.9c0,0-0.4,0.4-0.4,0.3c-0.2-0.2-0.5-0.5-0.7-0.8
							C64.4,90.8,64.6,90.6,64.8,90.3z"/>
						<path class="st4" d="M73.2,90.9c-0.4,0.3-0.7,0.5-0.9,0.6c-0.1,0-0.3-0.2-0.4-0.4c0.2-0.2,0.4-0.5,0.7-0.6
							C72.6,90.5,72.8,90.7,73.2,90.9z"/>
						<path class="st4" d="M65.6,98.1c-0.3-0.4-0.6-0.6-0.7-0.8c0-0.1,0.2-0.3,0.4-0.5c0.2,0.2,0.5,0.4,0.6,0.6
							C65.9,97.5,65.7,97.7,65.6,98.1z"/>
						<path class="st4" d="M65.3,93.6c0.2,0.3,0.4,0.5,0.5,0.8c0,0-0.4,0.4-0.4,0.3c-0.2-0.2-0.4-0.4-0.5-0.6
							c-0.1-0.1,0.1-0.3,0.2-0.5C65.1,93.6,65.2,93.6,65.3,93.6z"/>
						<path class="st4" d="M72,95c-0.2-0.4-0.4-0.6-0.4-0.6c0.2-0.3,0.4-0.5,0.6-0.7c0.1,0.1,0.4,0.3,0.4,0.4
							C72.5,94.4,72.3,94.6,72,95z"/>
						<path class="st4" d="M72.8,97.3c-0.4,0.3-0.6,0.5-0.8,0.6c-0.1,0-0.3-0.2-0.4-0.4c0.2-0.2,0.4-0.5,0.6-0.6
							C72.2,96.8,72.4,97.1,72.8,97.3z"/>
						<path class="st4" d="M71.5,100.6c-0.3-0.3-0.5-0.6-0.5-0.7c0.1-0.2,0.3-0.4,0.6-0.5c0.1,0,0.4,0.3,0.4,0.4
							C72,100,71.8,100.2,71.5,100.6z"/>
						<path class="st4" d="M66.5,99.9c-0.3,0.2-0.5,0.4-0.7,0.4c-0.1,0-0.3-0.3-0.4-0.4c0.2-0.2,0.3-0.4,0.5-0.4
							C66,99.4,66.2,99.6,66.5,99.9z"/>
					</g>
				</g>
				<g>
					<path class="st5" d="M97.2,104.5c0.4,0.9,1,1.8,1.8,2.4s1.6,1.1,2.5,1.8c-0.2,0.3-0.5,0.8-0.9,1.1c-0.8,0.7-0.9,1.5-1,2.4
						c-0.3,4.7-0.6,9.5-0.8,14.2c-0.1,1.5-0.1,3-0.1,4.5c0,1.3-0.4,2.3-1.5,3s-2.2,1.2-3.6,1.1c-1-0.1-1.5-0.6-1.5-1.6
						c0.1-2.6,0.1-5.1,0.2-7.7c0.1-3.6,0.2-7.1,0.3-10.7c0.1-1.5,0.2-3.1,0.4-4.6c0.1-1,0.3-1.9,0.5-2.8c0.1-0.4,0.3-0.8,0.5-1.2
						c0.1-0.2,0-0.5,0-0.8c-0.1,0-0.2,0-0.3-0.1c-0.4,1.4-0.8,2.7-1.2,4.1c-0.1,0-0.2,0-0.3,0c-0.1-0.2-0.2-0.4-0.3-0.7
						c-0.5-2-1.9-3.3-3.8-4.1c-0.3-0.1-0.7-0.1-1.1-0.1c-0.5,0-0.7-0.2-0.9-0.6c-0.4-1.2,0-2.3,0.4-3.5c0.1-0.3,0.2-0.6,0.3-0.8
						c-0.1,0-0.1-0.1-0.2-0.1c-0.3,0.4-0.7,0.7-0.8,1.2c-0.3,0.9-0.4,1.8-0.5,2.7c0,0.4,0.2,0.9,0.3,1.4c0.2,0.5-0.1,0.8-0.5,0.7
						c-0.7,0-1.5,0.1-2.1-0.4c-0.1-0.1-0.3-0.1-0.6-0.1c0.2,0.7,0.6,1,1.1,1.1c0.7,0.1,0.9,0.5,0.9,1.1c0,1.6-0.2,3.2-1.5,4.4
						c-0.3,0.3-0.5,0.7-0.7,1.1c-0.6,1.3-1.2,1.7-2.7,1.7c-1,0-1.9-0.4-2.5-1.1c-0.8-0.9-1.8-1.6-2.9-2.1c-0.8-0.4-1.4-1.2-2-1.9
						c-0.7-0.8-1.4-1.5-2.4-1.7c-0.5-0.1-0.6-0.6-0.6-1.1c0-1.3,0-2.6,0-3.9c0-0.2,0.1-0.4,0.2-0.5c0.3-0.2,0.6-0.4,1-0.4
						c0.8,0,1.5,0,2.3,0.1c2,0.1,3.9,0,5.7-0.9c1.3-0.7,2.3-1.7,2.6-3.2c0.3-1.1-0.6-2.4-1.7-2.6c-0.3-0.1-0.7,0-1-0.1
						c-0.2,0-0.5-0.1-0.5-0.2c0-0.2,0.1-0.4,0.2-0.6c0.6-0.9,1.3-1.8,1.8-2.8c0.6-1.2,0.2-2.1-0.8-2.9c-0.5-0.4-0.9-0.8-1.3-1.3
						c-1.1-1.6-0.6-3.3,1.3-4.4c2.3-1.4,4.9-2.1,7.5-2.5c1.4-0.2,2.7-0.3,4.1-0.2c2.5,0.1,4.1,2.5,3.5,5c-0.3,1.1-0.8,2-1.5,2.9
						c-0.5,0.7-1.1,1.3-1.5,2c-0.5,0.9-0.8,1.8-1.2,2.7c-0.2,0.5-0.4,1-0.7,1.5c-0.3,0.4-0.7,0.6-1.2,0.3c-0.5-0.3-0.4-0.7-0.2-1.2
						c0.1-0.3,0.1-1,0-1.1c-0.5-0.2-0.5,0.4-0.6,0.7c-0.3,0.5-0.6,1-0.2,1.6s0.8,1,1.6,0.7c0.1,0.6,0.1,1,0.1,1.5
						c-0.1,0-0.2,0.1-0.2,0.1c-1.3-0.6-2.5-0.1-3.6,0.6s-1.9,1.7-2.2,2.9c-0.2,0.7-0.4,1.5-0.4,2.2c-0.1,1.1,0.5,2,1.4,2.6
						c0.3,0.2,0.7,0.2,1,0.3c0.1,0,0.3-0.2,0.4-0.3c-0.1-0.1-0.2-0.3-0.4-0.4c-1.5-0.5-2-1.4-1.7-3c0.3-1.7,1.2-3,2.8-3.8
						c1.2-0.6,2.3-0.3,3.3,0.4c0.5,0.3,0.9,0.7,1.3,1.2c0.6,0.9,1.5,1.5,2.5,2c0.5,0.2,0.9,0.4,1.4,0.6c0.8,0.3,1.6-0.1,1.9-0.9
						c0-0.1,0-0.1,0.1-0.2c0.6-1.7,2-2,3.4-0.9c1.7,1.5,2.5,3.4,2.7,5.5c0.1,0.6,0.1,1.4-0.6,1.6c-0.5,0.1-1.3-0.1-1.8-0.4
						c-0.8-0.6-1.5-1.4-2.3-2.1c-0.2-0.2-0.3-0.3-0.5-0.5C97.3,104.4,97.2,104.5,97.2,104.5z M76,103.5c-0.3,0.4-0.4,0.6-0.6,0.9
						c-0.9,1.1-1,2.1-0.4,3.2c0.7,1.3,2,2,3.2,2.7c0.1,0.1,0.6-0.1,0.6-0.2c0.7-1.4,1.9-2.6,1-4.4c-0.5-1-0.1-1.5,0.9-2
						c0.1,0,0.2-0.1,0.2-0.2c-0.6-1.2-6.6-0.8-7.9,0c0,0.1,0,0.1,0,0.2C74,103.7,74.9,103.6,76,103.5z"/>
					<path class="st5" d="M54.6,105.3c-0.2,0.1-0.4,0.2-0.6,0.2c-0.7,0.1-1.3,0.2-2,0.2c-0.3,0-0.6-0.3-0.2-0.6
						c1.7,0.6,3.3-0.6,3.4-2.4c0.1-2.8-1.7-5.4-4.3-5.9c-0.6-0.1-1.3,0-1.9,0.1c-0.1,0-0.2,0-0.4,0c0-0.5,0.1-1,0.1-1.4
						c0.5-0.2,0.9-0.2,1.3-0.5c0.3-0.2,0.5-0.5,0.5-0.9c0.1-0.4-0.7-1.5-1.2-1.7c0.1,0.4,0.1,0.7,0.2,1c0.2,0.5,0.2,0.8-0.3,1.1
						c-0.5,0.3-0.9,0.1-1.2-0.3c-0.3-0.3-0.5-0.7-0.6-1.1c-0.3-2-1.5-3.5-2.7-4.9c-0.9-1.1-1.5-2.2-1.8-3.6c-0.4-2,1.1-4,3.2-4.4
						c1.5-0.3,2.9-0.2,4.3,0.1c1.7,0.3,3.5,0.6,5.1,1.3c1.3,0.5,2.5,1.3,3.6,2.1c1.3,1.1,1.1,2.4,0.2,3.7c-0.4,0.5-0.9,0.9-1.3,1.3
						c-1,1.2-1,1.7-0.1,3.3c0.4,0.8,1,1.4,1.4,2.2c0.1,0.2,0.2,0.4,0.3,0.7c-0.2,0.1-0.5,0.2-0.7,0.2c-1,0-1.7,0.4-2.2,1.2
						c-0.7,1.1-0.3,2.1,0.4,3c1.1,1.7,2.8,2.4,4.8,2.6c0.5,0,0.9,0.2,1.4,0.2c1.2,0,2.4-0.1,3.6-0.2c0.8-0.1,1.4,0.3,1.4,1.2
						c0,1.3,0.1,2.5,0,3.8c0,0.3-0.3,0.8-0.6,0.9c-1.2,0.2-1.9,1.2-2.7,2c-0.8,0.9-1.6,1.7-2.7,2.1c-0.6,0.3-1.1,0.8-1.6,1.3
						c-1,1.2-2.3,1.7-3.8,1.4c-0.8-0.1-1.2-0.5-1.6-1.2c-0.3-0.6-0.6-1.2-1.1-1.7c-1.2-1.4-1.4-3-1.3-4.7c0-0.4,0.3-0.5,0.7-0.6
						c0.6,0,0.9-0.4,1.1-0.8C54.6,105.4,54.6,105.4,54.6,105.3z M64.8,103.7c-1.4-1.3-7.5-1.3-8.4-0.2c0.2,0.1,0.4,0.2,0.6,0.3
						c0.6,0.1,0.8,0.5,0.8,1s-0.1,1-0.2,1.5c-0.2,0.7-0.2,1.3,0.2,2c0.3,0.4,0.4,0.8,0.5,1.3c0.3,0.8,0.7,1,1.4,0.6
						c1.3-0.7,2.3-1.6,3-3c0.3-0.6,0.4-1.1,0.1-1.6c-0.2-0.5-0.6-1-0.9-1.4c-0.1-0.2-0.2-0.3-0.3-0.5
						C62.6,103.6,63.7,103.7,64.8,103.7z"/>
					<path class="st5" d="M51.8,104.9c0-0.2-0.1-0.5,0-0.7c0.5-1.2,0-2.3-0.6-3.4c-0.2-0.4-0.6-0.8-0.8-1.2
						c-0.1-0.1-0.2-0.1-0.5-0.2c0.2,0.3,0.3,0.4,0.4,0.6c0.8,1.3,1.2,2.6,0.8,4.1c-0.1,0.5-0.5,0.9-1,0.8c-0.8-0.2-1.4,0.2-2.1,0.6
						c-1.3,0.8-2.2,2-2.7,3.5c-0.1,0.2-0.2,0.4-0.3,0.7c-0.1,0-0.2,0-0.3,0c-0.1-0.3-0.2-0.6-0.3-0.9c-0.2-0.9-0.5-1.7-0.7-2.6
						c0-0.1-0.2-0.3-0.4-0.3c0.1,0.5,0.2,0.9,0.3,1.4c0.1,0.4,0.2,0.8,0.3,1.2c0.3,1.4,0.6,2.7,0.7,4.1c0.2,1.7,0.3,3.4,0.3,5.2
						c0.1,4.3,0.2,8.6,0.3,13c0,0.9,0,1.8,0,2.8c0,1.1-0.5,1.5-1.6,1.5c-1.7,0-3.1-0.7-4.3-1.9c-0.6-0.6-0.5-1.5-0.6-2.2
						c-0.3-5.6-0.6-11.2-0.9-16.8c0-0.6-0.1-1.2-0.1-1.8c0.1-1.4-0.6-2.3-1.6-3.2c-0.2-0.2-0.3-0.3-0.5-0.6c0.7-0.3,1.3-0.5,1.8-0.8
						c0.5-0.4,1-0.8,1.4-1.3s0.9-0.9,0.8-1.7c-0.3,0.4-0.6,0.8-1,1.1c-0.7,0.8-1.6,1.5-2.7,1.7c-0.7,0.2-1.2-0.2-1.2-1
						c0-2.4,0.9-4.5,2.7-6.2c0.4-0.4,0.9-0.6,1.4-0.7c0.9-0.2,1.6,0.3,1.9,1.2c0.4,1.3,1,1.6,2.3,1.2c1.6-0.5,2.9-1.3,3.9-2.7
						c1.6-2.1,4.1-2.1,5.9-0.1c0.9,1.1,1.3,2.3,1.2,3.7C54.3,104,53.7,104.8,51.8,104.9z"/>
					<path class="st5" d="M71.1,101.1c-0.8-0.1-1.5,0-2.2,0.6c-0.1,0.1-0.6,0-0.7-0.1c-0.4-0.4-0.8-0.5-1.3-0.5
						c-0.8,0.1-1.7,0.1-2.5,0.2c-0.8,0.1-1.5-0.3-1.8-1.1c-0.4-1.1-0.8-2.1-1-3.2c-0.3-1.4-1.1-2.6-2-3.7c-0.6-0.7-1.1-1.5-1.4-2.5
						c-0.2-0.9,0.1-1.6,0.8-2.1c0.9-0.7,1.6-1.5,1.9-2.6c0.1-0.2,0.3-0.3,0.4-0.5c0.1-0.1,0.3-0.1,0.4-0.2c0.4-0.2,0.7-0.5,1-0.5
						c0.2,0,0.4,0.6,0.6,0.9c0.1,0.1,0.3,0.3,0.4,0.2c0.1,0,0.3-0.2,0.4-0.3c0.2-0.4,0.2-0.9,0.7-0.8c0.6,0.1,0.9,0.5,1.1,1
						c0.1,0.2,0.1,0.4,0.2,0.5c0.2,0.1,0.5,0.3,0.8,0.3c1.2-0.3,2.3-0.2,3.5,0c0.5,0.1,0.7-0.1,0.9-0.5c0.2-0.4,0.3-0.7,0.6-1
						c0.4-0.4,0.8-0.3,1.1,0.3c0.1,0.3,0.4,0.5,0.5,0.7c0.2-0.3,0.5-0.5,0.6-0.8c0.2-0.5,0.5-0.7,1-0.4c0.7,0.4,1.3,0.8,1.6,1.7
						c0.2,0.7,0.9,1.3,1.5,1.8c1,0.9,1.4,2.3,0.6,3.4c-0.5,0.8-1.1,1.5-1.6,2.3c-0.9,1.1-1.1,2.5-1.5,3.7c-0.3,0.8-0.5,1.5-0.8,2.3
						c-0.4,0.9-0.8,1.2-1.8,1.1C72.5,101.3,71.8,101.2,71.1,101.1z M71.7,87.6c-2,1.3-4,1.3-6,0.1c-0.2,0.9,1,1.3,2.7,1.5
						C70.2,89.3,71.7,88.7,71.7,87.6z M64.8,90.3c-0.2,0.3-0.4,0.5-0.4,0.5c0.2,0.3,0.4,0.5,0.7,0.8l0.4-0.3
						C65.3,90.9,65.1,90.7,64.8,90.3z M73.2,90.9c-0.4-0.2-0.6-0.4-0.7-0.4c-0.3,0.1-0.5,0.4-0.7,0.6c0.1,0.1,0.3,0.4,0.4,0.4
						C72.6,91.4,72.8,91.2,73.2,90.9z M65.6,98.1c0.2-0.4,0.4-0.6,0.3-0.7c-0.2-0.2-0.4-0.4-0.6-0.6c-0.1,0.2-0.4,0.4-0.4,0.5
						C65,97.5,65.2,97.7,65.6,98.1z M65.3,93.6c-0.1,0-0.2,0-0.2,0c-0.1,0.2-0.3,0.4-0.2,0.5c0.1,0.2,0.3,0.4,0.5,0.6l0.4-0.3
						C65.6,94.1,65.4,93.9,65.3,93.6z M72,95c0.3-0.4,0.5-0.6,0.6-0.9c0-0.1-0.2-0.3-0.4-0.4c-0.2,0.2-0.5,0.4-0.6,0.7
						C71.6,94.4,71.8,94.7,72,95z M72.8,97.3c-0.3-0.2-0.6-0.4-0.6-0.4c-0.2,0.2-0.4,0.4-0.6,0.6c0.1,0.1,0.3,0.4,0.4,0.4
						C72.2,97.7,72.4,97.5,72.8,97.3z M71.5,100.6c0.2-0.3,0.5-0.5,0.5-0.7c0-0.1-0.3-0.4-0.4-0.4c-0.2,0.1-0.5,0.3-0.6,0.5
						C71,100,71.3,100.2,71.5,100.6z M66.5,99.9c-0.3-0.2-0.5-0.5-0.6-0.4c-0.2,0.1-0.4,0.3-0.5,0.4c0.1,0.1,0.3,0.4,0.4,0.4
						C66,100.2,66.2,100.1,66.5,99.9z"/>
					<path class="st5" d="M77.4,99.2c0.2-0.7,0.3-1.3,0.6-1.8c0.2-0.4,0.5-0.5,0.9-0.3s0.3,0.5,0.1,0.8c-0.3,0.3-0.5,0.7-0.8,1
						C77.9,99,77.7,99.1,77.4,99.2z"/>
					<path class="st5" d="M59.8,99.1c-0.2-0.1-0.5-0.2-0.6-0.4c-0.3-0.3-0.5-0.6-0.7-0.9c-0.1-0.2,0.1-0.5,0.1-0.8
						c0.3,0.1,0.6,0.1,0.7,0.3c0.3,0.5,0.4,1.1,0.6,1.7C60,99,59.9,99.1,59.8,99.1z"/>
					<path class="st5" d="M77.6,105.2c0.2,0.7,0.3,1.3,0.4,1.9c0,0.1-0.3,0.3-0.5,0.4c-0.3-0.4-0.7-0.7-0.8-1.2
						c-0.1-0.3,0.3-0.7,0.5-1C77.3,105.3,77.4,105.3,77.6,105.2z"/>
					<path class="st5" d="M59.6,105.2c0.6,0,1,0.4,1.1,0.8c0.1,0.3-0.2,0.6-0.3,0.9c0,0.1-0.1,0.1-0.1,0.2c-0.3,0.2-0.5,0.3-0.8,0.5
						c0-0.3-0.2-0.6-0.1-1C59.4,106.1,59.6,105.7,59.6,105.2z"/>
				</g>
			</g>
		</g>
	</g>
</g>
<g>
	<path class="st2" d="M128.7,90.9c-0.3-0.3-0.5-0.8-0.5-1.4v-12c0-0.6,0.2-1.1,0.5-1.4c0.3-0.3,0.8-0.5,1.4-0.5h4.5
		c1.8,0,3.3,0.3,4.5,1c1.3,0.6,2.2,1.6,2.9,2.7c0.7,1.2,1,2.6,1,4.2c0,1.7-0.3,3.1-1,4.3c-0.7,1.2-1.6,2.1-2.9,2.7
		c-1.3,0.6-2.8,0.9-4.6,0.9h-4.5C129.5,91.4,129.1,91.2,128.7,90.9z M134.4,88.1c1.5,0,2.7-0.4,3.5-1.1c0.8-0.8,1.2-1.9,1.2-3.5
		c0-1.6-0.4-2.7-1.2-3.5c-0.8-0.8-1.9-1.1-3.5-1.1h-2v9.2H134.4z"/>
	<path class="st2" d="M153.6,80.4c0.3,0.3,0.5,0.7,0.5,1.2c0,0.6-0.1,1-0.4,1.3c-0.3,0.3-0.8,0.4-1.5,0.5l-0.7,0.1
		c-0.8,0.1-1.3,0.3-1.6,0.7s-0.5,0.9-0.5,1.6v3.9c0,0.6-0.2,1.1-0.6,1.4c-0.4,0.3-0.9,0.5-1.4,0.5c-0.6,0-1-0.2-1.4-0.5
		c-0.4-0.3-0.6-0.8-0.6-1.4v-7.8c0-0.6,0.2-1,0.6-1.3c0.4-0.3,0.8-0.5,1.4-0.5c0.6,0,1,0.2,1.3,0.5c0.3,0.3,0.5,0.7,0.5,1.3v0.4
		c0.2-0.7,0.6-1.2,1.2-1.5c0.5-0.4,1.1-0.6,1.7-0.6l0.3,0C152.9,80,153.3,80.2,153.6,80.4z"/>
	<path class="st2" d="M154.6,90.9c-0.4-0.4-0.6-0.9-0.6-1.6s0.2-1.1,0.6-1.6c0.4-0.4,0.9-0.6,1.6-0.6c0.6,0,1.1,0.2,1.5,0.6
		c0.4,0.4,0.6,0.9,0.6,1.6s-0.2,1.1-0.6,1.6c-0.4,0.4-0.9,0.6-1.5,0.6C155.5,91.5,155,91.3,154.6,90.9z"/>
	<path class="st2" d="M182.5,89.7c0,0.5-0.2,0.9-0.6,1.3s-0.9,0.5-1.4,0.5c-0.3,0-0.7-0.1-0.9-0.3c-0.3-0.2-0.5-0.5-0.7-0.8l-1-2.3
		h-7.3l-1,2.3c-0.2,0.4-0.4,0.6-0.7,0.8c-0.3,0.2-0.6,0.3-1,0.3c-0.5,0-1-0.2-1.4-0.5c-0.4-0.3-0.6-0.8-0.6-1.3
		c0-0.3,0.1-0.5,0.2-0.8l5.9-12.2c0.2-0.4,0.5-0.7,0.9-0.9s0.8-0.3,1.3-0.3c0.5,0,0.9,0.1,1.3,0.3c0.4,0.2,0.7,0.5,0.9,0.9l5.9,12.2
		C182.4,89.1,182.5,89.4,182.5,89.7z M172,85h4.5l-2.3-5L172,85z"/>
	<path class="st2" d="M193.8,80.7c0.7,0.5,1.3,1.1,1.7,2c0.4,0.9,0.6,1.9,0.6,3s-0.2,2.2-0.6,3s-1,1.6-1.7,2.1
		c-0.7,0.5-1.6,0.7-2.5,0.7c-0.7,0-1.4-0.2-2-0.5c-0.6-0.3-1.1-0.7-1.4-1.2c0,0.5-0.2,0.9-0.6,1.2c-0.4,0.3-0.8,0.4-1.4,0.4
		c-0.6,0-1.1-0.2-1.4-0.5s-0.5-0.8-0.5-1.3V77.2c0-0.5,0.2-1,0.6-1.3c0.4-0.3,0.9-0.5,1.5-0.5c0.6,0,1.1,0.2,1.4,0.5
		c0.4,0.3,0.5,0.7,0.5,1.3v4.5c0.3-0.5,0.8-0.9,1.4-1.1c0.6-0.3,1.2-0.4,1.9-0.4C192.2,80,193.1,80.3,193.8,80.7z M191.6,87.8
		c0.4-0.5,0.6-1.2,0.6-2.1c0-0.9-0.2-1.5-0.6-2c-0.4-0.5-0.9-0.7-1.6-0.7c-0.7,0-1.2,0.2-1.6,0.7c-0.4,0.5-0.6,1.2-0.6,2
		c0,0.9,0.2,1.6,0.6,2.1c0.4,0.5,0.9,0.7,1.6,0.7C190.7,88.6,191.3,88.3,191.6,87.8z"/>
	<path class="st2" d="M209.2,75.9c0.4,0.3,0.6,0.8,0.6,1.3v12.5c0,0.6-0.2,1-0.5,1.4c-0.4,0.3-0.8,0.5-1.4,0.5c-0.6,0-1-0.1-1.4-0.4
		c-0.4-0.3-0.6-0.7-0.6-1.2c-0.3,0.5-0.8,0.9-1.4,1.2c-0.6,0.3-1.3,0.5-2,0.5c-0.9,0-1.8-0.2-2.5-0.7c-0.7-0.5-1.3-1.2-1.7-2.1
		s-0.6-1.9-0.6-3s0.2-2.1,0.6-3c0.4-0.9,1-1.5,1.7-2c0.7-0.5,1.6-0.7,2.6-0.7c0.7,0,1.4,0.1,1.9,0.4s1.1,0.7,1.4,1.1v-4.5
		c0-0.5,0.2-0.9,0.5-1.3c0.4-0.3,0.8-0.5,1.4-0.5C208.3,75.4,208.8,75.6,209.2,75.9z M205.2,87.9c0.4-0.5,0.6-1.2,0.6-2.1
		c0-0.9-0.2-1.6-0.6-2c-0.4-0.5-0.9-0.7-1.6-0.7c-0.7,0-1.2,0.2-1.6,0.7c-0.4,0.5-0.6,1.1-0.6,2c0,0.9,0.2,1.6,0.6,2.1
		c0.4,0.5,0.9,0.7,1.6,0.7C204.3,88.6,204.9,88.3,205.2,87.9z"/>
	<path class="st2" d="M221.9,88.2c0.2,0.3,0.3,0.6,0.3,1.1c0,0.6-0.3,1.1-0.9,1.4c-0.5,0.3-1.1,0.5-1.8,0.6
		c-0.7,0.2-1.3,0.3-1.9,0.3c-1.2,0-2.3-0.2-3.2-0.7c-0.9-0.5-1.6-1.1-2.1-2c-0.5-0.9-0.7-1.9-0.7-3.1c0-1.1,0.2-2.1,0.7-3
		c0.5-0.9,1.1-1.6,2-2s1.8-0.7,2.9-0.7c1,0,1.9,0.2,2.7,0.7c0.8,0.5,1.4,1.1,1.8,1.9c0.4,0.8,0.6,1.8,0.6,2.9c0,0.3-0.1,0.6-0.2,0.8
		c-0.2,0.2-0.4,0.3-0.7,0.3h-5.9c0.1,0.7,0.3,1.2,0.7,1.6c0.4,0.3,0.9,0.5,1.6,0.5c0.4,0,0.7,0,1-0.1c0.3-0.1,0.7-0.2,1.1-0.3
		c0.2-0.1,0.4-0.2,0.7-0.2c0.2-0.1,0.4-0.1,0.6-0.1C221.4,87.8,221.7,88,221.9,88.2z M216,83.2c-0.3,0.3-0.5,0.8-0.6,1.5h3.5
		c-0.1-1.3-0.7-2-1.7-2C216.7,82.7,216.3,82.9,216,83.2z"/>
	<path class="st2" d="M224.7,91.1c-0.4-0.3-0.6-0.8-0.6-1.4V77.3c0-0.6,0.2-1.1,0.6-1.4c0.4-0.3,0.9-0.5,1.4-0.5
		c0.6,0,1,0.2,1.4,0.5c0.4,0.3,0.6,0.8,0.6,1.4v12.4c0,0.6-0.2,1.1-0.6,1.4c-0.4,0.3-0.9,0.5-1.4,0.5
		C225.6,91.5,225.1,91.4,224.7,91.1z"/>
	<path class="st2" d="M242.1,89.6c0,0.5-0.2,0.9-0.5,1.3c-0.4,0.4-0.8,0.6-1.3,0.6c-0.4,0-0.8-0.2-1.3-0.6l-4.6-4.3v3
		c0,0.6-0.2,1.1-0.6,1.4s-0.9,0.5-1.4,0.5c-0.6,0-1-0.2-1.4-0.5c-0.4-0.3-0.6-0.8-0.6-1.4V77.3c0-0.6,0.2-1.1,0.6-1.4
		c0.4-0.3,0.9-0.5,1.4-0.5c0.6,0,1,0.2,1.4,0.5c0.4,0.3,0.6,0.8,0.6,1.4v7.6l4.2-4.2c0.4-0.4,0.8-0.6,1.3-0.6c0.5,0,0.9,0.2,1.3,0.6
		c0.4,0.4,0.6,0.8,0.6,1.3s-0.2,0.9-0.6,1.3l-2.5,2.4l2.8,2.7C241.9,88.7,242.1,89.1,242.1,89.6z"/>
	<path class="st2" d="M253.9,81.2c0.6,0.8,0.9,2,0.9,3.6v4.9c0,0.6-0.2,1-0.5,1.4c-0.4,0.3-0.8,0.5-1.5,0.5c-0.6,0-1.1-0.2-1.5-0.5
		c-0.4-0.3-0.5-0.8-0.5-1.4v-5c0-1.1-0.5-1.6-1.4-1.6c-0.6,0-1.1,0.2-1.4,0.6c-0.4,0.4-0.5,0.9-0.5,1.5v4.5c0,0.6-0.2,1-0.5,1.4
		c-0.4,0.3-0.8,0.5-1.5,0.5c-0.6,0-1.1-0.2-1.5-0.5c-0.4-0.3-0.5-0.8-0.5-1.4V77.2c0-0.5,0.2-1,0.6-1.3c0.4-0.3,0.9-0.5,1.5-0.5
		c0.6,0,1.1,0.2,1.4,0.5c0.4,0.3,0.5,0.7,0.5,1.3v4.5c0.4-0.5,0.9-0.9,1.5-1.2c0.6-0.3,1.3-0.4,2-0.4
		C252.4,80,253.3,80.4,253.9,81.2z"/>
	<path class="st2" d="M266.1,81.3c0.8,0.8,1.2,2.1,1.2,3.7v4.7c0,0.6-0.2,1-0.5,1.3c-0.3,0.3-0.8,0.5-1.4,0.5c-0.5,0-1-0.1-1.3-0.5
		c-0.3-0.3-0.5-0.7-0.6-1.2c-0.2,0.5-0.6,1-1.1,1.3c-0.5,0.3-1.1,0.5-1.8,0.5c-0.8,0-1.5-0.2-2.1-0.5c-0.6-0.3-1.1-0.7-1.5-1.3
		c-0.4-0.5-0.5-1.2-0.5-1.9c0-0.8,0.2-1.4,0.6-1.9c0.4-0.5,1.1-0.8,2-1c0.9-0.2,2.1-0.3,3.6-0.3h0.6v-0.3c0-0.5-0.1-0.9-0.4-1.1
		s-0.6-0.3-1.2-0.3c-0.6,0-1.5,0.2-2.7,0.6c-0.3,0.1-0.6,0.2-0.9,0.2c-0.4,0-0.7-0.1-0.9-0.4c-0.2-0.3-0.3-0.6-0.3-1.1
		c0-0.3,0.1-0.6,0.2-0.8c0.1-0.2,0.4-0.4,0.7-0.6c0.5-0.3,1.2-0.5,2-0.7c0.8-0.2,1.6-0.2,2.3-0.2C264,80,265.3,80.4,266.1,81.3z
		 M263,88.3c0.3-0.4,0.5-0.9,0.5-1.5v-0.3h-0.4c-1,0-1.6,0.1-2,0.3c-0.4,0.2-0.6,0.5-0.6,0.9c0,0.3,0.1,0.6,0.3,0.9
		c0.2,0.2,0.5,0.3,0.8,0.3C262.2,88.9,262.7,88.7,263,88.3z"/>
	<path class="st2" d="M270.2,91.1c-0.4-0.3-0.6-0.8-0.6-1.4V77.3c0-0.6,0.2-1.1,0.6-1.4c0.4-0.3,0.9-0.5,1.4-0.5
		c0.6,0,1,0.2,1.4,0.5c0.4,0.3,0.6,0.8,0.6,1.4v12.4c0,0.6-0.2,1.1-0.6,1.4c-0.4,0.3-0.9,0.5-1.4,0.5
		C271,91.5,270.5,91.4,270.2,91.1z"/>
	<path class="st2" d="M285.8,88.2c0.2,0.3,0.3,0.6,0.3,1.1c0,0.6-0.3,1.1-0.9,1.4c-0.5,0.3-1.1,0.5-1.8,0.6
		c-0.7,0.2-1.3,0.3-1.9,0.3c-1.2,0-2.3-0.2-3.2-0.7c-0.9-0.5-1.6-1.1-2.1-2c-0.5-0.9-0.7-1.9-0.7-3.1c0-1.1,0.2-2.1,0.7-3
		c0.5-0.9,1.1-1.6,2-2c0.8-0.5,1.8-0.7,2.9-0.7c1,0,1.9,0.2,2.7,0.7c0.8,0.5,1.4,1.1,1.8,1.9s0.6,1.8,0.6,2.9c0,0.3-0.1,0.6-0.2,0.8
		c-0.2,0.2-0.4,0.3-0.7,0.3h-5.9c0.1,0.7,0.3,1.2,0.7,1.6c0.4,0.3,0.9,0.5,1.6,0.5c0.4,0,0.7,0,1-0.1c0.3-0.1,0.7-0.2,1.1-0.3
		c0.2-0.1,0.4-0.2,0.7-0.2s0.4-0.1,0.6-0.1C285.3,87.8,285.5,88,285.8,88.2z M279.8,83.2c-0.3,0.3-0.5,0.8-0.6,1.5h3.5
		c-0.1-1.3-0.7-2-1.7-2C280.5,82.7,280.1,82.9,279.8,83.2z"/>
	<path class="st2" d="M299.6,89.6c0,0.5-0.2,0.9-0.5,1.3c-0.4,0.4-0.8,0.6-1.3,0.6c-0.4,0-0.8-0.2-1.3-0.6l-4.6-4.3v3
		c0,0.6-0.2,1.1-0.6,1.4s-0.9,0.5-1.4,0.5c-0.6,0-1-0.2-1.4-0.5s-0.6-0.8-0.6-1.4V77.3c0-0.6,0.2-1.1,0.6-1.4
		c0.4-0.3,0.9-0.5,1.4-0.5c0.6,0,1,0.2,1.4,0.5c0.4,0.3,0.6,0.8,0.6,1.4v7.6l4.2-4.2c0.4-0.4,0.8-0.6,1.3-0.6c0.5,0,0.9,0.2,1.3,0.6
		c0.4,0.4,0.6,0.8,0.6,1.3s-0.2,0.9-0.6,1.3l-2.5,2.4l2.8,2.7C299.4,88.7,299.6,89.1,299.6,89.6z"/>
	<path class="st2" d="M323.1,89.7c0,0.5-0.2,0.9-0.6,1.3s-0.9,0.5-1.4,0.5c-0.3,0-0.7-0.1-0.9-0.3s-0.5-0.5-0.7-0.8l-1-2.3h-7.3
		l-1,2.3c-0.2,0.4-0.4,0.6-0.7,0.8c-0.3,0.2-0.6,0.3-1,0.3c-0.5,0-1-0.2-1.4-0.5s-0.6-0.8-0.6-1.3c0-0.3,0.1-0.5,0.2-0.8l5.9-12.2
		c0.2-0.4,0.5-0.7,0.9-0.9c0.4-0.2,0.8-0.3,1.3-0.3c0.5,0,0.9,0.1,1.3,0.3s0.7,0.5,0.9,0.9l5.9,12.2
		C323.1,89.1,323.1,89.4,323.1,89.7z M312.6,85h4.5l-2.3-5L312.6,85z"/>
	<path class="st2" d="M325.4,90.9c-0.3-0.3-0.5-0.8-0.5-1.4v-12c0-0.6,0.2-1.1,0.6-1.5c0.4-0.4,0.9-0.6,1.5-0.6
		c0.6,0,1.2,0.2,1.5,0.6c0.4,0.4,0.6,0.9,0.6,1.5V88h5.2c1.3,0,2,0.6,2,1.7c0,0.6-0.2,1-0.5,1.3c-0.3,0.3-0.8,0.4-1.5,0.4h-7.4
		C326.2,91.4,325.7,91.2,325.4,90.9z"/>
	<path class="st2" d="M349.4,88.5c0.3,0.3,0.5,0.7,0.5,1.2c0,0.6-0.2,1-0.5,1.3s-0.8,0.4-1.5,0.4h-9c-0.6,0-1-0.2-1.3-0.5
		c-0.3-0.3-0.5-0.7-0.5-1.2c0-0.5,0.2-1,0.5-1.5l6.9-9.4h-5.5c-0.7,0-1.2-0.1-1.5-0.4c-0.3-0.3-0.5-0.7-0.5-1.2c0-0.6,0.2-1,0.5-1.3
		c0.3-0.3,0.8-0.4,1.5-0.4h8.6c0.5,0,1,0.2,1.3,0.5c0.3,0.3,0.5,0.7,0.5,1.2c0,0.5-0.2,1-0.5,1.5l-6.9,9.4h5.8
		C348.5,88.1,349,88.3,349.4,88.5z"/>
	<path class="st2" d="M360.1,81.3c0.8,0.8,1.2,2.1,1.2,3.7v4.7c0,0.6-0.2,1-0.5,1.3c-0.3,0.3-0.8,0.5-1.4,0.5c-0.5,0-1-0.1-1.3-0.5
		c-0.3-0.3-0.5-0.7-0.6-1.2c-0.2,0.5-0.6,1-1.1,1.3c-0.5,0.3-1.1,0.5-1.8,0.5c-0.8,0-1.5-0.2-2.1-0.5c-0.6-0.3-1.1-0.7-1.5-1.3
		c-0.4-0.5-0.5-1.2-0.5-1.9c0-0.8,0.2-1.4,0.6-1.9c0.4-0.5,1.1-0.8,2-1c0.9-0.2,2.1-0.3,3.6-0.3h0.6v-0.3c0-0.5-0.1-0.9-0.4-1.1
		s-0.6-0.3-1.2-0.3c-0.6,0-1.5,0.2-2.7,0.6c-0.3,0.1-0.6,0.2-0.9,0.2c-0.4,0-0.7-0.1-0.9-0.4c-0.2-0.3-0.3-0.6-0.3-1.1
		c0-0.3,0.1-0.6,0.2-0.8c0.1-0.2,0.4-0.4,0.7-0.6c0.5-0.3,1.2-0.5,2-0.7c0.8-0.2,1.6-0.2,2.3-0.2C358,80,359.3,80.4,360.1,81.3z
		 M357,88.3c0.3-0.4,0.5-0.9,0.5-1.5v-0.3h-0.4c-1,0-1.6,0.1-2,0.3c-0.4,0.2-0.6,0.5-0.6,0.9c0,0.3,0.1,0.6,0.3,0.9
		c0.2,0.2,0.5,0.3,0.8,0.3C356.2,88.9,356.7,88.7,357,88.3z"/>
	<path class="st2" d="M364.2,91.1c-0.4-0.3-0.6-0.8-0.6-1.4V77.3c0-0.6,0.2-1.1,0.6-1.4c0.4-0.3,0.9-0.5,1.4-0.5
		c0.6,0,1,0.2,1.4,0.5c0.4,0.3,0.6,0.8,0.6,1.4v12.4c0,0.6-0.2,1.1-0.6,1.4c-0.4,0.3-0.9,0.5-1.4,0.5
		C365,91.5,364.5,91.4,364.2,91.1z"/>
	<path class="st2" d="M378.9,81.3c0.8,0.8,1.2,2.1,1.2,3.7v4.7c0,0.6-0.2,1-0.5,1.3c-0.3,0.3-0.8,0.5-1.4,0.5c-0.5,0-1-0.1-1.3-0.5
		c-0.3-0.3-0.5-0.7-0.6-1.2c-0.2,0.5-0.6,1-1.1,1.3c-0.5,0.3-1.1,0.5-1.8,0.5c-0.8,0-1.5-0.2-2.1-0.5c-0.6-0.3-1.1-0.7-1.5-1.3
		c-0.4-0.5-0.5-1.2-0.5-1.9c0-0.8,0.2-1.4,0.6-1.9c0.4-0.5,1.1-0.8,2-1c0.9-0.2,2.1-0.3,3.6-0.3h0.6v-0.3c0-0.5-0.1-0.9-0.4-1.1
		s-0.6-0.3-1.2-0.3c-0.6,0-1.5,0.2-2.7,0.6c-0.3,0.1-0.6,0.2-0.9,0.2c-0.4,0-0.7-0.1-0.9-0.4c-0.2-0.3-0.3-0.6-0.3-1.1
		c0-0.3,0.1-0.6,0.2-0.8c0.1-0.2,0.4-0.4,0.7-0.6c0.5-0.3,1.2-0.5,2-0.7c0.8-0.2,1.6-0.2,2.3-0.2C376.8,80,378,80.4,378.9,81.3z
		 M375.8,88.3c0.3-0.4,0.5-0.9,0.5-1.5v-0.3h-0.4c-1,0-1.6,0.1-2,0.3c-0.4,0.2-0.6,0.5-0.6,0.9c0,0.3,0.1,0.6,0.3,0.9
		c0.2,0.2,0.5,0.3,0.8,0.3C375,88.9,375.4,88.7,375.8,88.3z"/>
	<path class="st2" d="M392.2,80.7c0.7,0.5,1.3,1.1,1.7,2c0.4,0.9,0.6,1.9,0.6,3s-0.2,2.2-0.6,3c-0.4,0.9-1,1.6-1.7,2.1
		c-0.7,0.5-1.6,0.7-2.5,0.7c-0.7,0-1.4-0.2-2-0.5c-0.6-0.3-1.1-0.7-1.4-1.2c0,0.5-0.2,0.9-0.6,1.2c-0.4,0.3-0.8,0.4-1.4,0.4
		c-0.6,0-1.1-0.2-1.4-0.5s-0.5-0.8-0.5-1.3V77.2c0-0.5,0.2-1,0.6-1.3c0.4-0.3,0.9-0.5,1.5-0.5c0.6,0,1.1,0.2,1.4,0.5
		c0.4,0.3,0.5,0.7,0.5,1.3v4.5c0.3-0.5,0.8-0.9,1.4-1.1c0.6-0.3,1.2-0.4,1.9-0.4C390.6,80,391.5,80.3,392.2,80.7z M390,87.8
		c0.4-0.5,0.6-1.2,0.6-2.1c0-0.9-0.2-1.5-0.6-2c-0.4-0.5-0.9-0.7-1.6-0.7c-0.7,0-1.2,0.2-1.6,0.7c-0.4,0.5-0.6,1.2-0.6,2
		c0,0.9,0.2,1.6,0.6,2.1c0.4,0.5,0.9,0.7,1.6,0.7S389.7,88.3,390,87.8z"/>
	<path class="st2" d="M405.4,81.3c0.8,0.8,1.2,2.1,1.2,3.7v4.7c0,0.6-0.2,1-0.5,1.3c-0.3,0.3-0.8,0.5-1.4,0.5c-0.5,0-1-0.1-1.3-0.5
		c-0.3-0.3-0.5-0.7-0.6-1.2c-0.2,0.5-0.6,1-1.1,1.3c-0.5,0.3-1.1,0.5-1.8,0.5c-0.8,0-1.5-0.2-2.1-0.5c-0.6-0.3-1.1-0.7-1.5-1.3
		c-0.4-0.5-0.5-1.2-0.5-1.9c0-0.8,0.2-1.4,0.6-1.9c0.4-0.5,1.1-0.8,2-1c0.9-0.2,2.1-0.3,3.6-0.3h0.6v-0.3c0-0.5-0.1-0.9-0.4-1.1
		s-0.6-0.3-1.2-0.3c-0.6,0-1.5,0.2-2.7,0.6c-0.3,0.1-0.6,0.2-0.9,0.2c-0.4,0-0.7-0.1-0.9-0.4c-0.2-0.3-0.3-0.6-0.3-1.1
		c0-0.3,0.1-0.6,0.2-0.8c0.1-0.2,0.4-0.4,0.7-0.6c0.5-0.3,1.2-0.5,2-0.7c0.8-0.2,1.6-0.2,2.3-0.2C403.3,80,404.5,80.4,405.4,81.3z
		 M402.3,88.3c0.3-0.4,0.5-0.9,0.5-1.5v-0.3h-0.4c-1,0-1.6,0.1-2,0.3c-0.4,0.2-0.6,0.5-0.6,0.9c0,0.3,0.1,0.6,0.3,0.9
		c0.2,0.2,0.5,0.3,0.8,0.3C401.5,88.9,401.9,88.7,402.3,88.3z"/>
	<path class="st2" d="M419.3,81.2c0.6,0.8,1,2,1,3.6v4.9c0,0.6-0.2,1-0.5,1.4c-0.4,0.3-0.8,0.5-1.5,0.5c-0.6,0-1.1-0.2-1.5-0.5
		c-0.4-0.3-0.5-0.8-0.5-1.4V85c0-0.7-0.1-1.1-0.3-1.4c-0.2-0.3-0.6-0.5-1-0.5c-0.6,0-1.1,0.2-1.4,0.6c-0.4,0.4-0.5,0.9-0.5,1.5v4.5
		c0,0.6-0.2,1-0.5,1.4c-0.4,0.3-0.8,0.5-1.5,0.5c-0.6,0-1.1-0.2-1.5-0.5c-0.4-0.3-0.5-0.8-0.5-1.4v-7.8c0-0.5,0.2-1,0.6-1.3
		c0.4-0.3,0.9-0.5,1.5-0.5c0.6,0,1,0.2,1.4,0.5c0.3,0.3,0.5,0.7,0.5,1.2c0.4-0.6,0.9-1,1.5-1.3c0.6-0.3,1.3-0.5,2-0.5
		C417.6,80,418.6,80.4,419.3,81.2z"/>
	<path class="st2" d="M430.6,80.4c0.3-0.2,0.6-0.3,0.9-0.3c0.5,0,0.9,0.2,1.3,0.5c0.4,0.3,0.6,0.7,0.6,1.2c0,0.3-0.1,0.5-0.2,0.7
		l-6,12c-0.2,0.4-0.4,0.7-0.7,0.8s-0.6,0.3-1,0.3c-0.5,0-0.9-0.2-1.3-0.5c-0.4-0.3-0.6-0.7-0.6-1.2c0-0.3,0.1-0.5,0.2-0.8l1.5-3
		l-3.8-7.7c-0.1-0.3-0.2-0.5-0.2-0.7c0-0.5,0.2-0.9,0.6-1.2c0.4-0.3,0.9-0.5,1.4-0.5c0.4,0,0.7,0.1,1,0.3c0.3,0.2,0.5,0.5,0.7,0.8
		l2.4,5.2l2.4-5.2C430,80.8,430.3,80.6,430.6,80.4z"/>
</g>
<g>
	<path class="st4" d="M140.9,105.8c0,2.4-0.6,4.3-1.8,5.6c-1.2,1.4-2.9,2.1-5,2.1c-2.2,0-3.9-0.7-5.1-2s-1.8-3.2-1.8-5.7
		c0-2.4,0.6-4.3,1.8-5.7c1.2-1.3,2.9-2,5.1-2c2.1,0,3.8,0.7,5,2C140.3,101.6,140.9,103.5,140.9,105.8z M129,105.8
		c0,2,0.4,3.6,1.3,4.6c0.9,1,2.1,1.6,3.8,1.6c1.7,0,2.9-0.5,3.7-1.6c0.8-1,1.3-2.6,1.3-4.6c0-2-0.4-3.5-1.3-4.6
		c-0.8-1-2.1-1.6-3.7-1.6c-1.7,0-2.9,0.5-3.8,1.6C129.4,102.3,129,103.9,129,105.8z"/>
	<path class="st4" d="M153.3,101.9c0.5,0,0.9,0,1.3,0.1l-0.2,1.6c-0.5-0.1-0.9-0.2-1.2-0.2c-0.9,0-1.7,0.4-2.3,1.1
		c-0.6,0.7-1,1.7-1,2.7v6h-1.7v-11.2h1.4l0.2,2.1h0.1c0.4-0.7,0.9-1.3,1.5-1.7C151.9,102.1,152.6,101.9,153.3,101.9z"/>
	<path class="st4" d="M164.6,112.1c0.3,0,0.6,0,0.9-0.1c0.3,0,0.5-0.1,0.7-0.1v1.3c-0.2,0.1-0.5,0.2-0.8,0.2s-0.7,0.1-1,0.1
		c-2.2,0-3.2-1.1-3.2-3.4v-6.7h-1.6v-0.8l1.6-0.7l0.7-2.4h1v2.6h3.2v1.3h-3.2v6.6c0,0.7,0.2,1.2,0.5,1.6
		C163.6,112,164,112.1,164.6,112.1z"/>
	<path class="st4" d="M180.2,113.3v-7.2c0-0.9-0.2-1.6-0.6-2c-0.4-0.4-1.1-0.7-2-0.7c-1.2,0-2,0.3-2.6,1c-0.5,0.6-0.8,1.7-0.8,3.1
		v5.9h-1.7V97.4h1.7v4.8c0,0.6,0,1.1-0.1,1.4h0.1c0.3-0.5,0.8-1,1.4-1.3c0.6-0.3,1.3-0.5,2.1-0.5c1.4,0,2.4,0.3,3.1,1
		c0.7,0.7,1,1.7,1,3.1v7.3H180.2z"/>
	<path class="st4" d="M199.3,107.7c0,1.8-0.5,3.2-1.4,4.3c-0.9,1-2.2,1.5-3.8,1.5c-1,0-1.9-0.2-2.7-0.7c-0.8-0.5-1.4-1.1-1.8-2
		c-0.4-0.9-0.6-1.9-0.6-3.1c0-1.8,0.5-3.2,1.4-4.3s2.2-1.5,3.8-1.5c1.6,0,2.8,0.5,3.7,1.6C198.8,104.5,199.3,106,199.3,107.7z
		 M190.7,107.7c0,1.4,0.3,2.5,0.9,3.3c0.6,0.7,1.4,1.1,2.5,1.1c1.1,0,2-0.4,2.5-1.1c0.6-0.7,0.9-1.8,0.9-3.3c0-1.4-0.3-2.5-0.9-3.2
		c-0.6-0.7-1.4-1.1-2.5-1.1c-1.1,0-1.9,0.4-2.5,1.1C191,105.2,190.7,106.3,190.7,107.7z"/>
	<path class="st4" d="M211.7,113.5c-0.7,0-1.4-0.1-2-0.4s-1.1-0.7-1.5-1.2H208c0.1,0.7,0.1,1.3,0.1,1.9v4.6h-1.7v-16.2h1.4l0.2,1.5
		h0.1c0.4-0.6,0.9-1.1,1.5-1.3s1.2-0.4,2-0.4c1.5,0,2.6,0.5,3.4,1.5c0.8,1,1.2,2.4,1.2,4.3c0,1.8-0.4,3.3-1.2,4.3
		S213.1,113.5,211.7,113.5z M211.4,103.4c-1.1,0-2,0.3-2.5,0.9c-0.5,0.6-0.8,1.6-0.8,3v0.4c0,1.6,0.3,2.7,0.8,3.4
		c0.5,0.7,1.4,1,2.5,1c1,0,1.7-0.4,2.3-1.2c0.5-0.8,0.8-1.9,0.8-3.2c0-1.4-0.3-2.5-0.8-3.2S212.4,103.4,211.4,103.4z"/>
	<path class="st4" d="M228.2,113.5c-1.7,0-3-0.5-3.9-1.5c-1-1-1.4-2.4-1.4-4.2c0-1.8,0.4-3.2,1.3-4.3c0.9-1.1,2.1-1.6,3.6-1.6
		c1.4,0,2.5,0.5,3.3,1.4c0.8,0.9,1.2,2.1,1.2,3.7v1.1h-7.7c0,1.3,0.4,2.3,1,3c0.6,0.7,1.5,1,2.7,1c1.2,0,2.4-0.3,3.6-0.8v1.5
		c-0.6,0.3-1.2,0.4-1.7,0.6C229.6,113.5,229,113.5,228.2,113.5z M227.8,103.4c-0.9,0-1.6,0.3-2.1,0.9c-0.5,0.6-0.8,1.4-0.9,2.4h5.9
		c0-1.1-0.2-1.9-0.7-2.5C229.3,103.6,228.7,103.4,227.8,103.4z"/>
	<path class="st4" d="M247.1,111.8L247.1,111.8c-0.9,1.1-2,1.7-3.6,1.7c-1.5,0-2.6-0.5-3.4-1.5s-1.2-2.4-1.2-4.3s0.4-3.3,1.2-4.3
		c0.8-1,2-1.5,3.4-1.5c1.5,0,2.7,0.6,3.5,1.7h0.1l-0.1-0.8l0-0.8v-4.6h1.7v15.9h-1.4L247.1,111.8z M243.7,112.1c1.2,0,2-0.3,2.5-0.9
		c0.5-0.6,0.8-1.6,0.8-3v-0.4c0-1.6-0.3-2.7-0.8-3.4c-0.5-0.7-1.4-1-2.5-1c-1,0-1.8,0.4-2.3,1.2s-0.8,1.9-0.8,3.3
		c0,1.4,0.3,2.5,0.8,3.2S242.7,112.1,243.7,112.1z"/>
	<path class="st4" d="M256.4,99.1c0-0.4,0.1-0.7,0.3-0.9c0.2-0.2,0.4-0.3,0.7-0.3c0.3,0,0.5,0.1,0.7,0.3c0.2,0.2,0.3,0.5,0.3,0.8
		c0,0.4-0.1,0.7-0.3,0.9c-0.2,0.2-0.4,0.3-0.7,0.3c-0.3,0-0.5-0.1-0.7-0.3C256.5,99.8,256.4,99.5,256.4,99.1z M258.2,113.3h-1.7
		v-11.2h1.7V113.3z"/>
	<path class="st4" d="M270.5,113.5c-1.6,0-2.9-0.5-3.8-1.5c-0.9-1-1.3-2.4-1.3-4.2c0-1.9,0.5-3.3,1.4-4.3s2.2-1.5,3.9-1.5
		c0.5,0,1.1,0.1,1.6,0.2c0.5,0.1,1,0.3,1.3,0.4L273,104c-0.4-0.1-0.8-0.3-1.2-0.4c-0.4-0.1-0.8-0.1-1.2-0.1c-2.3,0-3.4,1.5-3.4,4.3
		c0,1.4,0.3,2.4,0.8,3.2s1.4,1.1,2.5,1.1c0.9,0,1.9-0.2,2.9-0.6v1.5C272.6,113.3,271.6,113.5,270.5,113.5z"/>
	<path class="st4" d="M296.5,99.7c-1.6,0-2.9,0.5-3.9,1.6c-1,1.1-1.4,2.6-1.4,4.5c0,2,0.5,3.5,1.4,4.5c0.9,1.1,2.2,1.6,3.9,1.6
		c1,0,2.2-0.2,3.6-0.6v1.5c-1,0.4-2.3,0.6-3.8,0.6c-2.2,0-3.9-0.7-5.1-2c-1.2-1.3-1.8-3.2-1.8-5.7c0-1.5,0.3-2.9,0.9-4
		c0.6-1.2,1.4-2,2.5-2.7c1.1-0.6,2.4-0.9,3.8-0.9c1.6,0,2.9,0.3,4.1,0.9l-0.7,1.5C298.8,100,297.6,99.7,296.5,99.7z"/>
	<path class="st4" d="M316.9,107.7c0,1.8-0.5,3.2-1.4,4.3c-0.9,1-2.2,1.5-3.8,1.5c-1,0-1.9-0.2-2.7-0.7s-1.4-1.1-1.8-2
		c-0.4-0.9-0.6-1.9-0.6-3.1c0-1.8,0.5-3.2,1.4-4.3c0.9-1,2.2-1.5,3.8-1.5c1.6,0,2.8,0.5,3.7,1.6C316.5,104.5,316.9,106,316.9,107.7z
		 M308.4,107.7c0,1.4,0.3,2.5,0.9,3.3c0.6,0.7,1.4,1.1,2.5,1.1s2-0.4,2.5-1.1c0.6-0.7,0.9-1.8,0.9-3.3c0-1.4-0.3-2.5-0.9-3.2
		c-0.6-0.7-1.4-1.1-2.5-1.1c-1.1,0-1.9,0.4-2.5,1.1C308.7,105.2,308.4,106.3,308.4,107.7z"/>
	<path class="st4" d="M331.8,113.3v-7.2c0-0.9-0.2-1.6-0.6-2c-0.4-0.4-1.1-0.7-2-0.7c-1.2,0-2,0.3-2.6,0.9c-0.5,0.6-0.8,1.7-0.8,3.1
		v5.9h-1.7v-11.2h1.4l0.3,1.5h0.1c0.3-0.6,0.8-1,1.5-1.3s1.3-0.5,2.1-0.5c1.3,0,2.4,0.3,3,1c0.7,0.7,1,1.7,1,3.1v7.3H331.8z"/>
	<path class="st4" d="M348.4,110.3c0,1-0.4,1.8-1.2,2.4c-0.8,0.6-1.9,0.8-3.3,0.8c-1.5,0-2.6-0.2-3.5-0.7v-1.6
		c0.5,0.3,1.1,0.5,1.7,0.6c0.6,0.2,1.2,0.2,1.8,0.2c0.9,0,1.6-0.1,2-0.4c0.5-0.3,0.7-0.7,0.7-1.3c0-0.4-0.2-0.8-0.6-1.1
		s-1.1-0.7-2.2-1.1c-1-0.4-1.8-0.7-2.2-1c-0.4-0.3-0.8-0.6-1-1c-0.2-0.4-0.3-0.8-0.3-1.3c0-0.9,0.4-1.6,1.1-2.2s1.8-0.8,3.1-0.8
		c1.2,0,2.4,0.2,3.5,0.7l-0.6,1.4c-1.1-0.5-2.1-0.7-3.1-0.7c-0.8,0-1.4,0.1-1.8,0.4s-0.6,0.6-0.6,1c0,0.3,0.1,0.6,0.2,0.8
		s0.4,0.4,0.7,0.6c0.3,0.2,1,0.5,2,0.8c1.3,0.5,2.2,1,2.7,1.5C348.2,108.9,348.4,109.5,348.4,110.3z"/>
	<path class="st4" d="M357,102.1v7.3c0,0.9,0.2,1.6,0.6,2c0.4,0.4,1.1,0.7,2,0.7c1.2,0,2-0.3,2.6-1s0.8-1.7,0.8-3.1v-5.9h1.7v11.2
		h-1.4l-0.2-1.5h-0.1c-0.3,0.6-0.8,1-1.4,1.3c-0.6,0.3-1.3,0.4-2.1,0.4c-1.4,0-2.4-0.3-3.1-1c-0.7-0.6-1-1.7-1-3.1v-7.3H357z"/>
	<path class="st4" d="M374.1,113.3h-1.7V97.4h1.7V113.3z"/>
	<path class="st4" d="M385.6,112.1c0.3,0,0.6,0,0.9-0.1c0.3,0,0.5-0.1,0.7-0.1v1.3c-0.2,0.1-0.5,0.2-0.8,0.2s-0.7,0.1-1,0.1
		c-2.2,0-3.2-1.1-3.2-3.4v-6.7h-1.6v-0.8l1.6-0.7l0.7-2.4h1v2.6h3.2v1.3h-3.2v6.6c0,0.7,0.2,1.2,0.5,1.6
		C384.6,112,385,112.1,385.6,112.1z"/>
	<path class="st4" d="M400.4,113.3l-0.3-1.6H400c-0.6,0.7-1.1,1.2-1.7,1.4c-0.6,0.2-1.2,0.4-2.1,0.4c-1.1,0-2-0.3-2.6-0.9
		c-0.6-0.6-0.9-1.4-0.9-2.4c0-2.3,1.8-3.4,5.4-3.6l1.9-0.1v-0.7c0-0.9-0.2-1.5-0.6-1.9s-1-0.6-1.8-0.6c-0.9,0-2,0.3-3.2,0.9
		l-0.5-1.3c0.6-0.3,1.2-0.5,1.8-0.7s1.3-0.3,2-0.3c1.3,0,2.3,0.3,3,0.9c0.6,0.6,1,1.5,1,2.8v7.6H400.4z M396.6,112.1
		c1.1,0,1.9-0.3,2.5-0.9c0.6-0.6,0.9-1.4,0.9-2.4v-1l-1.7,0.1c-1.3,0-2.3,0.3-2.9,0.6s-0.9,0.9-0.9,1.7c0,0.6,0.2,1.1,0.6,1.4
		C395.4,112,396,112.1,396.6,112.1z"/>
	<path class="st4" d="M417.1,113.3v-7.2c0-0.9-0.2-1.6-0.6-2c-0.4-0.4-1.1-0.7-2-0.7c-1.2,0-2,0.3-2.6,0.9c-0.5,0.6-0.8,1.7-0.8,3.1
		v5.9h-1.7v-11.2h1.4l0.3,1.5h0.1c0.3-0.6,0.8-1,1.5-1.3s1.3-0.5,2.1-0.5c1.3,0,2.4,0.3,3,1c0.7,0.7,1,1.7,1,3.1v7.3H417.1z"/>
	<path class="st4" d="M430.1,112.1c0.3,0,0.6,0,0.9-0.1c0.3,0,0.5-0.1,0.7-0.1v1.3c-0.2,0.1-0.5,0.2-0.8,0.2s-0.7,0.1-1,0.1
		c-2.2,0-3.2-1.1-3.2-3.4v-6.7H425v-0.8l1.6-0.7l0.7-2.4h1v2.6h3.2v1.3h-3.2v6.6c0,0.7,0.2,1.2,0.5,1.6
		C429.1,112,429.5,112.1,430.1,112.1z"/>
</g>
</svg>
